<svg width="35.000000" height="35.000000" viewBox="0 0 35 35" fill="none" xmlns="http://www.w3.org/2000/svg" xmlns:xlink="http://www.w3.org/1999/xlink">
	<desc>
			Created with Pixso.
	</desc>
	<defs>
		<clipPath id="clip3001_24">
			<rect id="close 1" width="35.000000" height="35.000000" fill="white" fill-opacity="0"/>
		</clipPath>
	</defs>
	<rect id="close 1" width="35.000000" height="35.000000" fill="#FFFFFF" fill-opacity="0"/>
	<g clip-path="url(#clip3001_24)">
		<path id="Vector" d="M29.8745 5.12561C26.5688 1.82025 22.1743 0 17.5 0C12.8257 0 8.43115 1.82025 5.12549 5.12567C1.82031 8.43097 0 12.8256 0 17.5001C0 22.1745 1.82031 26.5692 5.12549 29.8745C8.43066 33.1797 12.8257 35 17.5 35C22.1743 35 26.5688 33.1797 29.8745 29.8744C33.1797 26.569 35 22.1744 35 17.5C35 12.8256 33.1797 8.43097 29.8745 5.12561ZM28.4243 28.4243C25.5063 31.3422 21.6265 32.9492 17.5 32.9492C13.373 32.9492 9.49365 31.3422 6.57568 28.4243C3.65771 25.5063 2.05078 21.6267 2.05078 17.5001C2.05078 13.3734 3.65771 9.49377 6.57568 6.57574C9.49365 3.65778 13.3735 2.05078 17.5 2.05078C21.6265 2.05078 25.5063 3.65778 28.4243 6.57568C34.4478 12.5994 34.4478 22.4006 28.4243 28.4243Z" fill="#437FC8" fill-opacity="1.000000" fill-rule="nonzero"/>
		<path id="Vector" d="M25.2144 23.7646L18.9497 17.5001L25.2144 11.2355C25.6147 10.8351 25.6147 10.1859 25.2144 9.78552C24.814 9.38507 24.1646 9.38507 23.7642 9.78552L17.5 16.05L11.2354 9.78546C10.835 9.38501 10.1855 9.38501 9.78516 9.78546C9.38477 10.1859 9.38477 10.8351 9.78516 11.2355L16.0498 17.5001L9.78516 23.7646C9.38477 24.165 9.38477 24.8143 9.78516 25.2147C9.98535 25.4149 10.248 25.515 10.5103 25.515C10.7725 25.515 11.0352 25.4149 11.2354 25.2147L17.5 18.9502L23.7642 25.2147C23.9644 25.4149 24.2271 25.515 24.4893 25.515C24.752 25.515 25.0142 25.4149 25.2144 25.2147C25.6147 24.8143 25.6147 24.165 25.2144 23.7646Z" fill="#437FC8" fill-opacity="1.000000" fill-rule="nonzero"/>
	</g>
</svg>
