<svg width="35.000000" height="35.000000" viewBox="0 0 35 35" fill="none" xmlns="http://www.w3.org/2000/svg" xmlns:xlink="http://www.w3.org/1999/xlink">
	<desc>
			Created with Pixso.
	</desc>
	<defs>
		<clipPath id="clip3001_2">
			<rect id="coin 1" width="35.000000" height="35.000000" fill="white" fill-opacity="0"/>
		</clipPath>
	</defs>
	<rect id="coin 1" width="35.000000" height="35.000000" fill="#FFFFFF" fill-opacity="0"/>
	<g clip-path="url(#clip3001_2)">
		<path id="Vector" d="M29.8745 5.12558C26.5693 1.82028 22.1743 0 17.5 0C12.8257 0 8.43066 1.82028 5.12549 5.12558C1.82031 8.43091 0 12.8256 0 17.5C0 22.1744 1.82031 26.5691 5.12549 29.8744C8.43066 33.1797 12.8257 35 17.5 35C22.1743 35 26.5693 33.1797 29.8745 29.8744C33.1797 26.5691 35 22.1744 35 17.5C35 12.8256 33.1797 8.43091 29.8745 5.12558ZM17.5 32.9492C8.98145 32.9492 2.05078 26.0187 2.05078 17.5C2.05078 8.98126 8.98145 2.05078 17.5 2.05078C26.0186 2.05078 32.9492 8.98126 32.9492 17.5C32.9492 26.0187 26.0186 32.9492 17.5 32.9492Z" fill="#437FC8" fill-opacity="1.000000" fill-rule="nonzero"/>
		<path id="Vector" d="M18.5986 16.4745L16.4019 16.4745C15.1504 16.4745 14.1323 15.4565 14.1323 14.2051C14.1323 12.9536 15.1504 11.9355 16.4019 11.9355L20.7949 11.9355C21.3613 11.9355 21.8203 11.4764 21.8203 10.9102C21.8203 10.3439 21.3613 9.88477 20.7949 9.88477L18.5254 9.88477L18.5254 7.61523C18.5254 7.04895 18.0664 6.58984 17.5 6.58984C16.9336 6.58984 16.4746 7.04895 16.4746 7.61523L16.4746 9.88477L16.4019 9.88477C14.0195 9.88477 12.0815 11.8229 12.0815 14.2051C12.0815 16.5872 14.0195 18.5253 16.4019 18.5253L18.5986 18.5253C19.8501 18.5253 20.8682 19.5435 20.8682 20.7949C20.8682 22.0462 19.8501 23.0644 18.5986 23.0644L14.2051 23.0644C13.6392 23.0644 13.1797 23.5235 13.1797 24.0898C13.1797 24.6561 13.6392 25.1152 14.2051 25.1152L16.4746 25.1152L16.4746 27.3848C16.4746 27.951 16.9336 28.4102 17.5 28.4102C18.0664 28.4102 18.5254 27.951 18.5254 27.3848L18.5254 25.1152L18.5986 25.1152C20.9805 25.1152 22.9189 23.177 22.9189 20.7949C22.9189 18.4127 20.9805 16.4745 18.5986 16.4745Z" fill="#437FC8" fill-opacity="1.000000" fill-rule="nonzero"/>
	</g>
</svg>
