<svg width="35.000000" height="35.000000" viewBox="0 0 35 35" fill="none" xmlns="http://www.w3.org/2000/svg" xmlns:xlink="http://www.w3.org/1999/xlink">
	<desc>
			Created with Pixso.
	</desc>
	<defs>
		<clipPath id="clip3001_68">
			<rect id="document 1" width="35.000000" height="35.000000" fill="white" fill-opacity="0"/>
		</clipPath>
	</defs>
	<rect id="document 1" width="35.000000" height="35.000000" fill="#FFFFFF" fill-opacity="0"/>
	<g clip-path="url(#clip3001_68)">
		<path id="Vector" d="M29.6543 7.2644L23.0625 1.02856C22.3618 0.365234 21.4438 0 20.479 0L7.92969 0C5.85645 0 4.16992 1.68665 4.16992 3.75977L4.16992 31.2402C4.16992 33.3134 5.85645 35 7.92969 35L27.0703 35C29.1436 35 30.8301 33.3134 30.8301 31.2402L30.8301 9.99561C30.8301 8.96692 30.4014 7.97144 29.6543 7.2644ZM27.6626 8.20312L22.5586 8.20312C22.3701 8.20312 22.2168 8.0498 22.2168 7.86133L22.2168 3.05127L27.6626 8.20312ZM27.0703 32.9492L7.92969 32.9492C6.9873 32.9492 6.2207 32.1826 6.2207 31.2402L6.2207 3.75977C6.2207 2.81738 6.9873 2.05078 7.92969 2.05078L20.166 2.05078L20.166 7.86133C20.166 9.18054 21.2393 10.2539 22.5586 10.2539L28.7793 10.2539L28.7793 31.2402C28.7793 32.1826 28.0127 32.9492 27.0703 32.9492Z" fill="#437FC8" fill-opacity="1.000000" fill-rule="nonzero"/>
		<path id="Vector" d="M24.8145 13.6719L9.77539 13.6719C9.20898 13.6719 8.75 14.131 8.75 14.6973C8.75 15.2635 9.20898 15.7227 9.77539 15.7227L24.8145 15.7227C25.3809 15.7227 25.8398 15.2635 25.8398 14.6973C25.8398 14.131 25.3809 13.6719 24.8145 13.6719Z" fill="#437FC8" fill-opacity="1.000000" fill-rule="nonzero"/>
		<path id="Vector" d="M24.8145 19.1406L9.77539 19.1406C9.20898 19.1406 8.75 19.5997 8.75 20.166C8.75 20.7323 9.20898 21.1914 9.77539 21.1914L24.8145 21.1914C25.3809 21.1914 25.8398 20.7323 25.8398 20.166C25.8398 19.5997 25.3809 19.1406 24.8145 19.1406Z" fill="#437FC8" fill-opacity="1.000000" fill-rule="nonzero"/>
		<path id="Vector" d="M14.7466 24.6094L9.77539 24.6094C9.20898 24.6094 8.75 25.0685 8.75 25.6348C8.75 26.201 9.20898 26.6602 9.77539 26.6602L14.7466 26.6602C15.313 26.6602 15.772 26.201 15.772 25.6348C15.772 25.0685 15.313 24.6094 14.7466 24.6094Z" fill="#437FC8" fill-opacity="1.000000" fill-rule="nonzero"/>
	</g>
</svg>
