<svg width="35.000000" height="35.000000" viewBox="0 0 35 35" fill="none" xmlns="http://www.w3.org/2000/svg" xmlns:xlink="http://www.w3.org/1999/xlink">
	<desc>
			Created with Pixso.
	</desc>
	<defs>
		<clipPath id="clip3000_39">
			<rect id="information 2" width="35.000000" height="35.000000" fill="white" fill-opacity="0"/>
		</clipPath>
	</defs>
	<rect id="information 2" width="35.000000" height="35.000000" fill="#FFFFFF" fill-opacity="0"/>
	<g clip-path="url(#clip3000_39)">
		<path id="Vector" d="M29.8745 5.12561C26.5693 1.82031 22.1743 0 17.5 0C12.8257 0 8.43115 1.82031 5.12549 5.12561C1.82031 8.43091 0 12.8256 0 17.5C0 22.1744 1.82031 26.5691 5.12549 29.8744C8.43115 33.1797 12.8257 35 17.5 35C22.1743 35 26.5693 33.1797 29.8745 29.8744C33.1797 26.5691 35 22.1744 35 17.5C35 12.8256 33.1797 8.43091 29.8745 5.12561ZM17.5 32.9492C8.98145 32.9492 2.05078 26.0188 2.05078 17.5C2.05078 8.9812 8.98145 2.05078 17.5 2.05078C26.0186 2.05078 32.9492 8.9812 32.9492 17.5C32.9492 26.0188 26.0186 32.9492 17.5 32.9492Z" fill="#437FC8" fill-opacity="1.000000" fill-rule="nonzero"/>
		<path id="Vector" d="M18.2251 6.88989C18.0337 6.69922 17.77 6.58984 17.5 6.58984C17.23 6.58984 16.9653 6.69922 16.7749 6.88989C16.584 7.08069 16.4746 7.34521 16.4746 7.61523C16.4746 7.88525 16.584 8.14978 16.7749 8.34058C16.9653 8.53125 17.23 8.64062 17.5 8.64062C17.77 8.64062 18.0337 8.53125 18.2251 8.34058C18.416 8.14917 18.5254 7.88525 18.5254 7.61523C18.5254 7.34521 18.416 7.08069 18.2251 6.88989Z" fill="#437FC8" fill-opacity="1.000000" fill-rule="nonzero"/>
		<path id="Vector" d="M17.5 13.1797C16.9336 13.1797 16.4746 13.6388 16.4746 14.2051L16.4746 27.3848C16.4746 27.951 16.9336 28.4102 17.5 28.4102C18.0664 28.4102 18.5254 27.951 18.5254 27.3848L18.5254 14.2051C18.5254 13.6388 18.0664 13.1797 17.5 13.1797Z" fill="#437FC8" fill-opacity="1.000000" fill-rule="nonzero"/>
	</g>
</svg>
