<svg width="11.304199" height="11.583496" viewBox="0 0 11.3042 11.5835" fill="none" xmlns="http://www.w3.org/2000/svg" xmlns:xlink="http://www.w3.org/1999/xlink">
	<desc>
			Created with Pixso.
	</desc>
	<defs/>
	<path id="Vector" d="M6.27686 5.79175L11.1748 0.772461C11.3477 0.595703 11.3477 0.309326 11.1748 0.132568C11.0024 -0.0441895 10.7231 -0.0441895 10.5503 0.132568L5.65234 5.15186L0.753906 0.132568C0.581543 -0.0441895 0.301758 -0.0441895 0.129395 0.132568C-0.0429688 0.309326 -0.0429688 0.595703 0.129395 0.772461L5.02783 5.79175L0.129395 10.811C-0.0429688 10.9878 -0.0429688 11.2744 0.129395 11.4512C0.215332 11.5393 0.328613 11.5835 0.441406 11.5835C0.554688 11.5835 0.66748 11.5393 0.753906 11.4512L5.65234 6.43164L10.5503 11.4512C10.6367 11.5393 10.7495 11.5835 10.8628 11.5835C10.9756 11.5835 11.0889 11.5393 11.1748 11.4512C11.3477 11.2744 11.3477 10.9878 11.1748 10.811L6.27686 5.79175Z" fill="#6E6E6E" fill-opacity="1.000000" fill-rule="nonzero"/>
</svg>
