<svg width="17.000000" height="16.172028" viewBox="0 0 17 16.172" fill="none" xmlns="http://www.w3.org/2000/svg" xmlns:xlink="http://www.w3.org/1999/xlink">
	<desc>
			Created with Pixso.
	</desc>
	<defs/>
	<path id="Vector" d="M15.5591 1.36703C13.6958 -0.456024 10.7173 -0.455627 8.85449 1.36792L1.04199 9.18045C-0.370605 10.6264 -0.34375 12.9437 1.10254 14.3564C2.52441 15.7458 4.7959 15.7458 6.21777 14.3564L13.2925 7.28204C14.2119 6.36237 14.2119 4.87125 13.2925 3.9516C12.3726 3.03192 10.8813 3.03192 9.96191 3.9516L3.19531 10.7183C2.95898 10.9627 2.96582 11.3521 3.21045 11.5881C3.44873 11.8184 3.82666 11.8184 4.06494 11.5881L10.8315 4.82141C11.2803 4.39154 11.9927 4.40686 12.4224 4.85559C12.8394 5.29074 12.8394 5.97708 12.4224 6.41223L5.34814 13.4865C4.39258 14.4286 2.854 14.4176 1.91211 13.4619C0.979492 12.5159 0.979492 10.9963 1.91211 10.0503L9.72461 2.23776C11.1162 0.845642 13.3726 0.845245 14.7646 2.23682C16.1567 3.62839 16.1572 5.88501 14.7656 7.2771L6.95312 15.0896C6.69531 15.3106 6.66504 15.6989 6.88623 15.957C7.10693 16.215 7.49512 16.2451 7.75342 16.0241C7.77734 16.0035 7.7998 15.9811 7.82031 15.957L15.6328 8.14447C17.4844 6.25256 17.4512 3.21817 15.5591 1.36703Z" fill="#C2C2C2" fill-opacity="1.000000" fill-rule="nonzero"/>
</svg>
