<svg width="20.000000" height="18.000000" viewBox="0 0 20 18" fill="none" xmlns="http://www.w3.org/2000/svg" xmlns:xlink="http://www.w3.org/1999/xlink">
	<desc>
			Created with Pixso.
	</desc>
	<defs>
		<clipPath id="clip41_838">
			<rect id="garbage-can 1" width="20.000000" height="18.000000" transform="translate(-0.121094 -0.558594)" fill="white" fill-opacity="0"/>
		</clipPath>
	</defs>
	<rect id="garbage-can 1" width="20.000000" height="18.000000" transform="translate(-0.121094 -0.558594)" fill="#FFFFFF" fill-opacity="0"/>
	<g clip-path="url(#clip41_838)">
		<path id="Vector" d="M4.18 1.78L4.18 16.78C4.18 17.14 4.51 17.44 4.91 17.44L14.83 17.44C15.24 17.44 15.57 17.14 15.57 16.78L15.55 1.78L4.18 1.78ZM6.66 16.33L5.57 16.33L5.57 2.66L6.66 2.66L6.66 16.33ZM10.42 16.33L9.33 16.33L9.33 2.66L10.42 2.66L10.42 16.33ZM14.33 16.33L13.23 16.33L13.23 2.66L14.33 2.66L14.33 16.33ZM16.23 0.09L16.23 1.12L3.51 1.12L3.51 0.09L7.4 0.09L7.4 -0.56L12.35 -0.56L12.35 0.09L16.23 0.09Z" fill="#FFFFFF" fill-opacity="1.000000" fill-rule="nonzero"/>
	</g>
</svg>
