<svg width="20.000000" height="20.000000" viewBox="0 0 20 20" fill="none" xmlns="http://www.w3.org/2000/svg" xmlns:xlink="http://www.w3.org/1999/xlink">
	<desc>
			Created with Pixso.
	</desc>
	<defs>
		<clipPath id="clip34_250">
			<rect id="pencil 1" width="20.000000" height="20.000000" fill="white" fill-opacity="0"/>
		</clipPath>
	</defs>
	<rect id="pencil 1" width="20.000000" height="20.000000" fill="#FFFFFF" fill-opacity="0"/>
	<g clip-path="url(#clip34_250)">
		<path id="Vector" d="M19.4678 3.24658L16.7402 0.51709C16.0527 -0.170654 14.8574 -0.171875 14.168 0.518311L1.9502 12.8567C1.89551 12.9111 1.85645 12.9783 1.83594 13.052L0.0175781 19.4211C-0.0283203 19.5796 0.0166016 19.7507 0.133789 19.8677C0.219727 19.9543 0.335938 20.001 0.455078 20.001C0.496094 20.001 0.539062 19.9951 0.579102 19.9836L6.94336 18.1638C7.0166 18.1426 7.08398 18.1035 7.13867 18.0493L19.4678 5.81982C19.8105 5.47607 20 5.01929 20 4.5332C20 4.04736 19.8105 3.59058 19.4678 3.24658ZM12.1865 3.82495L13.8604 5.49805L5.125 14.2336L4.49805 12.9795C4.41992 12.8254 4.26367 12.728 4.09082 12.728L3.36328 12.728L12.1865 3.82495ZM1.11621 18.8845L1.70898 16.8118L3.18945 18.2922L1.11621 18.8845ZM6.36328 17.3855L4.18848 18.0068L1.99414 15.812L2.61523 13.6372L3.80957 13.6372L4.59375 15.2041C4.6377 15.292 4.70898 15.3635 4.79688 15.4075L6.36328 16.1909L6.36328 17.3855L6.36328 17.3855ZM7.27246 16.6379L7.27246 15.9099C7.27246 15.7378 7.17578 15.5806 7.02148 15.5034L5.76758 14.8765L14.5029 6.14087L16.1758 7.81396L7.27246 16.6379ZM18.8262 5.18774L16.8213 7.17407L12.8271 3.1792L14.8115 1.17627C15.1553 0.832764 15.7539 0.832764 16.0977 1.17627L18.8242 3.90356C18.9961 4.07544 19.0908 4.30347 19.0908 4.54639C19.0908 4.78931 18.9961 5.01733 18.8262 5.18774Z" fill="#437FC8" fill-opacity="1.000000" fill-rule="nonzero"/>
	</g>
</svg>
