<svg width="15.892578" height="16.000000" viewBox="0 0 15.8926 16" fill="none" xmlns="http://www.w3.org/2000/svg" xmlns:xlink="http://www.w3.org/1999/xlink">
	<desc>
			Created with Pixso.
	</desc>
	<defs/>
	<path id="Vector" d="M15.4688 2.59644L13.3027 0.412842C12.7559 -0.137207 11.8066 -0.138428 11.2578 0.414062L1.54883 10.2844C1.50586 10.3281 1.47461 10.3818 1.45898 10.4409L0.0136719 15.5361C-0.0214844 15.6631 0.0136719 15.7998 0.105469 15.8933C0.173828 15.9626 0.267578 16 0.361328 16C0.394531 16 0.427734 15.9954 0.460938 15.9861L5.51758 14.5303C5.57617 14.5132 5.62891 14.4819 5.67188 14.4385L15.4688 4.65503C15.7422 4.38013 15.8926 4.01465 15.8926 3.62598C15.8926 3.23706 15.7422 2.87158 15.4688 2.59644ZM9.68359 3.05908L11.0137 4.39771L4.07227 11.3862L3.57422 10.3828C3.51172 10.2595 3.38867 10.1816 3.25 10.1816L2.67188 10.1816L9.68359 3.05908ZM0.886719 15.1067L1.35742 13.4487L2.5332 14.6331L0.886719 15.1067ZM5.05664 13.9075L3.32812 14.4045L1.58398 12.6489L2.07812 10.9089L3.02734 10.9089L3.65039 12.1626C3.68555 12.2329 3.74219 12.29 3.8125 12.3252L5.05664 12.9519L5.05664 13.9075L5.05664 13.9075ZM5.7793 13.3096L5.7793 12.7273C5.7793 12.5894 5.70117 12.4636 5.58008 12.4019L4.58203 11.9004L11.5254 4.91187L12.8535 6.25049L5.7793 13.3096ZM14.959 4.14941L13.3672 5.73853L10.1934 2.54272L11.7695 0.94043C12.043 0.665527 12.5176 0.665527 12.791 0.94043L14.959 3.12207C15.0957 3.25952 15.1699 3.44214 15.1699 3.63623C15.1699 3.83057 15.0957 4.01318 14.959 4.14941Z" fill="#437FC8" fill-opacity="1.000000" fill-rule="nonzero"/>
</svg>
