<svg width="14.000000" height="14.000000" viewBox="0 0 14 14" fill="none" xmlns="http://www.w3.org/2000/svg" xmlns:xlink="http://www.w3.org/1999/xlink">
	<desc>
			Created with Pixso.
	</desc>
	<defs>
		<clipPath id="clip39_630">
			<rect id="star (3) 20" width="14.000000" height="14.000000" fill="white" fill-opacity="0"/>
		</clipPath>
	</defs>
	<rect id="star (3) 20" width="14.000000" height="14.000000" fill="#FFFFFF" fill-opacity="0"/>
	<g clip-path="url(#clip39_630)">
		<path id="Vector" d="M13.9629 5.36987C13.8711 5.08643 13.6191 4.8855 13.3242 4.85889L9.28125 4.49194L7.68555 0.752686C7.56641 0.477783 7.29883 0.300537 7 0.300537C6.70117 0.300537 6.43359 0.477783 6.31641 0.752686L4.71875 4.49194L0.675781 4.85889C0.380859 4.88623 0.128906 5.08691 0.0371094 5.36987C-0.0546875 5.65332 0.0292969 5.96411 0.253906 6.16064L3.30859 8.8396L2.4082 12.8069C2.3418 13.0984 2.45508 13.4001 2.69727 13.5752C2.82812 13.6697 2.98047 13.7168 3.13281 13.7168C3.26562 13.7168 3.39648 13.6819 3.51562 13.6113L7 11.5276L10.4844 13.6113C10.7402 13.7639 11.0605 13.75 11.3027 13.5752C11.5449 13.4001 11.6582 13.0984 11.5918 12.8069L10.6914 8.8396L13.7461 6.16064C13.9707 5.96411 14.0547 5.65381 13.9629 5.36987Z" fill="#E5E5E5" fill-opacity="1.000000" fill-rule="nonzero"/>
	</g>
</svg>
