<svg width="48.000000" height="49.000000" viewBox="0 0 48 49" fill="none" xmlns="http://www.w3.org/2000/svg" xmlns:xlink="http://www.w3.org/1999/xlink">
	<desc>
			Created with Pixso.
	</desc>
	<defs>
		<clipPath id="clip34_228">
			<rect id="user (17) 1" width="48.000000" height="49.000000" fill="white" fill-opacity="0"/>
		</clipPath>
	</defs>
	<rect id="user (17) 1" width="48.000000" height="49.000000" fill="#FFFFFF" fill-opacity="0"/>
	<g clip-path="url(#clip34_228)">
		<path id="Vector" d="M40.9707 31.6758C38.3564 29.0073 35.2451 27.032 31.8506 25.8362C35.4863 23.2798 37.875 19.0017 37.875 14.1641C37.875 6.354 31.6504 0 24 0C16.3496 0 10.125 6.354 10.125 14.1641C10.125 19.0017 12.5137 23.2798 16.1494 25.8362C12.7549 27.032 9.64355 29.0073 7.0293 31.6758C2.49609 36.3035 0 42.4558 0 49L3.75 49C3.75 37.6016 12.834 28.3281 24 28.3281C35.166 28.3281 44.25 37.6016 44.25 49L48 49C48 42.4558 45.5039 36.3035 40.9707 31.6758ZM24 24.5C18.417 24.5 13.875 19.8633 13.875 14.1641C13.875 8.46484 18.417 3.82812 24 3.82812C29.583 3.82812 34.125 8.46484 34.125 14.1641C34.125 19.8633 29.583 24.5 24 24.5Z" fill="#437FC8" fill-opacity="1.000000" fill-rule="nonzero"/>
	</g>
</svg>
