<svg width="21" height="21" viewBox="0 0 21 21" fill="none" xmlns="http://www.w3.org/2000/svg">
<g clip-path="url(#clip0_1_315)">
<path d="M20.8354 12.7443C20.8354 10.9556 19.5834 9.39496 17.7194 8.55029C17.8294 8.94029 17.8928 9.34296 17.9041 9.75629C18.0901 9.86696 18.2701 9.98629 18.4381 10.1163C19.3781 10.8416 19.8968 11.7743 19.8968 12.7443C19.8968 13.7136 19.3801 14.647 18.4381 15.371C17.4068 16.1663 16.0201 16.605 14.5341 16.605C13.5321 16.605 12.5754 16.405 11.7421 16.0323C11.2248 16.1343 10.6868 16.199 10.1328 16.2216C11.2694 17.0756 12.8214 17.603 14.5341 17.603C15.6334 17.603 16.6668 17.387 17.5661 17.005L19.8601 18.1756L19.3968 15.835C20.2948 14.995 20.8354 13.9183 20.8354 12.7443Z" fill="#6E6E6E"/>
<path d="M17.2514 9.10352C17.2388 8.69085 17.1768 8.28752 17.0674 7.89818C16.2668 5.04885 12.9788 2.91418 9.04478 2.91418C4.51078 2.91485 0.835449 5.74952 0.835449 9.24618C0.835449 10.7762 1.53878 12.1782 2.71012 13.2735L2.10612 16.3215L5.09478 14.7968C6.26678 15.2942 7.61278 15.5782 9.04478 15.5782C9.19078 15.5782 9.33612 15.5742 9.48012 15.5688C10.0328 15.5468 10.5714 15.4815 11.0901 15.3788C14.6341 14.6782 17.2541 12.1982 17.2541 9.24618C17.2535 9.19885 17.2528 9.15152 17.2514 9.10352ZM14.1321 12.6702C12.8874 13.6288 11.2454 14.1902 9.47012 14.2675C9.32945 14.2748 9.18745 14.2782 9.04412 14.2782C8.76945 14.2782 8.49812 14.2662 8.22945 14.2428C6.60412 14.1068 5.11012 13.5608 3.95745 12.6715C2.73278 11.7268 2.05812 10.5108 2.05812 9.24752C2.05812 7.98418 2.73278 6.76818 3.95745 5.82352C5.30078 4.78752 7.10745 4.21685 9.04412 4.21685C10.9814 4.21685 12.7888 4.78752 14.1308 5.82352C14.7388 6.29218 15.2101 6.82752 15.5328 7.40218C15.7368 7.76685 15.8801 8.14752 15.9594 8.53685C16.0068 8.77085 16.0308 9.00818 16.0308 9.24685C16.0308 10.5095 15.3568 11.7255 14.1321 12.6702Z" fill="#6E6E6E"/>
<path d="M11.9568 10.1633C12.4528 10.1633 12.8548 9.76103 12.8548 9.26481C12.8548 8.7686 12.4528 8.36633 11.9568 8.36633C11.4609 8.36633 11.0588 8.7686 11.0588 9.26481C11.0588 9.76103 11.4609 10.1633 11.9568 10.1633Z" fill="#6E6E6E"/>
<path d="M9.04477 10.1633C9.54073 10.1633 9.94277 9.76103 9.94277 9.26481C9.94277 8.7686 9.54073 8.36633 9.04477 8.36633C8.54882 8.36633 8.14677 8.7686 8.14677 9.26481C8.14677 9.76103 8.54882 10.1633 9.04477 10.1633Z" fill="#6E6E6E"/>
<path d="M6.13278 10.1639C6.6291 10.1639 7.03145 9.76134 7.03145 9.26475C7.03145 8.76816 6.6291 8.3656 6.13278 8.3656C5.63646 8.3656 5.23412 8.76816 5.23412 9.26475C5.23412 9.76134 5.63646 10.1639 6.13278 10.1639Z" fill="#6E6E6E"/>
</g>
<defs>
<clipPath id="clip0_1_315">
<rect width="20" height="20" fill="white" transform="translate(0.835449 0.544189)"/>
</clipPath>
</defs>
</svg>
