<svg width="21" height="26" viewBox="0 0 21 26" fill="none" xmlns="http://www.w3.org/2000/svg">
<g clip-path="url(#clip0_57_1030)">
<path d="M14.9067 2.83864C13.2384 2.82764 11.6523 3.73177 10.5776 5.30647C9.50966 3.721 7.9192 2.81431 6.24849 2.83864C3.11655 2.83864 0.577637 5.97148 0.577637 9.83606C0.577637 16.4587 9.94471 22.925 10.3245 23.175C10.4777 23.3013 10.6775 23.3013 10.8308 23.175C11.2106 22.925 20.5776 16.5524 20.5776 9.83606C20.5776 5.97148 18.0387 2.83864 14.9067 2.83864ZM10.5776 21.9254C9.10926 20.8633 1.5903 15.2092 1.5903 9.83606C1.5903 6.66161 3.67585 4.08813 6.24854 4.08813C7.82398 4.0626 9.29834 5.04314 10.1473 6.68092C10.3196 6.9742 10.6521 7.03956 10.8898 6.82681C10.9352 6.78616 10.9751 6.73695 11.008 6.68092C12.4159 4.02403 15.3028 3.27854 17.456 5.01581C18.7742 6.07935 19.5675 7.89268 19.5649 9.836C19.565 15.2716 12.046 20.8945 10.5776 21.9254Z" fill="#999999"/>
</g>
<defs>
<clipPath id="clip0_57_1030">
<rect width="20" height="24.6785" fill="white" transform="translate(0.577637 0.714714)"/>
</clipPath>
</defs>
</svg>
