<svg width="19" height="18" viewBox="0 0 19 18" fill="none" xmlns="http://www.w3.org/2000/svg">
<g clip-path="url(#clip0_196_157)">
<path d="M13.8444 1.54258C12.3429 1.53456 10.9154 2.19401 9.94822 3.34256C8.98707 2.18616 7.55565 1.52483 6.05201 1.54258C3.23327 1.54258 0.948242 3.82761 0.948242 6.64635C0.948242 11.4768 9.37861 16.1932 9.72039 16.3755C9.85829 16.4676 10.0381 16.4676 10.1761 16.3755C10.5179 16.1932 18.9482 11.5451 18.9482 6.64635C18.9482 3.82761 16.6632 1.54258 13.8444 1.54258ZM9.94822 15.4641C8.6267 14.6894 1.85964 10.5654 1.85964 6.64635C1.85964 4.33097 3.73663 2.45393 6.05205 2.45393C7.46995 2.43531 8.79688 3.1505 9.56091 4.34506C9.71603 4.55898 10.0153 4.60664 10.2292 4.45147C10.27 4.42182 10.306 4.38592 10.3356 4.34506C11.6027 2.40718 14.2009 1.86343 16.1388 3.13057C17.3251 3.90629 18.0392 5.22889 18.0368 6.64631C18.0368 10.6109 11.2697 14.7122 9.94822 15.4641Z" fill="#999999"/>
</g>
<defs>
<clipPath id="clip0_196_157">
<rect width="18" height="18" fill="white" transform="translate(0.948242 -0.0065918)"/>
</clipPath>
</defs>
</svg>
