<svg width="19" height="20" viewBox="0 0 19 20" fill="none" xmlns="http://www.w3.org/2000/svg">
<g clip-path="url(#clip0_57_662)">
<path d="M8.3672 0.452759C3.75365 0.452759 0 4.20641 0 8.81996C0 13.4338 3.75365 17.1872 8.3672 17.1872C12.981 17.1872 16.7344 13.4338 16.7344 8.81996C16.7344 4.20641 12.981 0.452759 8.3672 0.452759ZM8.3672 15.6425C4.60531 15.6425 1.54471 12.5819 1.54471 8.82C1.54471 5.05811 4.60531 1.99747 8.3672 1.99747C12.1291 1.99747 15.1897 5.05807 15.1897 8.81996C15.1897 12.5818 12.1291 15.6425 8.3672 15.6425Z" fill="#1A467C"/>
<path d="M18.7737 18.1344L14.3455 13.7062C14.0438 13.4044 13.5551 13.4044 13.2534 13.7062C12.9517 14.0076 12.9517 14.4968 13.2534 14.7983L17.6816 19.2265C17.8325 19.3773 18.03 19.4528 18.2277 19.4528C18.4251 19.4528 18.6229 19.3773 18.7737 19.2265C19.0755 18.925 19.0755 18.4358 18.7737 18.1344Z" fill="#1A467C"/>
</g>
<defs>
<clipPath id="clip0_57_662">
<rect width="19" height="19" fill="white" transform="translate(0 0.452759)"/>
</clipPath>
</defs>
</svg>
