<svg width="23" height="24" viewBox="0 0 23 24" fill="none" xmlns="http://www.w3.org/2000/svg">
<g clip-path="url(#clip0_88_1708)">
<path d="M22.94 9.7828C22.7895 9.31707 22.3764 8.98629 21.8877 8.94225L15.2493 8.33947L12.6242 2.19537C12.4307 1.74509 11.9899 1.45361 11.5001 1.45361C11.0104 1.45361 10.5695 1.74509 10.376 2.19642L7.75097 8.33947L1.11149 8.94225C0.623655 8.98734 0.211627 9.31707 0.0601869 9.7828C-0.0912528 10.2485 0.0486052 10.7593 0.417641 11.0814L5.43551 15.4821L3.95586 21.9999C3.84758 22.4792 4.03359 22.9745 4.43123 23.262C4.64497 23.4164 4.89503 23.495 5.14719 23.495C5.36461 23.495 5.58028 23.4364 5.77384 23.3206L11.5001 19.8982L17.2243 23.3206C17.6432 23.5726 18.1712 23.5496 18.5679 23.262C18.9658 22.9737 19.1516 22.4781 19.0433 21.9999L17.5637 15.4821L22.5815 11.0822C22.9506 10.7593 23.0915 10.2494 22.94 9.7828Z" fill="#FFA800"/>
</g>
<defs>
<clipPath id="clip0_88_1708">
<rect width="23" height="23" fill="white" transform="translate(0 0.959961)"/>
</clipPath>
</defs>
</svg>
