<svg width="15" height="15" viewBox="0 0 15 15" fill="none" xmlns="http://www.w3.org/2000/svg">
<g clip-path="url(#clip0_1_310)">
<path d="M14.4086 5.0761C14.2486 4.89652 14.03 4.77972 13.7917 4.74656V4.74606L10.071 4.23208L8.59859 0.713826C8.3836 0.198851 7.79184 -0.0443259 7.2769 0.170669C7.0314 0.273172 6.83621 0.468335 6.73374 0.713826L5.26135 4.23208L1.5406 4.74606C0.986257 4.82323 0.599417 5.33521 0.67658 5.88956C0.709742 6.12779 0.826541 6.34644 1.00612 6.50645L3.80943 9.00627L3.23344 12.929C3.17104 13.3273 3.35399 13.7242 3.69741 13.9354C4.036 14.1519 4.47153 14.1438 4.80183 13.9149L7.66614 11.967L10.5304 13.9169C10.9926 14.2306 11.6216 14.1102 11.9353 13.648C12.0779 13.438 12.1363 13.182 12.0989 12.931L11.5229 9.00674L14.3262 6.50692C14.7441 6.13458 14.781 5.49396 14.4086 5.0761ZM10.6559 8.44179C10.5305 8.55384 10.4699 8.72141 10.4944 8.88778L11.0944 13.0875L7.94863 10.9486C7.77904 10.8334 7.55625 10.8334 7.38666 10.9486L4.22238 13.0745L4.83783 8.88578C4.86174 8.72009 4.8011 8.55343 4.67633 8.44182L1.67653 5.73799L5.68027 5.18552C5.85557 5.16135 6.005 5.04631 6.07323 4.88305L7.67211 1.09232C7.67393 1.09454 7.67528 1.09709 7.67613 1.09982L9.25852 4.88105C9.32675 5.04431 9.47621 5.15936 9.65148 5.18352L13.6602 5.76049L10.6559 8.44179Z" fill="#FFA800"/>
</g>
<defs>
<clipPath id="clip0_1_310">
<rect width="14" height="14" fill="white" transform="translate(0.66568 0.0924072)"/>
</clipPath>
</defs>
</svg>
