<svg width="15" height="15" viewBox="0 0 15 15" fill="none" xmlns="http://www.w3.org/2000/svg">
<g clip-path="url(#clip0_1_111)">
<path d="M14.7792 5.60636C14.687 5.32288 14.4356 5.12218 14.1393 5.09537L10.0979 4.72846L8.5007 0.989143C8.38278 0.714419 8.11446 0.537109 7.81581 0.537109C7.51716 0.537109 7.24874 0.714419 7.13157 0.989143L5.53439 4.72846L1.49236 5.09537C1.19606 5.12271 0.945155 5.32341 0.852441 5.60636C0.760261 5.88984 0.845392 6.20078 1.06949 6.39731L4.12445 9.07609L3.2237 13.0433C3.15779 13.3351 3.27102 13.6367 3.51305 13.8117C3.64315 13.9062 3.796 13.9534 3.94939 13.9534C4.08119 13.9534 4.21311 13.9184 4.33092 13.8479L7.81581 11.7641L11.3001 13.8479C11.5557 14.0006 11.8771 13.9866 12.1186 13.8117C12.3606 13.6367 12.4738 13.3351 12.4079 13.0433L11.5072 9.07609L14.5621 6.39731C14.7861 6.20078 14.8714 5.89049 14.7792 5.60636Z" fill="#FFA800"/>
</g>
<defs>
<clipPath id="clip0_1_111">
<rect width="14" height="14" fill="white" transform="translate(0.815857 0.236572)"/>
</clipPath>
</defs>
</svg>
