<svg width="30.555664" height="30.000000" viewBox="0 0 30.5557 30" fill="none" xmlns="http://www.w3.org/2000/svg" xmlns:xlink="http://www.w3.org/1999/xlink">
	<desc>
			Created with Pixso.
	</desc>
	<defs>
		<clipPath id="clip29_252">
			<rect id="tech 1" width="30.555555" height="30.000000" fill="white" fill-opacity="0"/>
		</clipPath>
	</defs>
	<rect id="tech 1" width="30.555555" height="30.000000" fill="#FFFFFF" fill-opacity="0"/>
	<g clip-path="url(#clip29_252)">
		<path id="Vector" d="M15.2773 15C15.2021 15 15.1289 14.9875 15.0566 14.9613L2.96191 10.5863C2.71094 10.4963 2.5459 10.2614 2.5459 10C2.5459 9.73877 2.71289 9.50378 2.96387 9.41382L11.2393 6.42627C11.5674 6.30884 11.9355 6.47375 12.0566 6.79761C12.1777 7.12134 12.0078 7.4801 11.6777 7.6001L5.02637 10L15.2773 13.7089L25.5283 10L18.877 7.59875C18.5469 7.4801 18.3779 7.12012 18.498 6.79626C18.6191 6.47253 18.9863 6.30762 19.3154 6.42505L27.5908 9.4126C27.8418 9.50378 28.0088 9.73877 28.0088 10C28.0088 10.2614 27.8438 10.4963 27.5928 10.5863L15.498 14.9613C15.4268 14.9875 15.3525 15 15.2773 15Z" fill="#437FC8" fill-opacity="1.000000" fill-rule="nonzero"/>
		<path id="Vector" d="M15.2773 30C15.2021 30 15.1289 29.9875 15.0586 29.9613L8.29785 27.5238C7.96875 27.405 7.79883 27.0463 7.91992 26.7213C8.04102 26.3975 8.40723 26.2312 8.7373 26.35L15.2773 28.7087L21.8193 26.35C22.1484 26.23 22.5137 26.3975 22.6367 26.7213C22.7568 27.045 22.5879 27.4038 22.2578 27.5238L15.498 29.9613C15.4268 29.9875 15.3525 30 15.2773 30Z" fill="#437FC8" fill-opacity="1.000000" fill-rule="nonzero"/>
		<path id="Vector" d="M3.18262 22.2C2.83105 22.2 2.5459 21.92 2.5459 21.575L2.5459 10C2.5459 9.65503 2.83105 9.375 3.18262 9.375C3.53418 9.375 3.81934 9.65503 3.81934 10L3.81934 21.575C3.81934 21.92 3.53418 22.2 3.18262 22.2Z" fill="#437FC8" fill-opacity="1.000000" fill-rule="nonzero"/>
		<path id="Vector" d="M27.373 22.2C27.0215 22.2 26.7363 21.92 26.7363 21.575L26.7363 10C26.7363 9.65503 27.0215 9.375 27.373 9.375C27.7246 9.375 28.0098 9.65503 28.0098 10L28.0098 21.575C28.0098 21.92 27.7246 22.2 27.373 22.2Z" fill="#437FC8" fill-opacity="1.000000" fill-rule="nonzero"/>
		<path id="Vector" d="M15.2783 10C14.9268 10 14.6416 9.71997 14.6416 9.375L14.6416 4.375C14.6416 4.03003 14.9268 3.75 15.2783 3.75C15.6299 3.75 15.915 4.03003 15.915 4.375L15.915 9.375C15.915 9.71997 15.6299 10 15.2783 10Z" fill="#437FC8" fill-opacity="1.000000" fill-rule="nonzero"/>
		<path id="Vector" d="M26.6592 26.8C26.4961 26.8 26.333 26.7388 26.209 26.6176L23.1025 23.5675C22.8535 23.3237 22.8535 22.9275 23.1025 22.6838C23.3506 22.4401 23.7539 22.4401 24.002 22.6838L27.1084 25.7338C27.3574 25.9775 27.3574 26.3738 27.1084 26.6176C26.9854 26.7388 26.8223 26.8 26.6592 26.8Z" fill="#437FC8" fill-opacity="1.000000" fill-rule="nonzero"/>
		<path id="Vector" d="M3.89551 26.8C3.73242 26.8 3.56934 26.7388 3.44531 26.6176C3.19629 26.3738 3.19629 25.9775 3.44531 25.7338L6.55176 22.6838C6.7998 22.4401 7.20312 22.4401 7.45117 22.6838C7.7002 22.9275 7.7002 23.3237 7.45117 23.5675L4.34473 26.6176C4.22168 26.7388 4.05859 26.8 3.89551 26.8Z" fill="#437FC8" fill-opacity="1.000000" fill-rule="nonzero"/>
		<path id="Vector" d="M15.2783 30C14.9268 30 14.6416 29.72 14.6416 29.375L14.6416 14.375C14.6416 14.03 14.9268 13.75 15.2783 13.75C15.6299 13.75 15.915 14.03 15.915 14.375L15.915 29.375C15.915 29.72 15.6299 30 15.2783 30Z" fill="#437FC8" fill-opacity="1.000000" fill-rule="nonzero"/>
		<path id="Vector" d="M15.2773 5C13.873 5 12.7314 3.87878 12.7314 2.5C12.7314 1.12122 13.873 0 15.2773 0C16.6816 0 17.8242 1.12122 17.8242 2.5C17.8242 3.87878 16.6816 5 15.2773 5ZM15.2773 1.25C14.5762 1.25 14.0049 1.81128 14.0049 2.5C14.0049 3.18872 14.5762 3.75 15.2773 3.75C15.9795 3.75 16.5508 3.18872 16.5508 2.5C16.5508 1.81128 15.9795 1.25 15.2773 1.25Z" fill="#437FC8" fill-opacity="1.000000" fill-rule="nonzero"/>
		<path id="Vector" d="M28.0088 30C26.6045 30 25.4629 28.8788 25.4629 27.5C25.4629 26.1212 26.6045 25 28.0088 25C29.4131 25 30.5557 26.1212 30.5557 27.5C30.5557 28.8788 29.4131 30 28.0088 30ZM28.0088 26.25C27.3076 26.25 26.7363 26.8113 26.7363 27.5C26.7363 28.1887 27.3076 28.75 28.0088 28.75C28.7109 28.75 29.2822 28.1887 29.2822 27.5C29.2822 26.8113 28.7109 26.25 28.0088 26.25Z" fill="#437FC8" fill-opacity="1.000000" fill-rule="nonzero"/>
		<path id="Vector" d="M2.5459 30C1.1416 30 0 28.8788 0 27.5C0 26.1212 1.1416 25 2.5459 25C3.9502 25 5.09277 26.1212 5.09277 27.5C5.09277 28.8788 3.9502 30 2.5459 30ZM2.5459 26.25C1.84473 26.25 1.27344 26.8113 1.27344 27.5C1.27344 28.1887 1.84473 28.75 2.5459 28.75C3.24805 28.75 3.81934 28.1887 3.81934 27.5C3.81934 26.8113 3.24805 26.25 2.5459 26.25Z" fill="#437FC8" fill-opacity="1.000000" fill-rule="nonzero"/>
	</g>
</svg>
