<svg width="27.481445" height="28.000000" viewBox="0 0 27.4814 28" fill="none" xmlns="http://www.w3.org/2000/svg" xmlns:xlink="http://www.w3.org/1999/xlink">
	<desc>
			Created with Pixso.
	</desc>
	<defs>
		<clipPath id="clip29_107">
			<rect id="calendar (4) 1" width="27.481482" height="28.000000" fill="white" fill-opacity="0"/>
		</clipPath>
	</defs>
	<rect id="calendar (4) 1" width="27.481482" height="28.000000" fill="#FFFFFF" fill-opacity="0"/>
	<g clip-path="url(#clip29_107)">
		<path id="Vector" d="M26.0352 2.38501L21.334 2.38501L21.334 0.737549C21.334 0.430176 21.0908 0.181152 20.792 0.181152C20.4922 0.181152 20.249 0.430176 20.249 0.737549L20.249 2.3855L7.22754 2.3855L7.22754 0.737549C7.22754 0.430176 6.98438 0.181152 6.68555 0.181152C6.38574 0.181152 6.14258 0.430176 6.14258 0.737549L6.14258 2.3855L1.44629 2.3855C0.650391 2.3855 0 3.05322 0 3.8689L0 26.3352C0 27.1514 0.650391 27.8188 1.44629 27.8188L26.0352 27.8188C26.8301 27.8188 27.4814 27.1509 27.4814 26.3352L27.4814 3.8689C27.4814 3.05298 26.8301 2.38501 26.0352 2.38501ZM26.3965 26.3352C26.3965 26.5361 26.2305 26.7063 26.0352 26.7063L1.44629 26.7063C1.25 26.7063 1.08496 26.5361 1.08496 26.3352L1.08496 9.03174L26.3965 9.03174L26.3965 26.3352ZM26.3965 7.91895L1.08496 7.91895L1.08496 3.8689C1.08496 3.66772 1.25 3.49805 1.44629 3.49805L6.14258 3.49805L6.14258 5.56055C6.14258 5.86768 6.38574 6.1167 6.68555 6.1167C6.98438 6.1167 7.22754 5.86768 7.22754 5.56055L7.22754 3.49805L20.249 3.49805L20.249 5.56055C20.249 5.86768 20.4922 6.1167 20.792 6.1167C21.0908 6.1167 21.334 5.86768 21.334 5.56055L21.334 3.49805L26.0352 3.49805C26.2305 3.49805 26.3965 3.66797 26.3965 3.8689L26.3965 7.91895L26.3965 7.91895Z" fill="#437FC8" fill-opacity="1.000000" fill-rule="nonzero"/>
		<path id="Vector" d="M12.4824 12.7058L9.95117 12.7058C9.65234 12.7058 9.40918 12.9553 9.40918 13.2625C9.40918 13.5698 9.65234 13.8191 9.95117 13.8191L12.4824 13.8191C12.7812 13.8191 13.0244 13.5698 13.0244 13.2625C13.0244 12.9553 12.7812 12.7058 12.4824 12.7058Z" fill="#437FC8" fill-opacity="1.000000" fill-rule="nonzero"/>
		<path id="Vector" d="M17.5439 12.7058L15.0127 12.7058C14.7139 12.7058 14.4707 12.9553 14.4707 13.2625C14.4707 13.5698 14.7139 13.8191 15.0127 13.8191L17.5439 13.8191C17.8438 13.8191 18.0869 13.5698 18.0869 13.2625C18.0869 12.9553 17.8438 12.7058 17.5439 12.7058Z" fill="#437FC8" fill-opacity="1.000000" fill-rule="nonzero"/>
		<path id="Vector" d="M22.6064 12.7058L20.0752 12.7058C19.7764 12.7058 19.5332 12.9553 19.5332 13.2625C19.5332 13.5698 19.7764 13.8191 20.0752 13.8191L22.6064 13.8191C22.9062 13.8191 23.1494 13.5698 23.1494 13.2625C23.1494 12.9553 22.9062 12.7058 22.6064 12.7058Z" fill="#437FC8" fill-opacity="1.000000" fill-rule="nonzero"/>
		<path id="Vector" d="M12.4824 16.0217L9.95117 16.0217C9.65234 16.0217 9.40918 16.2712 9.40918 16.5784C9.40918 16.8857 9.65234 17.135 9.95117 17.135L12.4824 17.135C12.7812 17.135 13.0244 16.8857 13.0244 16.5784C13.0244 16.2712 12.7812 16.0217 12.4824 16.0217Z" fill="#437FC8" fill-opacity="1.000000" fill-rule="nonzero"/>
		<path id="Vector" d="M17.5439 16.0217L15.0127 16.0217C14.7139 16.0217 14.4707 16.2712 14.4707 16.5784C14.4707 16.8857 14.7139 17.135 15.0127 17.135L17.5439 17.135C17.8438 17.135 18.0869 16.8857 18.0869 16.5784C18.0869 16.2712 17.8438 16.0217 17.5439 16.0217Z" fill="#437FC8" fill-opacity="1.000000" fill-rule="nonzero"/>
		<path id="Vector" d="M22.6064 16.0217L20.0752 16.0217C19.7764 16.0217 19.5332 16.2712 19.5332 16.5784C19.5332 16.8857 19.7764 17.135 20.0752 17.135L22.6064 17.135C22.9062 17.135 23.1494 16.8857 23.1494 16.5784C23.1494 16.2712 22.9062 16.0217 22.6064 16.0217Z" fill="#437FC8" fill-opacity="1.000000" fill-rule="nonzero"/>
		<path id="Vector" d="M7.05859 16.0217L4.52734 16.0217C4.22852 16.0217 3.98535 16.2712 3.98535 16.5784C3.98535 16.8857 4.22852 17.135 4.52734 17.135L7.05859 17.135C7.35742 17.135 7.60156 16.8857 7.60156 16.5784C7.60156 16.2712 7.3584 16.0217 7.05859 16.0217Z" fill="#437FC8" fill-opacity="1.000000" fill-rule="nonzero"/>
		<path id="Vector" d="M12.4824 19.3379L9.95117 19.3379C9.65234 19.3379 9.40918 19.5869 9.40918 19.8943C9.40918 20.2014 9.65234 20.4509 9.95117 20.4509L12.4824 20.4509C12.7812 20.4509 13.0244 20.2014 13.0244 19.8943C13.0244 19.5869 12.7812 19.3379 12.4824 19.3379Z" fill="#437FC8" fill-opacity="1.000000" fill-rule="nonzero"/>
		<path id="Vector" d="M17.5439 19.3379L15.0127 19.3379C14.7139 19.3379 14.4707 19.5869 14.4707 19.8943C14.4707 20.2014 14.7139 20.4509 15.0127 20.4509L17.5439 20.4509C17.8438 20.4509 18.0869 20.2014 18.0869 19.8943C18.0869 19.5869 17.8438 19.3379 17.5439 19.3379Z" fill="#437FC8" fill-opacity="1.000000" fill-rule="nonzero"/>
		<path id="Vector" d="M22.6064 19.3379L20.0752 19.3379C19.7764 19.3379 19.5332 19.5869 19.5332 19.8943C19.5332 20.2014 19.7764 20.4509 20.0752 20.4509L22.6064 20.4509C22.9062 20.4509 23.1494 20.2014 23.1494 19.8943C23.1494 19.5869 22.9062 19.3379 22.6064 19.3379Z" fill="#437FC8" fill-opacity="1.000000" fill-rule="nonzero"/>
		<path id="Vector" d="M7.05859 19.3379L4.52734 19.3379C4.22852 19.3379 3.98535 19.5869 3.98535 19.8943C3.98535 20.2014 4.22852 20.4509 4.52734 20.4509L7.05859 20.4509C7.35742 20.4509 7.60156 20.2014 7.60156 19.8943C7.60156 19.5869 7.3584 19.3379 7.05859 19.3379Z" fill="#437FC8" fill-opacity="1.000000" fill-rule="nonzero"/>
		<path id="Vector" d="M7.05859 22.6536L4.52734 22.6536C4.22852 22.6536 3.98535 22.9026 3.98535 23.21C3.98535 23.5171 4.22852 23.7666 4.52734 23.7666L7.05859 23.7666C7.35742 23.7666 7.60156 23.5171 7.60156 23.21C7.60156 22.9026 7.3584 22.6536 7.05859 22.6536Z" fill="#437FC8" fill-opacity="1.000000" fill-rule="nonzero"/>
		<path id="Vector" d="M12.1211 22.6536L9.58984 22.6536C9.29102 22.6536 9.04785 22.9026 9.04785 23.21C9.04785 23.5171 9.29102 23.7666 9.58984 23.7666L12.1211 23.7666C12.4199 23.7666 12.6631 23.5171 12.6631 23.21C12.6631 22.9026 12.4199 22.6536 12.1211 22.6536Z" fill="#437FC8" fill-opacity="1.000000" fill-rule="nonzero"/>
		<path id="Vector" d="M17.1826 22.6536L14.6514 22.6536C14.3525 22.6536 14.1094 22.9026 14.1094 23.21C14.1094 23.5171 14.3525 23.7666 14.6514 23.7666L17.1826 23.7666C17.4824 23.7666 17.7256 23.5171 17.7256 23.21C17.7256 22.9026 17.4824 22.6536 17.1826 22.6536Z" fill="#437FC8" fill-opacity="1.000000" fill-rule="nonzero"/>
	</g>
</svg>
