<svg width="27.000000" height="27.000000" viewBox="0 0 27 27" fill="none" xmlns="http://www.w3.org/2000/svg" xmlns:xlink="http://www.w3.org/1999/xlink">
	<desc>
			Created with Pixso.
	</desc>
	<defs>
		<clipPath id="clip29_176">
			<rect id="certificate 1" width="27.000000" height="27.000000" fill="white" fill-opacity="0"/>
		</clipPath>
	</defs>
	<rect id="certificate 1" width="27.000000" height="27.000000" fill="#FFFFFF" fill-opacity="0"/>
	<g clip-path="url(#clip29_176)">
		<path id="Vector" d="M13.6465 9.57153L3.52246 9.57153C3.30371 9.57153 3.12695 9.74866 3.12695 9.96704C3.12695 10.1854 3.30371 10.3624 3.52246 10.3624L13.6465 10.3624C13.8652 10.3624 14.042 10.1853 14.042 9.96704C14.042 9.74866 13.8652 9.57153 13.6465 9.57153Z" fill="#437FC8" fill-opacity="1.000000" fill-rule="nonzero"/>
		<path id="Vector" d="M13.6465 12.3505L3.52246 12.3505C3.30371 12.3505 3.12695 12.5276 3.12695 12.746C3.12695 12.9642 3.30371 13.1414 3.52246 13.1414L13.6465 13.1414C13.8652 13.1414 14.042 12.9642 14.042 12.746C14.042 12.5276 13.8652 12.3505 13.6465 12.3505Z" fill="#437FC8" fill-opacity="1.000000" fill-rule="nonzero"/>
		<path id="Vector" d="M13.6465 15.1294L3.52246 15.1294C3.30371 15.1294 3.12695 15.3065 3.12695 15.5249C3.12695 15.7432 3.30371 15.9203 3.52246 15.9203L13.6465 15.9203C13.8652 15.9203 14.042 15.7432 14.042 15.5249C14.042 15.3065 13.8652 15.1294 13.6465 15.1294Z" fill="#437FC8" fill-opacity="1.000000" fill-rule="nonzero"/>
		<path id="Vector" d="M14.042 18.3038C14.042 18.0853 13.8652 17.9083 13.6465 17.9083L3.52246 17.9083C3.30371 17.9083 3.12695 18.0854 3.12695 18.3038C3.12695 18.5221 3.30371 18.6992 3.52246 18.6992L13.6465 18.6992C13.8652 18.6992 14.042 18.5222 14.042 18.3038Z" fill="#437FC8" fill-opacity="1.000000" fill-rule="nonzero"/>
		<path id="Vector" d="M3.52246 21.9807C3.30371 21.9807 3.12695 22.1578 3.12695 22.3762C3.12695 22.5945 3.30371 22.7716 3.52246 22.7716L8.59766 22.7716C8.81543 22.7716 8.99316 22.5945 8.99316 22.3762C8.99316 22.1578 8.81543 21.9807 8.59766 21.9807L3.52246 21.9807Z" fill="#437FC8" fill-opacity="1.000000" fill-rule="nonzero"/>
		<path id="Vector" d="M18.2041 4.89661L18.2041 3.6134C18.2041 3.12451 17.8066 2.72681 17.3174 2.72681L9.19824 2.72681C8.70898 2.72681 8.31152 3.12451 8.31152 3.6134L8.31152 4.89661C8.31152 5.3855 8.70898 5.78308 9.19824 5.78308L9.88379 5.78308C10.1025 5.78308 10.2793 5.60608 10.2793 5.3877C10.2793 5.16931 10.1025 4.99219 9.88379 4.99219L9.19824 4.99219C9.14551 4.99219 9.10254 4.94934 9.10254 4.89673L9.10254 3.6134C9.10254 3.56067 9.14551 3.51782 9.19824 3.51782L17.3174 3.51782C17.3701 3.51782 17.4131 3.56067 17.4131 3.6134L17.4131 4.89661C17.4131 4.94934 17.3701 4.99219 17.3174 4.99219L11.7324 4.99219C11.5137 4.99219 11.3369 5.16931 11.3369 5.38757C11.3369 5.60608 11.5137 5.78308 11.7324 5.78308L17.3174 5.78308C17.8066 5.7832 18.2041 5.3855 18.2041 4.89661Z" fill="#437FC8" fill-opacity="1.000000" fill-rule="nonzero"/>
		<path id="Vector" d="M21.1611 24.1152C20.9424 24.1152 20.7656 24.2924 20.7656 24.5106L20.7656 25.0432C20.7656 25.686 20.2422 26.209 19.5996 26.209L2.10449 26.209C1.46094 26.209 0.938477 25.686 0.938477 25.0432L0.938477 6.0343C0.938477 5.94873 0.948242 5.86475 0.96582 5.78308L4.56738 5.78308C5.31934 5.78308 5.93066 5.17151 5.93066 4.41968L5.93066 0.818848C6.0127 0.801025 6.0957 0.791016 6.18164 0.791016L19.5996 0.791016C20.2422 0.791016 20.7656 1.31396 20.7656 1.95679L20.7656 7.22192C20.7656 7.44031 20.9424 7.61731 21.1611 7.61731C21.3789 7.61731 21.5557 7.44019 21.5557 7.22192L21.5557 1.95667C21.5566 0.877808 20.6787 0 19.5996 0L6.18164 0C5.65918 0 5.16797 0.203613 4.79785 0.57312L0.720703 4.65076C0.350586 5.02026 0.147461 5.5116 0.147461 6.0343L0.147461 25.0433C0.147461 26.1222 1.02539 27 2.10449 27L19.5996 27C20.6787 27 21.5566 26.1222 21.5566 25.0433L21.5566 24.5107C21.5566 24.2924 21.3789 24.1152 21.1611 24.1152ZM5.13965 1.35022L5.13965 4.41968C5.13965 4.73535 4.88281 4.99219 4.56738 4.99219L1.49805 4.99219L5.13965 1.35022Z" fill="#437FC8" fill-opacity="1.000000" fill-rule="nonzero"/>
		<path id="Vector" d="M26.5771 14.1328C26.8545 13.7252 26.9268 13.2227 26.7744 12.7538C26.6221 12.2848 26.2686 11.9204 25.8047 11.754C25.4961 11.6436 25.291 11.361 25.2812 11.0339C25.2666 10.5411 25.0293 10.0923 24.6299 9.80249C24.2314 9.5127 23.7305 9.42578 23.2578 9.56384C22.9434 9.6554 22.6113 9.54749 22.4111 9.28882C22.1094 8.8988 21.6543 8.67517 21.1611 8.67517C20.668 8.67517 20.2119 8.8988 19.9102 9.28882C19.71 9.54749 19.3779 9.6554 19.0635 9.56384C18.5908 9.42566 18.0898 9.5127 17.6914 9.80249C17.292 10.0923 17.0557 10.5411 17.04 11.0339C17.0303 11.3608 16.8252 11.6434 16.5166 11.7539C16.0527 11.9204 15.6992 12.2848 15.5469 12.7537C15.3945 13.2227 15.4668 13.7252 15.7441 14.1327C15.9287 14.4031 15.9287 14.7524 15.7441 15.0227C15.4668 15.4302 15.3945 15.9327 15.5469 16.4017C15.6992 16.8706 16.0527 17.235 16.5166 17.4015C16.8252 17.512 17.0303 17.7946 17.04 18.1216C17.0537 18.5748 17.2617 19.0007 17.6104 19.29C17.8398 19.481 18.1162 19.6003 18.4053 19.6403L18.4053 23.2408C18.4053 23.5447 18.5703 23.8254 18.8359 23.9736C19.1006 24.1217 19.4258 24.1151 19.6846 23.9557L21.1357 23.0627C21.1592 23.0481 21.1729 23.0547 21.1865 23.0627L22.6367 23.9557C22.8955 24.1149 23.2207 24.1217 23.4863 23.9735C23.751 23.8254 23.916 23.5446 23.916 23.2408L23.916 19.6401C24.2051 19.6003 24.4814 19.4808 24.7109 19.29C25.0596 19.0007 25.2676 18.5748 25.2812 18.1215C25.291 17.7946 25.4971 17.5118 25.8047 17.4015C26.2686 17.235 26.6221 16.8706 26.7744 16.4016C26.9268 15.9327 26.8555 15.4302 26.5771 15.0227C26.3936 14.7524 26.3936 14.4031 26.5771 14.1328ZM23.0508 23.2821L21.6006 22.3892C21.3311 22.2233 20.9902 22.223 20.7207 22.3892L19.2705 23.2821C19.2373 23.3021 19.1963 23.2791 19.1963 23.2408L19.1963 19.5652C19.4688 19.5337 19.7383 19.6443 19.9102 19.8667C20.2119 20.2566 20.668 20.4803 21.1611 20.4803C21.6543 20.4803 22.1094 20.2566 22.4111 19.8667C22.583 19.6443 22.8535 19.5337 23.125 19.5652L23.125 23.2408C23.125 23.2793 23.084 23.3022 23.0508 23.2821ZM25.9238 15.4681C26.0625 15.6718 26.0986 15.923 26.0225 16.1573C25.9463 16.3917 25.7695 16.5739 25.5371 16.6571C24.9209 16.8781 24.5107 17.4435 24.4912 18.0977C24.4834 18.3276 24.3828 18.5349 24.2061 18.6814C24.0078 18.8461 23.7393 18.9082 23.4795 18.8325C22.8516 18.6492 22.1865 18.8652 21.7861 19.3827C21.6348 19.5776 21.4072 19.6893 21.1611 19.6893C20.9141 19.6893 20.6865 19.5776 20.5352 19.3827C20.2295 18.9874 19.7695 18.7681 19.29 18.7681C19.1416 18.7681 18.9902 18.7891 18.8418 18.8324C18.5801 18.9088 18.3125 18.8447 18.1152 18.6814C17.9385 18.5349 17.8379 18.3275 17.8311 18.0977C17.8105 17.4435 17.4004 16.8781 16.7842 16.657C16.5518 16.5737 16.375 16.3917 16.2988 16.1573C16.2227 15.923 16.2588 15.6718 16.3975 15.4681C16.7666 14.9272 16.7666 14.2283 16.3975 13.6874C16.2588 13.4838 16.2227 13.2325 16.2988 12.9982C16.375 12.7638 16.5518 12.5817 16.7842 12.4984C17.4004 12.2775 17.8105 11.712 17.8311 11.0579C17.8379 10.8115 17.957 10.5872 18.1562 10.4424C18.3555 10.2975 18.6055 10.254 18.8418 10.323C19.4697 10.5063 20.1348 10.2903 20.5352 9.77283C20.6865 9.57788 20.9141 9.46606 21.1611 9.46606C21.4072 9.46606 21.6348 9.57788 21.7861 9.77271C22.1865 10.2903 22.8506 10.5063 23.4795 10.323C23.7158 10.2539 23.9658 10.2975 24.165 10.4423C24.3643 10.5872 24.4834 10.8115 24.4902 11.0577C24.5107 11.7119 24.9209 12.2775 25.5371 12.4984C25.7695 12.5815 25.9463 12.7637 26.0225 12.998C26.0986 13.2324 26.0625 13.4836 25.9238 13.6873C25.5547 14.2283 25.5547 14.9272 25.9238 15.4681Z" fill="#437FC8" fill-opacity="1.000000" fill-rule="nonzero"/>
		<path id="Vector" d="M21.1602 11.2632C19.333 11.2632 17.8457 12.7501 17.8457 14.5778C17.8457 16.4054 19.333 17.8923 21.1602 17.8923C22.9883 17.8923 24.4746 16.4054 24.4746 14.5778C24.4746 12.7501 22.9883 11.2632 21.1602 11.2632ZM21.1602 17.1014C19.7686 17.1014 18.6367 15.9694 18.6367 14.5778C18.6367 13.1863 19.7686 12.0542 21.1602 12.0542C22.5518 12.0542 23.6836 13.1863 23.6836 14.5778C23.6836 15.9694 22.5518 17.1014 21.1602 17.1014Z" fill="#437FC8" fill-opacity="1.000000" fill-rule="nonzero"/>
	</g>
</svg>
