<svg width="40.355469" height="40.355469" viewBox="0 0 40.3555 40.3555" fill="none" xmlns="http://www.w3.org/2000/svg" xmlns:xlink="http://www.w3.org/1999/xlink">
	<desc>
			Created with Pixso.
	</desc>
	<defs>
		<clipPath id="clip29_0">
			<rect id="price-tag (1) 1" width="30.000000" height="30.000000" transform="translate(13.630859 0.000000) rotate(27.024342)" fill="white" fill-opacity="0"/>
		</clipPath>
	</defs>
	<rect id="price-tag (1) 1" width="30.000000" height="30.000000" transform="translate(13.630859 0.000000) rotate(27.024342)" fill="#FFFFFF" fill-opacity="0"/>
	<g clip-path="url(#clip29_0)">
		<path id="Vector" d="M30.5215 18.3738L29.4482 12.7749C29.4189 12.6233 29.3213 12.4934 29.1836 12.4233L27.8477 11.7419L28.8701 9.73755C29.3096 8.87646 28.9678 7.82251 28.1064 7.38354C27.2451 6.94434 26.1914 7.28638 25.752 8.14722L24.7295 10.1516L21.167 8.33398C21.0293 8.26392 20.8672 8.26099 20.7275 8.32666L15.5645 10.7449C15.4639 10.7922 15.3818 10.8716 15.332 10.9707L6.0166 29.2324C5.8916 29.4783 5.98926 29.7795 6.23535 29.905L20.4883 37.1748C20.7344 37.3003 21.0352 37.2026 21.1611 36.9565L30.4756 18.6951C30.5264 18.5959 30.542 18.4829 30.5215 18.3738ZM26.6436 8.60156C26.8311 8.23267 27.2832 8.08618 27.6523 8.27417C28.0205 8.4624 28.168 8.91431 27.9795 9.2832L26.957 11.2876L25.6211 10.606L26.6436 8.60156ZM23.5762 14.6145L23.9678 13.8472C24.0156 13.9189 24.0537 13.9968 24.082 14.0789C24.252 14.604 23.9648 15.168 23.4395 15.3384C22.915 15.4954 22.3604 15.2124 22.1797 14.696C22.0098 14.1707 22.2969 13.6069 22.8223 13.4363C22.9043 13.4106 22.9902 13.396 23.0771 13.3928L22.6855 14.1602L23.5762 14.6145ZM20.4971 36.0569L7.13477 29.2412L16.1445 11.5779L20.9297 9.33594L24.2754 11.0425L23.5547 12.4561C23.2109 12.3701 22.8506 12.3806 22.5127 12.4863C21.4619 12.8269 20.8867 13.9548 21.2275 15.0056C21.5684 16.0564 22.6963 16.6318 23.7471 16.2913C24.7979 15.9504 25.373 14.8225 25.0322 13.7717C25.0322 13.7715 25.0322 13.7712 25.0322 13.7712C24.9199 13.4358 24.7168 13.1379 24.4453 12.9104L25.166 11.4968L28.5117 13.2031L29.5068 18.3933L20.4971 36.0569Z" fill="#437FC8" fill-opacity="1.000000" fill-rule="nonzero"/>
		<path id="Vector" d="M21.959 21.0864L22.1289 20.7524C22.5117 19.9971 22.248 19.0747 21.5254 18.6343L21.9854 17.7324L21.0947 17.2781L20.6348 18.1799C19.8096 17.8333 18.8604 18.2209 18.5137 19.0457C18.2764 19.6101 18.377 20.26 18.7754 20.7256L19.9072 22.0605C20.1279 22.3254 20.0928 22.7195 19.8281 22.9409C19.6377 23.1006 19.3701 23.1318 19.1475 23.0205L18.4795 22.6797C18.1729 22.5225 18.0508 22.1465 18.207 21.8389L18.377 21.5049L17.4863 21.0505L17.3164 21.3845C16.9336 22.1399 17.1963 23.0623 17.9199 23.5027L17.46 24.4045L18.3506 24.8589L18.8105 23.957C19.5918 24.2839 20.4922 23.9551 20.8799 23.2021C21.1787 22.6179 21.0957 21.9109 20.6699 21.4116L19.5381 20.0764C19.3164 19.8115 19.3516 19.4175 19.6162 19.196C19.8076 19.0364 20.0752 19.0051 20.2969 19.1165L20.9658 19.4573C21.2725 19.6145 21.3945 19.9905 21.2383 20.2981L21.0674 20.6321L21.959 21.0864Z" fill="#437FC8" fill-opacity="1.000000" fill-rule="nonzero"/>
		<path id="Vector" d="M23.0684 22.2134L23.959 22.6677L23.5049 23.5586L22.6143 23.1042L23.0684 22.2134Z" fill="#437FC8" fill-opacity="1.000000" fill-rule="evenodd"/>
		<path id="Vector" d="M15.9414 18.5786L16.832 19.033L16.3779 19.9238L15.4873 19.4695L15.9414 18.5786Z" fill="#437FC8" fill-opacity="1.000000" fill-rule="evenodd"/>
		<path id="Vector" d="M11.4336 23.0146L12.3242 23.469L11.8701 24.3599L10.9795 23.9055L11.4336 23.0146Z" fill="#437FC8" fill-opacity="1.000000" fill-rule="evenodd"/>
		<path id="Vector" d="M13.2158 23.9233L14.1064 24.3777L13.6523 25.2686L12.7617 24.8142L13.2158 23.9233Z" fill="#437FC8" fill-opacity="1.000000" fill-rule="evenodd"/>
		<path id="Vector" d="M17.4248 28.8765L21.8789 31.1482L21.4248 32.0391L16.9707 29.7673L17.4248 28.8765Z" fill="#437FC8" fill-opacity="1.000000" fill-rule="evenodd"/>
		<path id="Vector" d="M14.9971 24.832L15.8877 25.2864L15.4336 26.1772L14.543 25.7229L14.9971 24.832Z" fill="#437FC8" fill-opacity="1.000000" fill-rule="evenodd"/>
		<path id="Vector" d="M16.7783 25.741L17.6689 26.1953L17.2148 27.0862L16.3242 26.6318L16.7783 25.741Z" fill="#437FC8" fill-opacity="1.000000" fill-rule="evenodd"/>
		<path id="Vector" d="M18.5605 26.6494L19.4512 27.1038L18.9971 27.9946L18.1064 27.5403L18.5605 26.6494Z" fill="#437FC8" fill-opacity="1.000000" fill-rule="evenodd"/>
		<path id="Vector" d="M20.3418 27.5583L21.2324 28.0127L20.7783 28.9036L19.8877 28.4492L20.3418 27.5583Z" fill="#437FC8" fill-opacity="1.000000" fill-rule="evenodd"/>
		<path id="Vector" d="M22.123 28.467L23.0137 28.9214L22.5596 29.8123L21.6689 29.3579L22.123 28.467Z" fill="#437FC8" fill-opacity="1.000000" fill-rule="evenodd"/>
		<path id="Vector" d="M15.6426 27.9678L16.5332 28.4221L16.0791 29.313L15.1885 28.8586L15.6426 27.9678Z" fill="#437FC8" fill-opacity="1.000000" fill-rule="evenodd"/>
		<path id="Vector" d="M16.2891 31.1038L20.7432 33.3755L20.2891 34.2664L15.835 31.9946L16.2891 31.1038Z" fill="#437FC8" fill-opacity="1.000000" fill-rule="evenodd"/>
		<path id="Vector" d="M14.5068 30.1948L15.3975 30.6492L14.9434 31.54L14.0527 31.0857L14.5068 30.1948Z" fill="#437FC8" fill-opacity="1.000000" fill-rule="evenodd"/>
		<path id="Vector" d="M14.3066 27.2864L10.7432 25.469C10.4971 25.3435 10.1963 25.4412 10.0703 25.687L8.93457 27.9141C8.80957 28.1602 8.90723 28.4612 9.15332 28.5867L12.7158 30.4043C12.9619 30.5298 13.2637 30.4319 13.3887 30.186L14.5244 27.959C14.6504 27.7129 14.5527 27.4119 14.3066 27.2864ZM12.7256 29.2861L10.0527 27.9231L10.7344 26.5869L13.4062 27.95L12.7256 29.2861Z" fill="#437FC8" fill-opacity="1.000000" fill-rule="nonzero"/>
	</g>
</svg>
