<svg width="30.000000" height="30.000000" viewBox="0 0 30 30" fill="none" xmlns="http://www.w3.org/2000/svg" xmlns:xlink="http://www.w3.org/1999/xlink">
	<desc>
			Created with Pixso.
	</desc>
	<defs>
		<clipPath id="clip29_248">
			<rect id="quality (2) 1" width="30.000000" height="30.000000" fill="white" fill-opacity="0"/>
		</clipPath>
	</defs>
	<rect id="quality (2) 1" width="30.000000" height="30.000000" fill="#FFFFFF" fill-opacity="0"/>
	<g clip-path="url(#clip29_248)">
		<path id="Vector" d="M18.3936 12.2134L13.8857 16.4708L11.7227 14.2452C11.4824 13.9984 11.0879 13.9928 10.8408 14.2325C10.5947 14.4727 10.5889 14.8673 10.8281 15.1143L13.4229 17.7777C13.6641 18.0201 14.0537 18.0284 14.3047 17.7963L19.2627 13.12C19.3828 13.0063 19.4531 12.8496 19.458 12.6842C19.4629 12.5189 19.4014 12.3585 19.2871 12.2383C19.0459 11.9875 18.6484 11.9766 18.3936 12.2134Z" fill="#437FC8" fill-opacity="1.000000" fill-rule="nonzero"/>
		<path id="Vector" d="M15.0479 5.66113C9.89648 5.66113 5.70801 9.84998 5.70801 15.0015C5.70801 20.1532 9.89648 24.342 15.0479 24.342C20.2002 24.342 24.3887 20.1532 24.3887 15.0015C24.3887 9.84998 20.2002 5.66113 15.0479 5.66113ZM15.0479 23.0917C10.585 23.0917 6.95801 19.4591 6.95801 15.0015C6.95801 10.5437 10.585 6.9115 15.0479 6.9115C19.5166 6.9115 23.1387 10.5334 23.1387 15.0015C23.1387 19.4694 19.5166 23.0917 15.0479 23.0917Z" fill="#437FC8" fill-opacity="1.000000" fill-rule="nonzero"/>
		<path id="Vector" d="M27.9023 11.563L28.1084 7.85559C28.123 7.60669 27.9873 7.37292 27.7646 7.2616L24.4639 5.59241L22.7939 2.29126C22.6807 2.07031 22.4482 1.93567 22.2002 1.94739L18.4863 2.14771L15.3916 0.103149C15.1836 -0.0344238 14.9131 -0.0344238 14.7041 0.103149L11.6094 2.14771L7.90234 1.94128C7.65332 1.92664 7.41992 2.06201 7.30859 2.28516L5.63867 5.5863L2.33789 7.25549C2.11621 7.36877 1.98242 7.60107 1.99414 7.84949L2.2002 11.5569L0.15625 14.6516C0.0185547 14.8602 0.0185547 15.1305 0.15625 15.3394L2.19434 18.4402L1.9873 22.1476C1.97363 22.3965 2.1084 22.6301 2.33203 22.7416L5.63281 24.4108L7.30176 27.7118C7.41504 27.9331 7.64746 28.0674 7.89551 28.0557L11.6035 27.8494L14.6982 29.8937C14.9053 30.0355 15.1787 30.0355 15.3857 29.8937L18.4805 27.8494L22.1875 28.0557C22.4365 28.0701 22.6699 27.9348 22.7822 27.7118L24.4512 24.4108L27.752 22.7416C27.9727 22.6279 28.1074 22.396 28.0957 22.1476L27.8896 18.4402L29.9336 15.3455C30.0713 15.1368 30.0713 14.8663 29.9336 14.6577L27.9023 11.563ZM26.7393 17.9275C26.6631 18.0394 26.6279 18.174 26.6396 18.309L26.833 21.8162L23.7129 23.3916C23.5947 23.4513 23.498 23.548 23.4385 23.6669L21.8623 26.7865L18.3555 26.5929C18.2207 26.588 18.0889 26.6227 17.9736 26.6927L15.0479 28.6248L12.1221 26.6927C12.0205 26.6241 11.9014 26.587 11.7783 26.5865L11.7471 26.5865L8.23926 26.7804L6.66406 23.6605C6.60449 23.5416 6.50781 23.4452 6.38867 23.3855L3.2627 21.8162L3.45703 18.309C3.46191 18.1747 3.42676 18.0421 3.35645 17.9275L1.4248 15.0016L3.35645 12.0756C3.43359 11.964 3.46875 11.8292 3.45703 11.6943L3.2627 8.18689L6.38281 6.61145C6.50195 6.55188 6.59863 6.45544 6.6582 6.33655L8.2334 3.21667L11.7412 3.41052C11.875 3.41516 12.0078 3.38049 12.1221 3.31042L15.0479 1.37866L17.9736 3.31042C18.0859 3.38684 18.2207 3.42224 18.3555 3.41052L21.8623 3.21667L23.4385 6.33655C23.498 6.45544 23.5947 6.55188 23.7129 6.61145L26.833 8.18689L26.6396 11.6943C26.6348 11.8285 26.6689 11.9611 26.7393 12.0756L28.6709 15.0016L26.7393 17.9275Z" fill="#437FC8" fill-opacity="1.000000" fill-rule="nonzero"/>
	</g>
</svg>
