<svg width="29.822266" height="30.000000" viewBox="0 0 29.8223 30" fill="none" xmlns="http://www.w3.org/2000/svg" xmlns:xlink="http://www.w3.org/1999/xlink">
	<desc>
			Created with Pixso.
	</desc>
	<defs/>
	<path id="Vector" d="M26.3125 7.79419L24.9248 7.79419C25.0049 7.61255 25.0498 7.41187 25.0498 7.20068C25.0498 6.45215 24.4883 5.83276 23.7637 5.74072L23.7637 5.56055C23.7637 4.24854 23.2969 2.97412 22.4473 1.97192C22.291 1.78662 22.0137 1.76367 21.8281 1.92041C21.6436 2.07739 21.6201 2.35474 21.7773 2.53979C22.4912 3.38354 22.8848 4.4563 22.8848 5.56055L22.8848 5.72852L20.8066 5.72852L20.8066 5.56079C20.8066 4.12549 19.6387 2.95801 18.2031 2.95801L11.6182 2.95801C10.1836 2.95801 9.0166 4.12549 9.0166 5.56079L9.0166 5.72852L6.9375 5.72852L6.9375 5.56055C6.9375 2.979 9.03711 0.878906 11.6191 0.878906L18.2031 0.878906C19.0312 0.878906 19.8467 1.09912 20.5596 1.51611C20.7686 1.63867 21.0381 1.56812 21.1602 1.35864C21.2832 1.14893 21.2119 0.879883 21.0029 0.757324C20.1553 0.261963 19.1875 0 18.2031 0L11.6191 0C8.55273 0 6.05859 2.49438 6.05859 5.56055L6.05859 5.74072C5.33398 5.83228 4.77246 6.4519 4.77246 7.20068C4.77246 7.41187 4.81738 7.6123 4.89746 7.79395L3.50879 7.79395C1.57422 7.79395 0 9.36816 0 11.3032L0 14.5486C0 15.8457 0.713867 17.0276 1.8418 17.6367L1.8418 25.9729C1.8418 27.8254 3.0957 29.4319 4.89062 29.8796C4.92578 29.8887 4.96191 29.8928 4.99707 29.8928C5.19434 29.8928 5.37305 29.7595 5.42285 29.5596C5.48242 29.3242 5.33887 29.0857 5.10352 29.0269C3.7002 28.677 2.7207 27.4211 2.7207 25.9729L2.7207 17.968C2.97754 18.0271 3.24023 18.0579 3.50879 18.0579L4.40918 18.0579L4.40918 19.7876C4.40918 20.8184 5.24805 21.6567 6.27832 21.6567L8.78906 21.6567C9.82031 21.6567 10.6582 20.8184 10.6582 19.7876L10.6582 18.0579L19.1631 18.0579L19.1631 19.7876C19.1631 20.8184 20.002 21.6567 21.0322 21.6567L23.5439 21.6567C24.5742 21.6567 25.4131 20.8184 25.4131 19.7876L25.4131 18.0579L26.3125 18.0579C26.5811 18.0579 26.8447 18.0269 27.1016 17.968L27.1016 25.9729C27.1016 27.7087 25.6885 29.1211 23.9531 29.1211L6.74805 29.1211C6.50488 29.1211 6.30859 29.3179 6.30859 29.5605C6.30859 29.8032 6.50488 30 6.74805 30L23.9531 30C26.1738 30 27.9805 28.1934 27.9805 25.9729L27.9805 17.6365C29.1074 17.0273 29.8223 15.8455 29.8223 14.5486L29.8223 11.3032C29.8223 9.36816 28.248 7.79419 26.3125 7.79419ZM24.1709 7.20068C24.1709 7.52783 23.9043 7.79395 23.5771 7.79395L20.1709 7.79395C19.8438 7.79395 19.5771 7.52783 19.5771 7.20068C19.5771 6.87354 19.8438 6.60742 20.1709 6.60742L23.5771 6.60742C23.9043 6.60742 24.1709 6.87354 24.1709 7.20068ZM11.6182 3.83667L18.2031 3.83667C19.1543 3.83667 19.9277 4.61011 19.9277 5.56079L19.9277 5.74878C19.2314 5.86523 18.6982 6.47168 18.6982 7.20068C18.6982 7.41187 18.7432 7.6123 18.8232 7.79395L10.998 7.79395C11.0791 7.6123 11.124 7.41187 11.124 7.20068C11.124 6.47192 10.5918 5.86548 9.89551 5.74902L9.89551 5.56079C9.89551 4.61011 10.668 3.83667 11.6182 3.83667ZM5.65137 7.20068C5.65137 6.87354 5.91797 6.60742 6.24512 6.60742L9.65137 6.60742C9.97852 6.60742 10.2451 6.87354 10.2451 7.20068C10.2451 7.52783 9.97852 7.79395 9.65137 7.79395L6.24512 7.79395C5.91797 7.79419 5.65137 7.52783 5.65137 7.20068ZM9.7793 19.7876C9.7793 20.3337 9.33594 20.7778 8.78906 20.7778L6.27832 20.7778C5.73242 20.7778 5.28809 20.3335 5.28809 19.7876L5.28809 16.9224C5.28809 16.3765 5.73242 15.9321 6.27832 15.9321L8.78906 15.9321C9.33594 15.9321 9.7793 16.3765 9.7793 16.9224L9.7793 19.7876ZM24.5342 19.7876C24.5342 20.3337 24.0898 20.7778 23.5439 20.7778L21.0322 20.7778C20.4863 20.7778 20.042 20.3335 20.042 19.7876L20.042 16.9224C20.042 16.3765 20.4863 15.9321 21.0322 15.9321L23.5439 15.9321C24.0898 15.9321 24.5342 16.3765 24.5342 16.9224L24.5342 19.7876ZM28.9434 14.5486C28.9434 15.5947 28.3232 16.541 27.3643 16.9602C27.0332 17.1052 26.6797 17.179 26.3125 17.179L25.4131 17.179L25.4131 16.9224C25.4131 15.8918 24.5742 15.0532 23.5439 15.0532L21.0322 15.0532C20.002 15.0532 19.1631 15.8918 19.1631 16.9224L19.1631 17.179L10.6582 17.179L10.6582 16.9224C10.6582 15.8918 9.82031 15.0532 8.78906 15.0532L6.27832 15.0532C5.24805 15.0532 4.40918 15.8918 4.40918 16.9224L4.40918 17.179L3.50879 17.179C3.14258 17.179 2.78906 17.1052 2.45703 16.96C1.49805 16.541 0.878906 15.5945 0.878906 14.5486L0.878906 11.3032C0.878906 9.85278 2.05859 8.67285 3.50879 8.67285L26.3125 8.67285C27.7627 8.67285 28.9434 9.85278 28.9434 11.3032L28.9434 14.5486L28.9434 14.5486Z" fill="#437FC8" fill-opacity="1.000000" fill-rule="nonzero"/>
	<path id="Vector" d="M22.6865 16.5322L21.8887 16.5322C21.2012 16.5322 20.6416 17.0916 20.6416 17.7788L20.6416 18.9312C20.6416 19.6187 21.2012 20.178 21.8887 20.178L22.6865 20.178C23.374 20.178 23.9336 19.6187 23.9336 18.9312L23.9336 17.7788C23.9336 17.0916 23.374 16.5322 22.6865 16.5322ZM23.0547 18.9312C23.0547 19.134 22.8896 19.2991 22.6865 19.2991L21.8887 19.2991C21.6855 19.2991 21.5205 19.134 21.5205 18.9312L21.5205 17.7788C21.5205 17.5762 21.6855 17.4111 21.8887 17.4111L22.6865 17.4111C22.8896 17.4111 23.0547 17.5762 23.0547 17.7788L23.0547 18.9312Z" fill="#437FC8" fill-opacity="1.000000" fill-rule="nonzero"/>
	<path id="Vector" d="M7.93262 16.5322L7.13477 16.5322C6.44727 16.5322 5.8877 17.0916 5.8877 17.7788L5.8877 18.9312C5.8877 19.6187 6.44727 20.178 7.13477 20.178L7.93262 20.178C8.62012 20.178 9.17969 19.6187 9.17969 18.9312L9.17969 17.7788C9.17969 17.0916 8.62012 16.5322 7.93262 16.5322ZM8.30078 18.9312C8.30078 19.134 8.13574 19.2991 7.93262 19.2991L7.13477 19.2991C6.93164 19.2991 6.7666 19.134 6.7666 18.9312L6.7666 17.7788C6.7666 17.5762 6.93164 17.4111 7.13477 17.4111L7.93262 17.4111C8.13574 17.4111 8.30078 17.5762 8.30078 17.7788L8.30078 18.9312Z" fill="#437FC8" fill-opacity="1.000000" fill-rule="nonzero"/>
	<path id="Vector" d="M8.05762 25.781C7.91016 25.781 7.77148 25.8555 7.69043 25.9788C7.60938 26.1023 7.5957 26.2585 7.6543 26.3943C8.14453 27.5325 9.26172 28.2681 10.502 28.2681C11.6416 28.2681 12.6787 27.6458 13.2197 26.6599L16.6006 26.6599C17.1416 27.6458 18.1787 28.2681 19.3184 28.2681C20.5586 28.2681 21.6768 27.5325 22.166 26.3943C22.2246 26.2585 22.2109 26.1023 22.1299 25.9788C22.0488 25.8555 21.9111 25.781 21.7627 25.781L19.7871 25.781L19.7871 24.554L21.7627 24.554C21.9111 24.554 22.0488 24.4795 22.1299 24.3562C22.2109 24.2327 22.2246 24.0767 22.166 23.9407C21.6768 22.8025 20.5586 22.0669 19.3184 22.0669C18.1787 22.0669 17.1416 22.6892 16.6006 23.675L13.2197 23.675C12.6787 22.6892 11.6416 22.0669 10.502 22.0669C9.26172 22.0669 8.14453 22.8025 7.6543 23.9407C7.5957 24.0767 7.60938 24.2327 7.69043 24.3562C7.77148 24.4795 7.91016 24.554 8.05762 24.554L10.0332 24.554L10.0332 25.781L8.05762 25.781ZM10.4727 23.675L8.85547 23.675C9.26855 23.2185 9.86328 22.9458 10.502 22.9458C11.3896 22.9458 12.1904 23.4729 12.543 24.2886C12.6123 24.4497 12.7705 24.554 12.9463 24.554L16.874 24.554C17.0498 24.554 17.208 24.4497 17.2783 24.2886C17.6299 23.4729 18.4307 22.9458 19.3184 22.9458C19.958 22.9458 20.5518 23.2185 20.9658 23.675L19.3477 23.675C19.1055 23.675 18.9082 23.8718 18.9082 24.1145L18.9082 26.2205C18.9082 26.4631 19.1055 26.6599 19.3477 26.6599L20.9658 26.6599C20.5518 27.1165 19.958 27.3892 19.3184 27.3892C18.4307 27.3892 17.6299 26.8621 17.2783 26.0464C17.208 25.8853 17.0498 25.781 16.874 25.781L12.9463 25.781C12.7705 25.781 12.6123 25.8853 12.543 26.0464C12.1904 26.8621 11.3896 27.3892 10.502 27.3892C9.86328 27.3892 9.26855 27.1165 8.85547 26.6599L10.4727 26.6599C10.7158 26.6599 10.9121 26.4631 10.9121 26.2205L10.9121 24.1145C10.9121 23.8718 10.7148 23.675 10.4727 23.675Z" fill="#437FC8" fill-opacity="1.000000" fill-rule="nonzero"/>
</svg>
