<svg width="30.000000" height="30.000000" viewBox="0 0 30 30" fill="none" xmlns="http://www.w3.org/2000/svg" xmlns:xlink="http://www.w3.org/1999/xlink">
	<desc>
			Created with Pixso.
	</desc>
	<defs>
		<clipPath id="clip29_291">
			<rect id="safety 1" width="30.000000" height="30.000000" fill="white" fill-opacity="0"/>
		</clipPath>
	</defs>
	<rect id="safety 1" width="30.000000" height="30.000000" fill="#FFFFFF" fill-opacity="0"/>
	<g clip-path="url(#clip29_291)">
		<path id="Vector" d="M22.0312 21.0938L22.9688 21.0938C23.0928 21.0938 23.2119 21.1432 23.2998 21.2311C23.3877 21.319 23.4375 21.4382 23.4375 21.5625C23.4375 21.6868 23.4873 21.806 23.5752 21.8939C23.6631 21.9818 23.7822 22.0312 23.9062 22.0312C24.0303 22.0312 24.1494 21.9818 24.2373 21.8939C24.3252 21.806 24.375 21.6868 24.375 21.5625C24.375 21.1896 24.2266 20.8319 23.9629 20.5681C23.6992 20.3044 23.3418 20.1562 22.9688 20.1562L22.9688 19.6875C22.9688 19.5632 22.9189 19.444 22.8311 19.3561C22.7432 19.2682 22.624 19.2188 22.5 19.2188C22.376 19.2188 22.2568 19.2682 22.1689 19.3561C22.0811 19.444 22.0312 19.5632 22.0312 19.6875L22.0312 20.1562C21.6582 20.1562 21.3008 20.3044 21.0371 20.5681C20.7734 20.8319 20.625 21.1896 20.625 21.5625C20.625 21.9354 20.7734 22.2931 21.0371 22.5569C21.3008 22.8206 21.6582 22.9688 22.0312 22.9688L22.9688 22.9688C23.0928 22.9688 23.2119 23.0182 23.2998 23.1061C23.3877 23.194 23.4375 23.3132 23.4375 23.4375C23.4375 23.5618 23.3877 23.681 23.2998 23.7689C23.2119 23.8568 23.0928 23.9062 22.9688 23.9062L22.0312 23.9062C21.9072 23.9062 21.7881 23.8568 21.7002 23.7689C21.6123 23.681 21.5625 23.5618 21.5625 23.4375C21.5625 23.3132 21.5127 23.194 21.4248 23.1061C21.3369 23.0182 21.2178 22.9688 21.0938 22.9688C20.9697 22.9688 20.8506 23.0182 20.7627 23.1061C20.6748 23.194 20.625 23.3132 20.625 23.4375C20.625 23.8104 20.7734 24.1681 21.0371 24.4319C21.3008 24.6956 21.6582 24.8438 22.0312 24.8438L22.0312 25.3125C22.0312 25.4368 22.0811 25.556 22.1689 25.6439C22.2568 25.7318 22.376 25.7812 22.5 25.7812C22.624 25.7812 22.7432 25.7318 22.8311 25.6439C22.9189 25.556 22.9688 25.4368 22.9688 25.3125L22.9688 24.8438C23.3418 24.8438 23.6992 24.6956 23.9629 24.4319C24.2266 24.1681 24.375 23.8104 24.375 23.4375C24.375 23.0646 24.2266 22.7069 23.9629 22.4431C23.6992 22.1794 23.3418 22.0312 22.9688 22.0312L22.0312 22.0312C21.9072 22.0312 21.7881 21.9818 21.7002 21.8939C21.6123 21.806 21.5625 21.6868 21.5625 21.5625C21.5625 21.4382 21.6123 21.319 21.7002 21.2311C21.7881 21.1432 21.9072 21.0938 22.0312 21.0938Z" fill="#437FC8" fill-opacity="1.000000" fill-rule="nonzero"/>
		<path id="Vector" d="M22.5 17.8125C21.5732 17.8125 20.667 18.0874 19.8955 18.6025C19.125 19.1176 18.5244 19.8496 18.1689 20.7062C17.8145 21.5627 17.7217 22.5052 17.9023 23.4144C18.083 24.3237 18.5303 25.1591 19.1855 25.8146C19.8408 26.4701 20.6758 26.9165 21.5859 27.0974C22.4951 27.2783 23.4375 27.1854 24.2939 26.8307C25.1504 26.476 25.8828 25.8751 26.3975 25.1042C26.9121 24.3334 27.1875 23.4271 27.1875 22.5C27.1865 21.2572 26.6914 20.0657 25.8135 19.1869C24.9346 18.3081 23.7432 17.8138 22.5 17.8125ZM22.5 26.25C21.7588 26.25 21.0332 26.03 20.417 25.618C19.7998 25.2059 19.3193 24.6202 19.0352 23.9351C18.752 23.2499 18.6777 22.4958 18.8223 21.7684C18.9668 21.041 19.3242 20.3728 19.8486 19.8484C20.373 19.3239 21.041 18.9668 21.7686 18.822C22.4961 18.6774 23.25 18.7516 23.9355 19.0354C24.6201 19.3193 25.2061 19.7999 25.6182 20.4166C26.0303 21.0333 26.25 21.7583 26.25 22.5C26.249 23.4943 25.8535 24.4474 25.1504 25.1504C24.4473 25.8534 23.4941 26.2489 22.5 26.25Z" fill="#437FC8" fill-opacity="1.000000" fill-rule="nonzero"/>
		<path id="Vector" d="M26.1211 17.0321C26.5146 15.5669 26.7158 14.0565 26.7188 12.5392L26.7188 5.15637C26.7188 5.05798 26.6875 4.96204 26.6309 4.8822C26.5732 4.80237 26.4912 4.74268 26.3984 4.71155L15.1484 0.961548C15.0518 0.929443 14.9482 0.929443 14.8516 0.961548L3.60156 4.71155C3.50879 4.74268 3.42773 4.80237 3.37012 4.8822C3.3125 4.96204 3.28125 5.05798 3.28125 5.15637L3.28125 12.5392C3.26953 15.7629 4.16211 18.9253 5.85645 21.6677C7.55176 24.4102 9.98047 26.6228 12.8691 28.0548L14.791 29.0157C14.8555 29.0482 14.9277 29.0652 15 29.0652C15.0732 29.0652 15.1445 29.0482 15.21 29.0157L17.1318 28.0553C17.4873 27.879 17.8467 27.6775 18.2129 27.4585C18.8906 28.0444 19.6816 28.485 20.5371 28.7532C21.3926 29.0214 22.293 29.1115 23.1846 29.0178C24.0752 28.9241 24.9385 28.6488 25.7188 28.2087C26.499 27.7688 27.1816 27.1733 27.7227 26.4594C28.2646 25.7455 28.6543 24.928 28.8672 24.0576C29.0801 23.1873 29.1133 22.2825 28.9629 21.399C28.8125 20.5156 28.4834 19.6722 27.9941 18.9211C27.5059 18.1702 26.8682 17.5272 26.1211 17.0321ZM16.7129 27.2139L15 28.0698L13.2881 27.2139C10.5557 25.8594 8.25879 23.7666 6.65527 21.1729C5.05273 18.5791 4.20898 15.5883 4.21875 12.5392L4.21875 5.49438L15 1.90039L25.7812 5.49438L25.7812 12.5392C25.7783 13.8956 25.6074 15.2465 25.2734 16.561C24.7051 16.2947 24.1006 16.1122 23.4795 16.0192C23.7598 14.8804 23.9033 13.712 23.9062 12.5392L23.9062 7.1814C23.9062 7.08289 23.875 6.98706 23.8184 6.90723C23.7607 6.82727 23.6787 6.76758 23.5859 6.73657L15.1484 3.92407C15.0518 3.89197 14.9482 3.89197 14.8516 3.92407L6.41406 6.73657C6.32129 6.76758 6.24023 6.82727 6.18262 6.90723C6.125 6.98706 6.09375 7.08289 6.09375 7.1814L6.09375 12.5392C6.08398 15.2395 6.83105 17.8887 8.25098 20.1858C9.66992 22.4829 11.7051 24.3362 14.125 25.5353L14.791 25.868C14.8555 25.9006 14.9277 25.9175 15 25.9175C15.0732 25.9175 15.1445 25.9006 15.21 25.868L15.8779 25.5338C16.1084 25.4166 16.3203 25.3027 16.5205 25.1898C16.7793 25.7626 17.1182 26.2953 17.5283 26.7714C17.2539 26.9303 16.9824 27.0803 16.7129 27.2139ZM15.9375 22.5001C15.9395 23.1073 16.0254 23.7114 16.1934 24.2949C15.9678 24.4258 15.7314 24.557 15.4561 24.6967L15 24.9244L14.5439 24.6967C12.2803 23.5751 10.377 21.8413 9.04883 19.6924C7.7207 17.5435 7.02246 15.0653 7.03125 12.5392L7.03125 7.51929L15 4.86292L22.9688 7.51929L22.9688 12.5392C22.9658 13.6857 22.8203 14.8273 22.5342 15.9376C22.5234 15.9376 22.5117 15.9376 22.5 15.9376C20.7598 15.9395 19.0918 16.6315 17.8613 17.8618C16.6318 19.092 15.9395 20.7603 15.9375 22.5001ZM22.5 28.1251C21.3877 28.1251 20.2998 27.7952 19.375 27.1771C18.4502 26.5591 17.7295 25.6805 17.3037 24.6527C16.8779 23.6249 16.7666 22.4939 16.9834 21.4027C17.2002 20.3116 17.7363 19.3093 18.5225 18.5226C19.3096 17.736 20.3115 17.2002 21.4023 16.9832C22.4941 16.7661 23.625 16.8776 24.6523 17.3033C25.6807 17.729 26.5586 18.45 27.1768 19.375C27.7949 20.3 28.125 21.3876 28.125 22.5001C28.123 23.9915 27.5303 25.4213 26.4756 26.4758C25.4209 27.5304 23.9912 28.1235 22.5 28.1251Z" fill="#437FC8" fill-opacity="1.000000" fill-rule="nonzero"/>
		<path id="Vector" d="M14.0635 18.2812C13.9385 18.2812 13.8193 18.2318 13.7314 18.1439L9.75488 14.1666C9.66699 14.0787 9.61719 13.9595 9.61719 13.8352C9.61719 13.7109 9.66699 13.5917 9.75488 13.5038L11.0801 12.1777C11.168 12.0898 11.2871 12.0404 11.4111 12.0404C11.5361 12.0404 11.6553 12.0898 11.7432 12.1777L14.0635 14.498L19.3096 9.25171C19.3975 9.16382 19.5166 9.1145 19.6406 9.1145C19.7646 9.1145 19.8848 9.16382 19.9727 9.25171L21.2979 10.5774C21.3857 10.6653 21.4355 10.7844 21.4355 10.9088C21.4355 11.0331 21.3857 11.1522 21.2979 11.2402L14.3945 18.1439C14.3066 18.2318 14.1875 18.2812 14.0635 18.2812ZM10.749 13.8352L14.0635 17.1497L20.3037 10.9088L19.6416 10.246L14.3945 15.4922C14.3066 15.5801 14.1875 15.6295 14.0635 15.6295C13.9385 15.6295 13.8193 15.5801 13.7314 15.4922L11.4111 13.1719L10.749 13.8352Z" fill="#437FC8" fill-opacity="1.000000" fill-rule="nonzero"/>
	</g>
</svg>
