<svg width="23.437500" height="23.437500" viewBox="0 0 23.4375 23.4375" fill="none" xmlns="http://www.w3.org/2000/svg" xmlns:xlink="http://www.w3.org/1999/xlink">
	<desc>
			Created with Pixso.
	</desc>
	<defs/>
	<path id="Vector" d="M21.4844 2.34375L19.5312 2.34375L19.5312 1.5625C19.5312 1.14819 19.3662 0.750732 19.0732 0.457764C18.7803 0.164551 18.3828 0 17.9688 0C17.5547 0 17.1572 0.164551 16.8643 0.457764C16.5713 0.750732 16.4062 1.14819 16.4062 1.5625L16.4062 2.34375L13.2812 2.34375L13.2812 1.5625C13.2812 1.14819 13.1162 0.750732 12.8232 0.457764C12.5303 0.164551 12.1328 0 11.7188 0C11.3047 0 10.9072 0.164551 10.6143 0.457764C10.3213 0.750732 10.1562 1.14819 10.1562 1.5625L10.1562 2.34375L7.03125 2.34375L7.03125 1.5625C7.03125 1.14819 6.86621 0.750732 6.57324 0.457764C6.28027 0.164551 5.88281 0 5.46875 0C5.05469 0 4.65723 0.164551 4.36426 0.457764C4.07129 0.750732 3.90625 1.14819 3.90625 1.5625L3.90625 2.34375L1.95312 2.34375C1.43555 2.34375 0.938477 2.54956 0.572266 2.91577C0.206055 3.28198 0 3.77881 0 4.29688L0 19.9219C0 20.4399 0.206055 20.9368 0.572266 21.303C0.938477 21.6692 1.43555 21.875 1.95312 21.875L12.8906 21.875C12.9941 21.875 13.0938 21.8337 13.167 21.7605C13.2402 21.6873 13.2812 21.5879 13.2812 21.4844C13.2812 21.3809 13.2402 21.2815 13.167 21.2083C13.0938 21.135 12.9941 21.0938 12.8906 21.0938L1.95312 21.0938C1.64258 21.0928 1.34473 20.969 1.12598 20.7495C0.90625 20.53 0.782227 20.2324 0.78125 19.9219L0.78125 7.8125L22.6562 7.8125L22.6562 14.4531C22.6562 14.5566 22.6973 14.656 22.7705 14.7292C22.8438 14.8025 22.9434 14.8438 23.0469 14.8438C23.1504 14.8438 23.25 14.8025 23.3232 14.7292C23.3965 14.656 23.4375 14.5566 23.4375 14.4531L23.4375 4.29688C23.4375 3.77881 23.2314 3.28198 22.8652 2.91577C22.499 2.54956 22.002 2.34375 21.4844 2.34375ZM17.1875 1.5625C17.1875 1.35522 17.2695 1.15649 17.416 1.01001C17.5625 0.863525 17.7617 0.78125 17.9688 0.78125C18.1758 0.78125 18.375 0.863525 18.5215 1.01001C18.668 1.15649 18.75 1.35522 18.75 1.5625L18.75 3.90625C18.75 4.11353 18.668 4.31226 18.5215 4.45874C18.375 4.60522 18.1758 4.6875 17.9688 4.6875C17.7617 4.6875 17.5625 4.60522 17.416 4.45874C17.2695 4.31226 17.1875 4.11353 17.1875 3.90625L17.1875 1.5625ZM10.9375 1.5625C10.9375 1.35522 11.0195 1.15649 11.166 1.01001C11.3125 0.863525 11.5117 0.78125 11.7188 0.78125C11.9258 0.78125 12.125 0.863525 12.2715 1.01001C12.418 1.15649 12.5 1.35522 12.5 1.5625L12.5 3.90625C12.5 4.11353 12.418 4.31226 12.2715 4.45874C12.125 4.60522 11.9258 4.6875 11.7188 4.6875C11.5117 4.6875 11.3125 4.60522 11.166 4.45874C11.0195 4.31226 10.9375 4.11353 10.9375 3.90625L10.9375 1.5625ZM4.6875 1.5625C4.6875 1.35522 4.76953 1.15649 4.91602 1.01001C5.0625 0.863525 5.26172 0.78125 5.46875 0.78125C5.67578 0.78125 5.875 0.863525 6.02148 1.01001C6.16797 1.15649 6.25 1.35522 6.25 1.5625L6.25 3.90625C6.25 4.11353 6.16797 4.31226 6.02148 4.45874C5.875 4.60522 5.67578 4.6875 5.46875 4.6875C5.26172 4.6875 5.0625 4.60522 4.91602 4.45874C4.76953 4.31226 4.6875 4.11353 4.6875 3.90625L4.6875 1.5625ZM22.6562 7.03125L0.78125 7.03125L0.78125 4.29688C0.782227 3.98633 0.90625 3.68872 1.12598 3.46924C1.34473 3.24976 1.64258 3.12598 1.95312 3.125L3.90625 3.125L3.90625 3.90625C3.90625 4.32056 4.07129 4.71802 4.36426 5.01099C4.65723 5.3042 5.05469 5.46875 5.46875 5.46875C5.88281 5.46875 6.28027 5.3042 6.57324 5.01099C6.86621 4.71802 7.03125 4.32056 7.03125 3.90625L7.03125 3.125L10.1562 3.125L10.1562 3.90625C10.1562 4.32056 10.3213 4.71802 10.6143 5.01099C10.9072 5.3042 11.3047 5.46875 11.7188 5.46875C12.1328 5.46875 12.5303 5.3042 12.8232 5.01099C13.1162 4.71802 13.2812 4.32056 13.2812 3.90625L13.2812 3.125L16.4062 3.125L16.4062 3.90625C16.4062 4.32056 16.5713 4.71802 16.8643 5.01099C17.1572 5.3042 17.5547 5.46875 17.9688 5.46875C18.3828 5.46875 18.7803 5.3042 19.0732 5.01099C19.3662 4.71802 19.5312 4.32056 19.5312 3.90625L19.5312 3.125L21.4844 3.125C21.7949 3.12598 22.0928 3.24976 22.3115 3.46924C22.5312 3.68872 22.6553 3.98633 22.6562 4.29688L22.6562 7.03125Z" fill="#437FC8" fill-opacity="1.000000" fill-rule="nonzero"/>
	<path id="Vector" d="M10.9375 10.5469C10.9375 10.3396 10.8555 10.1409 10.709 9.99438C10.5625 9.8479 10.3633 9.76562 10.1562 9.76562L8.59375 9.76562C8.38672 9.76562 8.1875 9.8479 8.04102 9.99438C7.89453 10.1409 7.8125 10.3396 7.8125 10.5469L7.8125 11.7188C7.8125 11.926 7.89453 12.1248 8.04102 12.2712C8.1875 12.4177 8.38672 12.5 8.59375 12.5L10.1562 12.5C10.3633 12.5 10.5625 12.4177 10.709 12.2712C10.8555 12.1248 10.9375 11.926 10.9375 11.7188L10.9375 10.5469ZM8.59375 11.7188L8.59375 10.5469L10.1562 10.5469L10.1562 11.7188L8.59375 11.7188Z" fill="#437FC8" fill-opacity="1.000000" fill-rule="nonzero"/>
	<path id="Vector" d="M6.25 10.5469C6.25 10.3396 6.16797 10.1409 6.02148 9.99438C5.875 9.8479 5.67578 9.76562 5.46875 9.76562L3.90625 9.76562C3.69922 9.76562 3.5 9.8479 3.35352 9.99438C3.20703 10.1409 3.125 10.3396 3.125 10.5469L3.125 11.7188C3.125 11.926 3.20703 12.1248 3.35352 12.2712C3.5 12.4177 3.69922 12.5 3.90625 12.5L5.46875 12.5C5.67578 12.5 5.875 12.4177 6.02148 12.2712C6.16797 12.1248 6.25 11.926 6.25 11.7188L6.25 10.5469ZM3.90625 11.7188L3.90625 10.5469L5.46875 10.5469L5.46875 11.7188L3.90625 11.7188Z" fill="#437FC8" fill-opacity="1.000000" fill-rule="nonzero"/>
	<path id="Vector" d="M19.5312 12.5C19.7383 12.5 19.9375 12.4177 20.084 12.2712C20.2305 12.1248 20.3125 11.926 20.3125 11.7188L20.3125 10.5469C20.3125 10.3396 20.2305 10.1409 20.084 9.99438C19.9375 9.8479 19.7383 9.76562 19.5312 9.76562L17.9688 9.76562C17.7617 9.76562 17.5625 9.8479 17.416 9.99438C17.2695 10.1409 17.1875 10.3396 17.1875 10.5469L17.1875 11.7188C17.1875 11.926 17.2695 12.1248 17.416 12.2712C17.5625 12.4177 17.7617 12.5 17.9688 12.5L19.5312 12.5ZM17.9688 10.5469L19.5312 10.5469L19.5312 11.7188L17.9688 11.7188L17.9688 10.5469Z" fill="#437FC8" fill-opacity="1.000000" fill-rule="nonzero"/>
	<path id="Vector" d="M10.9375 14.0625C10.9375 13.8552 10.8555 13.6565 10.709 13.51C10.5625 13.3635 10.3633 13.2812 10.1562 13.2812L8.59375 13.2812C8.38672 13.2812 8.1875 13.3635 8.04102 13.51C7.89453 13.6565 7.8125 13.8552 7.8125 14.0625L7.8125 15.2344C7.8125 15.4417 7.89453 15.6404 8.04102 15.7869C8.1875 15.9333 8.38672 16.0156 8.59375 16.0156L10.1562 16.0156C10.3633 16.0156 10.5625 15.9333 10.709 15.7869C10.8555 15.6404 10.9375 15.4417 10.9375 15.2344L10.9375 14.0625ZM8.59375 15.2344L8.59375 14.0625L10.1562 14.0625L10.1562 15.2344L8.59375 15.2344Z" fill="#437FC8" fill-opacity="1.000000" fill-rule="nonzero"/>
	<path id="Vector" d="M6.25 14.0625C6.25 13.8552 6.16797 13.6565 6.02148 13.51C5.875 13.3635 5.67578 13.2812 5.46875 13.2812L3.90625 13.2812C3.69922 13.2812 3.5 13.3635 3.35352 13.51C3.20703 13.6565 3.125 13.8552 3.125 14.0625L3.125 15.2344C3.125 15.4417 3.20703 15.6404 3.35352 15.7869C3.5 15.9333 3.69922 16.0156 3.90625 16.0156L5.46875 16.0156C5.67578 16.0156 5.875 15.9333 6.02148 15.7869C6.16797 15.6404 6.25 15.4417 6.25 15.2344L6.25 14.0625ZM3.90625 15.2344L3.90625 14.0625L5.46875 14.0625L5.46875 15.2344L3.90625 15.2344Z" fill="#437FC8" fill-opacity="1.000000" fill-rule="nonzero"/>
	<path id="Vector" d="M10.1562 16.7969L8.59375 16.7969C8.38672 16.7969 8.1875 16.8792 8.04102 17.0256C7.89453 17.1721 7.8125 17.3708 7.8125 17.5781L7.8125 18.75C7.8125 18.9573 7.89453 19.156 8.04102 19.3025C8.1875 19.449 8.38672 19.5312 8.59375 19.5312L10.1562 19.5312C10.3633 19.5312 10.5625 19.449 10.709 19.3025C10.8555 19.156 10.9375 18.9573 10.9375 18.75L10.9375 17.5781C10.9375 17.3708 10.8555 17.1721 10.709 17.0256C10.5625 16.8792 10.3633 16.7969 10.1562 16.7969ZM8.59375 18.75L8.59375 17.5781L10.1562 17.5781L10.1562 18.75L8.59375 18.75Z" fill="#437FC8" fill-opacity="1.000000" fill-rule="nonzero"/>
	<path id="Vector" d="M13.2812 12.5L14.8438 12.5C15.0508 12.5 15.25 12.4177 15.3965 12.2712C15.543 12.1248 15.625 11.926 15.625 11.7188L15.625 10.5469C15.625 10.3396 15.543 10.1409 15.3965 9.99438C15.25 9.8479 15.0508 9.76562 14.8438 9.76562L13.2812 9.76562C13.0742 9.76562 12.875 9.8479 12.7285 9.99438C12.582 10.1409 12.5 10.3396 12.5 10.5469L12.5 11.7188C12.5 11.926 12.582 12.1248 12.7285 12.2712C12.875 12.4177 13.0742 12.5 13.2812 12.5ZM13.2812 10.5469L14.8438 10.5469L14.8438 11.7188L13.2812 11.7188L13.2812 10.5469Z" fill="#437FC8" fill-opacity="1.000000" fill-rule="nonzero"/>
	<path id="Vector" d="M12.5 15.2344C12.5 15.4417 12.582 15.6404 12.7285 15.7869C12.875 15.9333 13.0742 16.0156 13.2812 16.0156C13.3848 16.0156 13.4844 15.9744 13.5576 15.9011C13.6309 15.8279 13.6719 15.7285 13.6719 15.625C13.6719 15.5215 13.6309 15.4221 13.5576 15.3489C13.4844 15.2756 13.3848 15.2344 13.2812 15.2344L13.2812 14.0625L14.8438 14.0625C14.9473 14.0625 15.0469 14.0212 15.1201 13.948C15.1934 13.8748 15.2344 13.7754 15.2344 13.6719C15.2344 13.5684 15.1934 13.469 15.1201 13.3958C15.0469 13.3225 14.9473 13.2812 14.8438 13.2812L13.2812 13.2812C13.0742 13.2812 12.875 13.3635 12.7285 13.51C12.582 13.6565 12.5 13.8552 12.5 14.0625L12.5 15.2344Z" fill="#437FC8" fill-opacity="1.000000" fill-rule="nonzero"/>
	<path id="Vector" d="M5.46875 16.7969L3.90625 16.7969C3.69922 16.7969 3.5 16.8792 3.35352 17.0256C3.20703 17.1721 3.125 17.3708 3.125 17.5781L3.125 18.75C3.125 18.9573 3.20703 19.156 3.35352 19.3025C3.5 19.449 3.69922 19.5312 3.90625 19.5312L5.46875 19.5312C5.67578 19.5312 5.875 19.449 6.02148 19.3025C6.16797 19.156 6.25 18.9573 6.25 18.75L6.25 17.5781C6.25 17.3708 6.16797 17.1721 6.02148 17.0256C5.875 16.8792 5.67578 16.7969 5.46875 16.7969ZM3.90625 18.75L3.90625 17.5781L5.46875 17.5781L5.46875 18.75L3.90625 18.75Z" fill="#437FC8" fill-opacity="1.000000" fill-rule="nonzero"/>
	<path id="Vector" d="M18.3594 13.2812C17.3555 13.2812 16.373 13.5791 15.5381 14.137C14.7031 14.6951 14.0518 15.488 13.668 16.416C13.2832 17.344 13.1826 18.365 13.3789 19.3501C13.5752 20.3352 14.0586 21.24 14.7686 21.9502C15.4785 22.6604 16.3838 23.144 17.3691 23.3398C18.3535 23.5359 19.375 23.4353 20.3027 23.051C21.2305 22.6665 22.0234 22.0156 22.582 21.1807C23.1396 20.3455 23.4375 19.3638 23.4375 18.3594C23.4355 17.0129 22.9004 15.7224 21.9482 14.7703C20.9961 13.8184 19.7061 13.2827 18.3594 13.2812ZM18.3594 22.6562C17.5098 22.6562 16.6787 22.4043 15.9717 21.9321C15.2656 21.46 14.7148 20.7888 14.3896 20.0037C14.0645 19.2185 13.9795 18.3545 14.1455 17.521C14.3105 16.6875 14.7197 15.9219 15.3213 15.321C15.9219 14.7202 16.6875 14.3108 17.5215 14.145C18.3545 13.9792 19.2188 14.0645 20.0039 14.3896C20.7891 14.7148 21.46 15.2656 21.9316 15.9722C22.4043 16.6787 22.6562 17.5095 22.6562 18.3594C22.6553 19.4985 22.2021 20.5908 21.3965 21.3962C20.5908 22.2017 19.499 22.6548 18.3594 22.6562Z" fill="#437FC8" fill-opacity="1.000000" fill-rule="nonzero"/>
	<path id="Vector" d="M20.6162 16.7217L17.5781 19.76L16.1973 18.3787C16.123 18.3076 16.0244 18.2683 15.9229 18.269C15.8203 18.27 15.7217 18.311 15.6494 18.3835C15.5771 18.4558 15.5361 18.554 15.5352 18.6562C15.5342 18.7588 15.5732 18.8574 15.6445 18.9312L17.3018 20.5886C17.375 20.6616 17.4746 20.7029 17.5781 20.7029C17.6816 20.7029 17.7812 20.6616 17.8545 20.5886L21.1689 17.2742C21.2402 17.2004 21.2793 17.1018 21.2783 16.9993C21.2773 16.897 21.2363 16.7988 21.1641 16.7266C21.0918 16.6541 20.9932 16.613 20.8906 16.6121C20.7891 16.6111 20.6904 16.6506 20.6162 16.7217Z" fill="#437FC8" fill-opacity="1.000000" fill-rule="nonzero"/>
</svg>
