<svg width="25.000000" height="25.000000" viewBox="0 0 25 25" fill="none" xmlns="http://www.w3.org/2000/svg" xmlns:xlink="http://www.w3.org/1999/xlink">
	<desc>
			Created with Pixso.
	</desc>
	<defs>
		<clipPath id="clip31_109">
			<rect id="invoices 1" width="25.000000" height="25.000000" fill="white" fill-opacity="0"/>
		</clipPath>
	</defs>
	<rect id="invoices 1" width="25.000000" height="25.000000" fill="#FFFFFF" fill-opacity="0"/>
	<g clip-path="url(#clip31_109)">
		<path id="Vector" d="M11.1982 8.54163C11.1982 11.5571 13.6514 14.0104 16.667 14.0104C19.6826 14.0104 22.1357 11.5571 22.1357 8.54163C22.1357 5.52625 19.6826 3.07288 16.667 3.07288C13.6514 3.07288 11.1982 5.52625 11.1982 8.54163ZM21.3018 8.54163C21.3018 11.0977 19.2227 13.1771 16.667 13.1771C14.1104 13.1771 12.0312 11.0977 12.0312 8.54163C12.0312 5.98572 14.1104 3.90625 16.667 3.90625C19.2227 3.90625 21.3018 5.98572 21.3018 8.54163ZM16.667 5.72913C16.8965 5.72913 17.083 5.91577 17.083 6.14587L17.083 6.32166C17.5684 6.49365 17.917 6.95679 17.917 7.5C17.917 7.7301 17.7305 7.91663 17.5 7.91663C17.2695 7.91663 17.083 7.7301 17.083 7.5C17.083 7.27026 16.8965 7.08337 16.667 7.08337C16.4365 7.08337 16.25 7.27026 16.25 7.5L16.25 7.66858C16.25 7.85181 16.3672 8.0116 16.542 8.06628L17.0391 8.22156C17.5645 8.38562 17.917 8.86511 17.917 9.41479L17.917 9.58337C17.917 10.1832 17.4922 10.6857 16.9268 10.8059L16.9268 10.9375C16.9268 11.1676 16.7402 11.3541 16.5107 11.3541C16.2803 11.3541 16.0938 11.1676 16.0938 10.9375L16.0938 10.6937C15.6924 10.4856 15.417 10.0662 15.417 9.58337C15.417 9.35327 15.6035 9.16663 15.833 9.16663C16.0635 9.16663 16.25 9.35327 16.25 9.58337C16.25 9.81311 16.4365 10 16.667 10C16.8965 10 17.083 9.81311 17.083 9.58337L17.083 9.41479C17.083 9.23157 16.9658 9.07178 16.791 9.01709L16.2939 8.86169C15.7695 8.69775 15.417 8.21826 15.417 7.66858L15.417 7.5C15.417 6.95679 15.7646 6.49365 16.25 6.32166L16.25 6.14587C16.25 5.91577 16.4365 5.72913 16.667 5.72913ZM23.4375 16.7709L23.4375 22.0834C23.4375 23.6917 22.1289 25 20.5205 25L4.47949 25C2.87109 25 1.5625 23.6917 1.5625 22.0834L1.5625 1.66663C1.5625 0.747681 2.31055 0 3.22949 0L16.7705 0C17.6895 0 18.4375 0.747681 18.4375 1.66663C18.4375 1.89673 18.251 2.08337 18.0205 2.08337C17.791 2.08337 17.6045 1.89673 17.6045 1.66663C17.6045 1.20715 17.2305 0.833374 16.7705 0.833374L3.22949 0.833374C2.76953 0.833374 2.39551 1.20715 2.39551 1.66663L2.39551 22.0834C2.39551 23.2321 3.33008 24.1666 4.47949 24.1666L18.4824 24.1666C17.9414 23.6368 17.6045 22.8988 17.6045 22.0834L17.6045 15.5729C17.6045 15.3428 17.791 15.1562 18.0205 15.1562C18.251 15.1562 18.4375 15.3428 18.4375 15.5729L18.4375 22.0834C18.4375 23.2321 19.3721 24.1666 20.5205 24.1666C21.6699 24.1666 22.6045 23.2321 22.6045 22.0834L22.6045 16.7709C22.6045 16.3114 22.2305 15.9375 21.7705 15.9375L20 15.9375C19.7695 15.9375 19.583 15.751 19.583 15.5209C19.583 15.2908 19.7695 15.1041 20 15.1041L21.7705 15.1041C22.6895 15.1041 23.4375 15.8518 23.4375 16.7709ZM5.20801 11.1979C5.20801 10.9678 5.39453 10.7812 5.625 10.7812L9.16699 10.7812C9.39648 10.7812 9.58301 10.9678 9.58301 11.1979C9.58301 11.428 9.39648 11.6146 9.16699 11.6146L5.625 11.6146C5.39453 11.6146 5.20801 11.428 5.20801 11.1979ZM5.20801 6.51038C5.20801 6.28027 5.39453 6.09375 5.625 6.09375L9.16699 6.09375C9.39648 6.09375 9.58301 6.28027 9.58301 6.51038C9.58301 6.74048 9.39648 6.92712 9.16699 6.92712L5.625 6.92712C5.39453 6.92712 5.20801 6.74048 5.20801 6.51038ZM14.792 15.8854C14.792 16.1155 14.6055 16.3021 14.375 16.3021L5.625 16.3021C5.39453 16.3021 5.20801 16.1155 5.20801 15.8854C5.20801 15.6553 5.39453 15.4688 5.625 15.4688L14.375 15.4688C14.6055 15.4688 14.792 15.6553 14.792 15.8854ZM14.792 20.2604C14.792 20.4905 14.6055 20.6771 14.375 20.6771L5.625 20.6771C5.39453 20.6771 5.20801 20.4905 5.20801 20.2604C5.20801 20.0303 5.39453 19.8438 5.625 19.8438L14.375 19.8438C14.6055 19.8438 14.792 20.0303 14.792 20.2604Z" fill="#437FC8" fill-opacity="1.000000" fill-rule="nonzero"/>
	</g>
</svg>
