<svg width="25.000000" height="25.000000" viewBox="0 0 25 25" fill="none" xmlns="http://www.w3.org/2000/svg" xmlns:xlink="http://www.w3.org/1999/xlink">
	<desc>
			Created with Pixso.
	</desc>
	<defs>
		<clipPath id="clip31_12">
			<rect id="call (3) 1" width="25.000000" height="25.000000" fill="white" fill-opacity="0"/>
		</clipPath>
	</defs>
	<rect id="call (3) 1" width="25.000000" height="25.000000" fill="#FFFFFF" fill-opacity="0"/>
	<g clip-path="url(#clip31_12)">
		<path id="Vector" d="M24.3438 19.2861L19.2842 15.9119C18.6416 15.4871 17.7812 15.6267 17.3066 16.2329L15.832 18.1282C15.6426 18.3779 15.2988 18.4502 15.0244 18.2981L14.7441 18.1436C13.8145 17.637 12.6582 17.0061 10.3281 14.6753C7.99805 12.3442 7.36621 11.187 6.85938 10.2593L6.70605 9.979C6.55176 9.70483 6.62207 9.35913 6.87207 9.16821L8.7666 7.69458C9.37207 7.21997 9.51172 6.35938 9.08789 5.71704L5.71289 0.656982C5.27832 0.00292969 4.40625 -0.193604 3.73242 0.211182L1.61719 1.48218C0.952148 1.87305 0.463867 2.5061 0.255859 3.24854C-0.505859 6.0249 0.0673828 10.8162 7.125 17.8752C12.7402 23.4893 16.9199 24.999 19.793 24.999C20.4541 25.002 21.1123 24.916 21.751 24.7434C22.4932 24.5352 23.126 24.0474 23.5166 23.3823L24.7891 21.2676C25.1943 20.5942 24.998 19.7214 24.3438 19.2861ZM24.0713 20.8401L22.8018 22.9561C22.5215 23.436 22.0664 23.7891 21.5312 23.9409C18.9688 24.6445 14.4912 24.0618 7.71484 17.2856C0.938477 10.5095 0.355469 6.03247 1.05957 3.46899C1.21191 2.93359 1.56543 2.47754 2.0459 2.19678L4.16113 0.927246C4.4541 0.751465 4.83203 0.83667 5.02148 1.12061L6.85449 3.87256L8.39258 6.18018C8.57715 6.45874 8.5166 6.83228 8.25391 7.03857L6.35938 8.51196C5.7832 8.95288 5.61816 9.75024 5.97266 10.3833L6.12305 10.6567C6.65625 11.6333 7.31738 12.8479 9.73438 15.2644C12.1514 17.6807 13.3662 18.3425 14.3418 18.875L14.6152 19.0259C15.248 19.3806 16.0459 19.2161 16.4873 18.6396L17.96 16.7454C18.167 16.4827 18.54 16.4221 18.8184 16.6062L23.8779 19.9807C24.1621 20.1692 24.2471 20.5481 24.0713 20.8401Z" fill="#437FC8" fill-opacity="1.000000" fill-rule="nonzero"/>
		<path id="Vector" d="M14.166 4.1687C18.0752 4.17285 21.2432 7.34131 21.248 11.251C21.248 11.481 21.4346 11.6675 21.6641 11.6675C21.8945 11.6675 22.0811 11.481 22.0811 11.251C22.0762 6.88135 18.5352 3.34033 14.166 3.33545C13.9355 3.33545 13.749 3.52197 13.749 3.75195C13.749 3.98218 13.9355 4.1687 14.166 4.1687Z" fill="#437FC8" fill-opacity="1.000000" fill-rule="nonzero"/>
		<path id="Vector" d="M14.166 6.66846C16.6953 6.67139 18.7451 8.72144 18.748 11.251C18.748 11.4812 18.9346 11.6677 19.165 11.6677C19.3945 11.6677 19.5811 11.4812 19.5811 11.251C19.5781 8.26147 17.1553 5.83862 14.166 5.83521C13.9355 5.83521 13.749 6.02173 13.749 6.25171C13.749 6.48193 13.9355 6.66846 14.166 6.66846Z" fill="#437FC8" fill-opacity="1.000000" fill-rule="nonzero"/>
		<path id="Vector" d="M14.166 9.16821C15.3154 9.16943 16.2471 10.1013 16.249 11.2512C16.249 11.4812 16.4355 11.6677 16.665 11.6677C16.8955 11.6677 17.082 11.4812 17.082 11.2512C17.0801 9.64136 15.7754 8.33667 14.166 8.33496C13.9355 8.33496 13.749 8.52148 13.749 8.75146C13.749 8.98169 13.9355 9.16821 14.166 9.16821Z" fill="#437FC8" fill-opacity="1.000000" fill-rule="nonzero"/>
	</g>
</svg>
