<svg width="18.000000" height="19.000000" viewBox="0 0 18 19" fill="none" xmlns="http://www.w3.org/2000/svg" xmlns:xlink="http://www.w3.org/1999/xlink">
	<desc>
			Created with Pixso.
	</desc>
	<defs>
		<clipPath id="clip31_35">
			<rect id="telegram (3) 1" width="18.000000" height="19.000000" fill="white" fill-opacity="0"/>
		</clipPath>
	</defs>
	<rect id="telegram (3) 1" width="18.000000" height="19.000000" fill="#FFFFFF" fill-opacity="0"/>
	<g clip-path="url(#clip31_35)">
		<path id="Vector" d="M17.7217 1.88745C17.502 1.60352 17.1729 1.44727 16.7949 1.44727C16.5889 1.44727 16.3711 1.49292 16.1475 1.58325L0.911133 7.72266C0.102539 8.04834 -0.00683594 8.53711 0 8.79956C0.00683594 9.06201 0.142578 9.54346 0.966797 9.82056C0.97168 9.82202 0.976562 9.82373 0.981445 9.8252L4.14258 10.7798L5.85156 15.939C6.08496 16.6423 6.60742 17.0791 7.2168 17.0791C7.60059 17.0791 7.97852 16.9092 8.30957 16.5881L10.2646 14.688L13.0996 17.0979C13.1006 17.0984 13.1006 17.0984 13.1006 17.0986L13.1279 17.1216C13.1299 17.1235 13.1328 17.1257 13.1357 17.1279C13.4502 17.386 13.7949 17.5222 14.1309 17.5222L14.1309 17.5222C14.7871 17.5222 15.3096 17.0093 15.4619 16.2156L17.959 3.20337C18.0586 2.68115 17.9746 2.21387 17.7217 1.88745ZM5.2002 10.5984L11.2969 7.3103L7.50098 11.5688C7.43848 11.6387 7.39453 11.7239 7.37207 11.8169L6.64062 14.947L5.2002 10.5984ZM7.59473 15.769C7.56934 15.7935 7.54395 15.8154 7.51855 15.8354L8.19824 12.9316L9.43359 13.9819L7.59473 15.769ZM16.9248 2.98242L14.4287 15.9946C14.4043 16.1191 14.3281 16.4089 14.1309 16.4089C14.0332 16.4089 13.9102 16.3528 13.7852 16.251L10.5723 13.52C10.5713 13.5198 10.5713 13.5193 10.5703 13.519L8.65918 11.894L14.1494 5.73584C14.3252 5.53857 14.3408 5.23657 14.1875 5.02002C14.0332 4.80347 13.7539 4.73535 13.5254 4.85864L4.49512 9.72827L1.29199 8.76074L16.5234 2.62329C16.6523 2.57153 16.7422 2.56055 16.7949 2.56055C16.8271 2.56055 16.8848 2.5647 16.9053 2.59229C16.9336 2.62842 16.9697 2.75146 16.9248 2.98242Z" fill="#437FC8" fill-opacity="1.000000" fill-rule="nonzero"/>
	</g>
</svg>
