<svg width="25.000000" height="25.000000" viewBox="0 0 25 25" fill="none" xmlns="http://www.w3.org/2000/svg" xmlns:xlink="http://www.w3.org/1999/xlink">
	<desc>
			Created with Pixso.
	</desc>
	<defs>
		<clipPath id="clip31_83">
			<rect id="mail (1) 1" width="25.000000" height="25.000000" fill="white" fill-opacity="0"/>
		</clipPath>
	</defs>
	<rect id="mail (1) 1" width="25.000000" height="25.000000" fill="#FFFFFF" fill-opacity="0"/>
	<g clip-path="url(#clip31_83)">
		<path id="Vector" d="M23.7178 4.1665L1.28223 4.1665C0.577148 4.1665 0 4.74341 0 5.44849L0 19.551C0 20.2561 0.577148 20.8333 1.28223 20.8333L23.7178 20.8333C24.4229 20.8333 25 20.2563 25 19.551L25 5.44849C25 4.74341 24.4229 4.1665 23.7178 4.1665ZM23.2363 5.12793L13.2373 12.6282C13.0576 12.7649 12.7812 12.8506 12.5 12.8491C12.2178 12.8506 11.9424 12.7649 11.7627 12.6282L1.7627 5.12793L23.2363 5.12793ZM17.8955 13.123L23.3438 19.8538C23.3496 19.8606 23.3564 19.8657 23.3623 19.8718L1.6377 19.8718C1.64355 19.8652 1.65039 19.8606 1.65625 19.8538L7.10449 13.123C7.27148 12.9165 7.24023 12.614 7.0332 12.4465C6.82617 12.2798 6.52441 12.3113 6.35742 12.5178L0.961914 19.1829L0.961914 5.729L11.1855 13.3972C11.5703 13.6833 12.0381 13.8093 12.5 13.8108C12.9609 13.8098 13.4297 13.6838 13.8145 13.3972L24.0381 5.729L24.0381 19.1829L18.6426 12.5178C18.4756 12.3113 18.1729 12.2795 17.9668 12.4465C17.7598 12.6135 17.7285 12.9165 17.8955 13.123Z" fill="#437FC8" fill-opacity="1.000000" fill-rule="nonzero"/>
	</g>
</svg>
