<svg width="19.000000" height="19.000000" viewBox="0 0 19 19" fill="none" xmlns="http://www.w3.org/2000/svg" xmlns:xlink="http://www.w3.org/1999/xlink">
	<desc>
			Created with Pixso.
	</desc>
	<defs>
		<clipPath id="clip31_37">
			<rect id="viber (1) 1" width="19.000000" height="19.000000" fill="white" fill-opacity="0"/>
		</clipPath>
	</defs>
	<rect id="viber (1) 1" width="19.000000" height="19.000000" fill="#FFFFFF" fill-opacity="0"/>
	<g clip-path="url(#clip31_37)">
		<path id="Vector" d="M18.2012 6.70581C18.2021 4.92139 17.502 3.2395 16.2324 1.96948C14.9619 0.699463 13.2803 0 11.4961 0L7.52246 0C7.52246 0 7.52246 0 7.52246 0C5.73828 0 4.05566 0.699463 2.78613 1.96924C1.51562 3.2395 0.816406 4.92139 0.816406 6.70581L0.816406 9.8291C0.816406 11.2112 1.23828 12.5405 2.03516 13.6736C2.73926 14.6733 3.68555 15.4541 4.78906 15.9492L4.78906 17.7432C4.78906 18.6709 5.30762 19 5.75293 19C6.07031 19 6.38867 18.8433 6.69727 18.5339L8.69629 16.5352L11.4961 16.5352C13.2803 16.5352 14.9619 15.8357 16.2324 14.5659C17.502 13.2959 18.2021 11.6135 18.2021 9.8291L18.2012 6.70581ZM11.4961 15.4219L8.46582 15.4219C8.31836 15.4219 8.17676 15.4805 8.07227 15.585L5.91016 17.7466C5.9082 17.7495 5.90527 17.7524 5.90234 17.7551C5.90234 17.7512 5.90234 17.7471 5.90234 17.7432L5.90234 15.5776C5.90234 15.3467 5.75977 15.1399 5.54395 15.0576C3.38184 14.2327 1.92969 12.1316 1.92969 9.8291L1.92969 6.70581C1.92969 5.21875 2.51367 3.81616 3.57324 2.75635C4.63281 1.69678 6.03516 1.11328 7.52246 1.11328L11.4961 1.11328C12.9824 1.11328 14.3857 1.69678 15.4453 2.75659C16.5049 3.81641 17.0889 5.21899 17.0879 6.70581L17.0889 9.8291C17.0879 12.9131 14.5791 15.4219 11.4961 15.4219Z" fill="#437FC8" fill-opacity="1.000000" fill-rule="nonzero"/>
		<path id="Vector" d="M10.9893 9.10425C10.7715 8.88696 10.4189 8.88696 10.2021 9.10425L9.75195 9.55371L8.00977 7.81152L8.45996 7.36206C8.56348 7.25757 8.62305 7.11597 8.62305 6.96826C8.62305 6.8208 8.56348 6.6792 8.45996 6.57471L6.35156 4.4668C6.24707 4.3623 6.10547 4.30371 5.95801 4.30371C5.81055 4.30371 5.66895 4.3623 5.56445 4.4668L4.08887 5.94238C3.29102 6.74048 3.29102 8.03906 4.08887 8.83765L8.72656 13.4753C9.1123 13.8606 9.62598 14.073 10.1738 14.073C10.7217 14.073 11.2363 13.8606 11.6211 13.4753L13.0967 11.9998C13.2012 11.8953 13.2598 11.7537 13.2598 11.606C13.2598 11.4585 13.2012 11.3169 13.0967 11.2124L10.9893 9.10425ZM10.834 12.6877C10.6592 12.863 10.4248 12.9597 10.1738 12.9597C9.92285 12.9597 9.68848 12.863 9.51367 12.6877L4.87598 8.05029C4.51172 7.68628 4.51172 7.09351 4.87598 6.72949L5.95801 5.64746L7.27832 6.96826L6.8291 7.41797C6.72461 7.52222 6.66602 7.66382 6.66602 7.81152C6.66602 7.95923 6.72461 8.10059 6.8291 8.20508L9.3584 10.7346C9.57617 10.9519 9.92871 10.9521 10.1455 10.7346L10.5957 10.2852L11.916 11.606L10.834 12.6877Z" fill="#437FC8" fill-opacity="1.000000" fill-rule="nonzero"/>
		<path id="Vector" d="M9.64453 2.4624C9.33691 2.4624 9.08789 2.71167 9.08789 3.01904C9.08789 3.32642 9.33691 3.57568 9.64453 3.57568C10.918 3.57568 12.1162 4.07178 13.0166 4.97266C13.918 5.87354 14.4141 7.07104 14.4141 8.34521C14.4141 8.65234 14.6631 8.90186 14.9707 8.90186C15.2783 8.90186 15.5273 8.65259 15.5273 8.34521C15.5273 6.77368 14.915 5.29639 13.8047 4.1853C12.6934 3.07422 11.2158 2.4624 9.64453 2.4624Z" fill="#437FC8" fill-opacity="1.000000" fill-rule="nonzero"/>
		<path id="Vector" d="M12.0293 8.34497C12.0293 8.6521 12.2783 8.90161 12.5859 8.90161C12.8936 8.90161 13.1426 8.6521 13.1426 8.34497C13.1426 6.41626 11.5732 4.84717 9.64453 4.84717C9.33691 4.84717 9.08789 5.09644 9.08789 5.40381C9.08789 5.71118 9.33691 5.96045 9.64453 5.96045C10.959 5.96045 12.0293 7.03003 12.0293 8.34497Z" fill="#437FC8" fill-opacity="1.000000" fill-rule="nonzero"/>
	</g>
</svg>
