<svg width="45.000000" height="45.000000" viewBox="0 0 45 45" fill="none" xmlns="http://www.w3.org/2000/svg" xmlns:xlink="http://www.w3.org/1999/xlink">
	<desc>
			Created with Pixso.
	</desc>
	<defs>
		<clipPath id="clip1_577">
			<rect id="settings (1) 1" width="45.000000" height="45.000000" transform="translate(-0.331909 -0.858887)" fill="white" fill-opacity="0"/>
		</clipPath>
	</defs>
	<rect id="settings (1) 1" width="45.000000" height="45.000000" transform="translate(-0.331909 -0.858887)" fill="#FFFFFF" fill-opacity="0"/>
	<g clip-path="url(#clip1_577)">
		<path id="Vector" d="M38.24 35.32C36.96 35.32 35.92 36.37 35.92 37.65C35.92 38.93 36.96 39.98 38.24 39.98C39.53 39.98 40.57 38.93 40.57 37.65C40.57 36.37 39.53 35.32 38.24 35.32ZM38.24 38.6C37.72 38.6 37.3 38.17 37.3 37.65C37.3 37.13 37.72 36.7 38.24 36.7C38.77 36.7 39.19 37.13 39.19 37.65C39.19 38.17 38.77 38.6 38.24 38.6Z" fill="#437FC8" fill-opacity="1.000000" fill-rule="nonzero"/>
		<path id="Vector" d="M44.51 37.53C44.47 35.82 43.75 34.26 42.48 33.12L28.6 20.6L40.88 8.32C40.96 8.3 41.04 8.27 41.11 8.23L43.77 6.82C44.14 6.63 44.38 6.28 44.45 5.87C44.51 5.46 44.38 5.06 44.08 4.76L41.09 1.77C40.8 1.48 40.39 1.34 39.98 1.41C39.57 1.47 39.22 1.71 39.03 2.08L37.63 4.74C37.59 4.82 37.55 4.9 37.53 4.98L31.74 10.77C31.47 11.04 31.47 11.48 31.74 11.75C32.01 12.02 32.44 12.02 32.71 11.75L38.03 6.43L39.42 7.82L25.82 21.42L24.43 20.03L30.37 14.09C30.64 13.82 30.64 13.39 30.37 13.12C30.1 12.85 29.66 12.85 29.39 13.12L25.08 17.42L20.4 13.2C21.73 9.37 20.76 5.12 17.88 2.23C14.93 -0.72 10.5 -1.66 6.6 -0.16C6.38 -0.08 6.22 0.11 6.17 0.34C6.12 0.57 6.19 0.8 6.36 0.97L11.77 6.38C11.93 6.54 12.02 6.76 12.02 6.98C12.02 7.21 11.93 7.42 11.77 7.58L8.26 11.1C8.1 11.26 7.88 11.35 7.66 11.35C7.43 11.35 7.22 11.26 7.06 11.1L1.64 5.68C1.48 5.52 1.24 5.45 1.01 5.5C0.78 5.55 0.6 5.71 0.51 5.92C-0.98 9.83 -0.04 14.26 2.91 17.21C5.72 20.02 9.89 21.01 13.66 19.79L17.28 23.76C17.11 24.1 16.88 24.41 16.6 24.69C15.56 25.74 13.99 26.07 12.61 25.53C12.36 25.43 12.07 25.49 11.88 25.69L3.43 34.13C1.15 36.41 1.15 40.13 3.43 42.42C4.54 43.53 6.01 44.14 7.58 44.14C9.14 44.14 10.62 43.53 11.72 42.42L20.17 33.98C20.36 33.78 20.42 33.49 20.32 33.24C19.79 31.86 20.12 30.3 21.16 29.25C22.2 28.21 23.77 27.88 25.15 28.41C25.4 28.51 25.69 28.45 25.89 28.26L27.48 26.66C27.96 26.19 28.22 25.55 28.22 24.87C28.22 24.19 27.96 23.55 27.48 23.07L26.8 22.4L27.62 21.57L41.56 34.14C42.54 35.03 43.1 36.24 43.14 37.56C43.17 38.89 42.67 40.13 41.74 41.06C40.81 41.99 39.57 42.49 38.25 42.46C36.94 42.43 35.72 41.88 34.84 40.91L24.48 29.58C24.22 29.3 23.78 29.28 23.5 29.54C23.22 29.79 23.2 30.23 23.46 30.51L33.82 41.84C34.96 43.09 36.53 43.8 38.22 43.84C38.27 43.84 38.32 43.84 38.37 43.84C40.01 43.84 41.55 43.2 42.71 42.04C43.92 40.83 44.56 39.23 44.51 37.53ZM38.88 5.33L40.2 2.83L43.03 5.66L40.52 6.98L38.88 5.33ZM14.37 18.53C14.18 18.32 13.88 18.25 13.62 18.35C10.25 19.61 6.43 18.78 3.88 16.23C1.58 13.93 0.68 10.58 1.47 7.46L6.08 12.07C6.5 12.49 7.06 12.73 7.66 12.73C8.25 12.73 8.81 12.49 9.23 12.07L12.75 8.56C13.17 8.14 13.4 7.58 13.4 6.98C13.4 6.39 13.17 5.83 12.75 5.41L8.13 0.8C11.25 0.01 14.6 0.9 16.91 3.21C19.51 5.82 20.32 9.71 18.95 13.14C18.84 13.41 18.91 13.71 19.13 13.91L24.11 18.4L23.46 19.05L22.78 18.37C22.3 17.9 21.66 17.63 20.98 17.63C20.31 17.63 19.67 17.9 19.19 18.37L17.6 19.97C17.4 20.16 17.34 20.45 17.44 20.7C17.62 21.18 17.7 21.67 17.69 22.16L14.37 18.53ZM26.5 25.69L25.21 26.98C23.44 26.47 21.51 26.95 20.18 28.28L20.18 28.28C18.86 29.6 18.38 31.53 18.89 33.3L10.75 41.44C9.9 42.29 8.78 42.76 7.58 42.76C6.38 42.76 5.26 42.29 4.41 41.44C2.66 39.7 2.66 36.85 4.41 35.1L12.55 26.96C14.32 27.48 16.25 26.99 17.58 25.67C18.9 24.35 19.38 22.42 18.87 20.64L20.16 19.35C20.62 18.9 21.35 18.9 21.8 19.35L22.97 20.52L25.34 22.88L26.5 24.05C26.95 24.5 26.95 25.24 26.5 25.69Z" fill="#437FC8" fill-opacity="1.000000" fill-rule="nonzero"/>
		<path id="Vector" d="M13.93 29.57C13.66 29.3 13.22 29.3 12.95 29.57L6.42 36.1C6.15 36.37 6.15 36.81 6.42 37.08C6.56 37.21 6.73 37.28 6.91 37.28C7.09 37.28 7.26 37.21 7.4 37.08L13.93 30.54C14.2 30.27 14.2 29.84 13.93 29.57Z" fill="#437FC8" fill-opacity="1.000000" fill-rule="nonzero"/>
		<path id="Vector" d="M16.34 31.98C16.07 31.71 15.64 31.71 15.37 31.98L8.84 38.51C8.57 38.78 8.57 39.22 8.84 39.49C8.97 39.62 9.15 39.69 9.32 39.69C9.5 39.69 9.68 39.62 9.81 39.49L16.34 32.96C16.61 32.69 16.61 32.25 16.34 31.98Z" fill="#437FC8" fill-opacity="1.000000" fill-rule="nonzero"/>
	</g>
</svg>
