<svg width="50.000000" height="50.000000" viewBox="0 0 50 50" fill="none" xmlns="http://www.w3.org/2000/svg" xmlns:xlink="http://www.w3.org/1999/xlink">
	<desc>
			Created with Pixso.
	</desc>
	<defs>
		<clipPath id="clip1_602">
			<rect id="medal (3) 1" width="50.000000" height="50.000000" transform="translate(0.000000 -0.859375)" fill="white" fill-opacity="0"/>
		</clipPath>
	</defs>
	<rect id="medal (3) 1" width="50.000000" height="50.000000" transform="translate(0.000000 -0.859375)" fill="#FFFFFF" fill-opacity="0"/>
	<g clip-path="url(#clip1_602)">
		<path id="Vector" d="M43.64 20.52L42.58 18.18C42.52 18.05 42.52 17.9 42.58 17.77L43.64 15.43C43.99 14.66 43.81 13.76 43.2 13.18L41.32 11.43C41.22 11.33 41.16 11.19 41.16 11.05L41.25 8.48C41.28 7.64 40.77 6.87 39.98 6.58L37.57 5.67C37.44 5.62 37.33 5.52 37.28 5.38L36.38 2.98C36.08 2.19 35.31 1.68 34.47 1.71L31.91 1.79C31.76 1.8 31.63 1.74 31.53 1.63L29.78 -0.24C29.2 -0.86 28.3 -1.04 27.53 -0.69L25.19 0.37C25.06 0.43 24.91 0.43 24.78 0.37L22.44 -0.69C21.67 -1.04 20.77 -0.86 20.19 -0.24L18.44 1.63C18.34 1.74 18.2 1.8 18.06 1.79L15.49 1.71C14.65 1.68 13.88 2.19 13.59 2.98L12.69 5.38C12.63 5.52 12.53 5.62 12.39 5.67L9.99 6.58C9.2 6.87 8.69 7.64 8.72 8.48L8.8 11.05C8.81 11.19 8.75 11.33 8.65 11.43L6.77 13.18C6.15 13.76 5.97 14.66 6.32 15.43L7.38 17.77C7.44 17.9 7.44 18.05 7.38 18.18L6.32 20.52C5.97 21.28 6.15 22.19 6.77 22.76L8.65 24.52C8.75 24.61 8.81 24.75 8.8 24.9L8.72 27.46C8.69 28.31 9.2 29.07 9.99 29.37L12.39 30.27C12.53 30.32 12.63 30.43 12.69 30.56L13.59 32.96C13.62 33.04 13.65 33.12 13.69 33.19L7.66 42.48C7.37 42.93 7.37 43.49 7.66 43.94C7.95 44.39 8.45 44.63 8.99 44.55L13.89 43.87C13.96 43.86 14.02 43.89 14.06 43.95L16.86 48.49C17.11 48.89 17.53 49.13 18 49.14C18 49.14 18.01 49.14 18.01 49.14C18.47 49.14 18.9 48.91 19.15 48.52L27.01 36.4L27.53 36.63C28.3 36.98 29.2 36.8 29.78 36.18L31.53 34.31C31.63 34.21 31.77 34.15 31.91 34.15L34.47 34.24C35.32 34.27 36.08 33.76 36.38 32.96L37.28 30.56C37.33 30.43 37.44 30.32 37.57 30.27L39.98 29.37C40.77 29.07 41.28 28.31 41.25 27.46L41.16 24.9C41.16 24.75 41.22 24.61 41.32 24.52L43.2 22.76C43.81 22.19 43.99 21.28 43.64 20.52ZM18.02 47.57L15.3 43.18C14.96 42.63 14.33 42.33 13.69 42.42L9.03 43.07L14.82 34.14C15.03 34.21 15.26 34.25 15.49 34.24L18.06 34.15C18.2 34.15 18.34 34.21 18.44 34.31L20.19 36.18C20.57 36.59 21.1 36.81 21.63 36.81C21.9 36.81 22.18 36.75 22.44 36.63L24.78 35.57C24.91 35.51 25.06 35.51 25.19 35.57L25.66 35.79L18.02 47.57ZM42.2 21.69L40.32 23.45C39.91 23.83 39.68 24.38 39.7 24.95L39.79 27.51C39.79 27.73 39.66 27.92 39.46 28L37.06 28.9C36.53 29.1 36.11 29.52 35.91 30.05L35.01 32.45C34.93 32.65 34.74 32.78 34.52 32.77L31.96 32.69C31.39 32.67 30.84 32.9 30.46 33.31L28.71 35.18C28.56 35.34 28.33 35.39 28.13 35.3L25.8 34.24C25.28 34 24.69 34 24.17 34.24L21.84 35.3C21.64 35.39 21.41 35.34 21.26 35.18L19.51 33.31C19.14 32.91 18.62 32.69 18.07 32.69C18.05 32.69 18.03 32.69 18.01 32.69L15.44 32.78C15.23 32.78 15.03 32.65 14.96 32.45L14.06 30.05C13.86 29.52 13.44 29.1 12.91 28.9L10.51 28C10.3 27.92 10.17 27.73 10.18 27.51L10.27 24.95C10.29 24.38 10.06 23.83 9.65 23.45L7.77 21.69C7.61 21.55 7.57 21.32 7.66 21.12L8.72 18.79C8.95 18.27 8.95 17.68 8.72 17.16L7.66 14.82C7.57 14.63 7.61 14.4 7.77 14.25L9.65 12.5C10.06 12.11 10.29 11.56 10.27 11L10.18 8.43C10.17 8.22 10.3 8.02 10.51 7.95L12.91 7.05C13.44 6.85 13.86 6.43 14.06 5.9L14.96 3.49C15.03 3.29 15.23 3.16 15.44 3.17L18.01 3.26C18.58 3.28 19.12 3.05 19.51 2.63L21.26 0.76C21.41 0.6 21.64 0.56 21.84 0.65L24.17 1.71C24.69 1.94 25.28 1.94 25.8 1.71L28.13 0.65C28.33 0.56 28.56 0.6 28.71 0.76L30.46 2.63C30.84 3.05 31.39 3.28 31.96 3.26L34.52 3.17C34.74 3.16 34.93 3.29 35.01 3.49L35.91 5.9C36.11 6.43 36.53 6.85 37.06 7.05L39.46 7.95C39.66 8.02 39.79 8.22 39.79 8.43L39.7 11C39.68 11.56 39.91 12.11 40.32 12.5L42.2 14.25C42.35 14.4 42.4 14.63 42.31 14.82L41.25 17.16C41.01 17.68 41.01 18.27 41.25 18.79L42.31 21.12C42.4 21.32 42.35 21.55 42.2 21.69Z" fill="#437FC8" fill-opacity="1.000000" fill-rule="nonzero"/>
		<path id="Vector" d="M37.63 18.72C37.23 18.67 36.87 18.96 36.82 19.36C36.13 25.36 31.04 29.89 24.98 29.89C18.93 29.89 13.84 25.36 13.14 19.36C13.1 18.95 12.74 18.67 12.33 18.71C11.93 18.76 11.64 19.12 11.69 19.52C12.47 26.27 18.18 31.36 24.98 31.36C31.78 31.36 37.5 26.27 38.28 19.53C38.32 19.13 38.04 18.77 37.63 18.72Z" fill="#437FC8" fill-opacity="1.000000" fill-rule="nonzero"/>
		<path id="Vector" d="M24.98 4.59C18.18 4.59 12.47 9.68 11.69 16.42C11.64 16.83 11.93 17.19 12.33 17.24C12.36 17.24 12.39 17.24 12.42 17.24C12.78 17.24 13.1 16.97 13.14 16.59C13.84 10.58 18.93 6.05 24.98 6.05C31.04 6.05 36.13 10.58 36.82 16.59C36.87 16.99 37.23 17.28 37.64 17.23C38.04 17.19 38.33 16.82 38.28 16.42C37.5 9.68 31.78 4.59 24.98 4.59Z" fill="#437FC8" fill-opacity="1.000000" fill-rule="nonzero"/>
		<path id="Vector" d="M37.59 35.21C37.37 34.87 36.91 34.77 36.57 34.99C36.23 35.21 36.14 35.66 36.36 36L40.94 43.07L36.28 42.42C35.64 42.33 35 42.63 34.67 43.18L31.95 47.57L27.2 40.25C26.98 39.91 26.53 39.82 26.19 40.04C25.85 40.26 25.75 40.71 25.97 41.05L30.82 48.52C31.07 48.91 31.49 49.14 31.95 49.14L31.97 49.14C32.44 49.13 32.86 48.89 33.11 48.49L35.91 43.95C35.95 43.89 36.01 43.86 36.08 43.87L40.98 44.55C41.51 44.63 42.02 44.39 42.31 43.94C42.6 43.49 42.6 42.93 42.3 42.48L37.59 35.21Z" fill="#437FC8" fill-opacity="1.000000" fill-rule="nonzero"/>
	</g>
</svg>
