<svg width="50.000000" height="50.000000" viewBox="0 0 50 50" fill="none" xmlns="http://www.w3.org/2000/svg" xmlns:xlink="http://www.w3.org/1999/xlink">
	<desc>
			Created with Pixso.
	</desc>
	<defs>
		<clipPath id="clip1_572">
			<rect id="exchange 1" width="50.000000" height="50.000000" transform="matrix(-1 0 0 1 49.6664 -0.859375)" fill="white" fill-opacity="0"/>
		</clipPath>
	</defs>
	<rect id="exchange 1" width="50.000000" height="50.000000" transform="matrix(-1 0 0 1 49.6664 -0.859375)" fill="#FFFFFF" fill-opacity="0"/>
	<g clip-path="url(#clip1_572)">
		<path id="Vector" d="M24.32 46.53L23.13 47.71C22.61 48.24 22.99 49.14 23.72 49.14C23.94 49.14 24.15 49.05 24.31 48.89L26.92 46.29C27.24 45.96 27.24 45.43 26.92 45.11L24.31 42.51C23.99 42.18 23.46 42.18 23.13 42.51C22.81 42.83 22.81 43.36 23.13 43.68L24.31 44.86C13.04 44.67 3.93 35.45 3.93 24.14C3.93 19.46 5.45 15.05 8.32 11.38C8.61 11.01 8.54 10.49 8.18 10.21C7.82 9.92 7.3 9.99 7.01 10.35C3.91 14.32 2.27 19.09 2.27 24.14C2.27 36.4 12.1 46.35 24.32 46.53ZM9.74 9.41C8.99 9.41 8.62 8.49 9.16 7.97C9.54 7.61 10.06 7.66 10.36 7.98C10.89 8.53 10.45 9.41 9.74 9.41ZM29.24 29.03L31.74 29.03C32.21 29.03 32.58 29.4 32.58 29.87C32.58 30.33 32.21 30.7 31.74 30.7L29.24 30.7C28.78 30.7 28.41 30.33 28.41 29.87C28.41 29.4 28.78 29.03 29.24 29.03ZM15.39 35.07C15.39 34.61 15.76 34.24 16.22 34.24L33.1 34.24C34.02 34.24 34.77 33.49 34.77 32.57L34.77 15.7C34.77 14.78 34.02 14.03 33.1 14.03L28.83 14.03L28.83 19.87C28.83 20.49 28.16 20.9 27.6 20.6L24.66 19.04L21.72 20.6C21.16 20.9 20.49 20.49 20.49 19.87L20.49 16.95C20.49 16.49 20.87 16.12 21.33 16.12C21.79 16.12 22.16 16.49 22.16 16.95L22.16 18.48L24.27 17.36C24.52 17.23 24.81 17.23 25.05 17.36L27.16 18.48L27.16 14.03L16.22 14.03C15.31 14.03 14.56 14.78 14.56 15.7L14.56 30.49C14.56 30.95 14.18 31.32 13.72 31.32C13.26 31.32 12.89 30.95 12.89 30.49L12.89 15.7C12.89 13.86 14.39 12.37 16.22 12.37L33.1 12.37C34.94 12.37 36.43 13.86 36.43 15.7L36.43 32.57C36.43 34.41 34.94 35.91 33.1 35.91L16.22 35.91C15.76 35.91 15.39 35.53 15.39 35.07ZM45.39 24.14C45.39 12.82 36.28 3.6 25.01 3.41L26.19 4.59C26.71 5.11 26.33 6.01 25.6 6.01C25.39 6.01 25.17 5.93 25.01 5.77L22.41 3.16C22.08 2.84 22.08 2.31 22.41 1.98L25.01 -0.62C25.34 -0.95 25.86 -0.95 26.19 -0.62C26.51 -0.29 26.51 0.23 26.19 0.56L25 1.74C37.22 1.93 47.06 11.86 47.06 24.14C47.06 29.19 45.42 33.95 42.31 37.92C42.03 38.29 41.5 38.35 41.14 38.07C40.78 37.78 40.72 37.26 41 36.9C43.87 33.22 45.39 28.81 45.39 24.14ZM40.19 39.12C40.49 39.44 40.52 39.96 40.14 40.32C39.81 40.64 39.28 40.63 38.97 40.3C38.65 39.96 38.66 39.44 38.99 39.12C39.37 38.75 39.89 38.81 40.19 39.12Z" fill="#437FC8" fill-opacity="1.000000" fill-rule="nonzero"/>
	</g>
</svg>
