<svg width="42.000000" height="42.000000" viewBox="0 0 42 42" fill="none" xmlns="http://www.w3.org/2000/svg" xmlns:xlink="http://www.w3.org/1999/xlink">
	<desc>
			Created with Pixso.
	</desc>
	<defs/>
	<path id="Vector" d="M37.93 12.55C37.98 12.07 37.92 11.59 37.77 11.14C37.61 10.69 37.35 10.28 37.01 9.94C36.68 9.61 36.27 9.35 35.82 9.19C35.37 9.03 34.89 8.98 34.41 9.03C34.42 8.91 34.43 8.8 34.43 8.68C34.43 7.84 34.09 7.03 33.5 6.43C32.9 5.83 32.09 5.49 31.24 5.49C31.13 5.49 31.01 5.5 30.89 5.51C30.97 4.86 30.83 4.19 30.51 3.62C30.19 3.04 29.7 2.58 29.1 2.29C28.51 2.01 27.84 1.91 27.19 2.02C26.54 2.13 25.94 2.44 25.47 2.91L23.07 5.32C22.71 4.84 22.32 4.39 21.9 3.97L19.08 1.15C18.02 0.09 16.58 -0.51 15.07 -0.51C13.57 -0.51 12.12 0.09 11.06 1.15C10.99 1.22 10.94 1.3 10.9 1.38C10.87 1.47 10.85 1.56 10.85 1.65C10.85 1.74 10.87 1.84 10.9 1.92C10.94 2.01 10.99 2.08 11.06 2.15L12.08 3.17C13.39 4.48 14.33 6.12 14.8 7.91C15.28 9.7 15.27 11.59 14.79 13.38C14.51 14.4 14.37 15.45 14.37 16.51L14.37 21.05L12.96 22.45L12.75 22.25C12.62 22.12 12.44 22.04 12.26 22.04C12.07 22.04 11.89 22.12 11.76 22.25L9.45 24.56L9.24 24.36C9.11 24.23 8.93 24.15 8.74 24.15C8.56 24.15 8.38 24.23 8.24 24.36L-0.19 32.79L0.8 33.79L8.74 25.85L20.4 37.51L17.39 40.53L18.38 41.52L21.9 38.01C21.96 37.94 22.01 37.87 22.05 37.78C22.08 37.69 22.1 37.6 22.1 37.51C22.1 37.42 22.08 37.33 22.05 37.24C22.01 37.16 21.96 37.08 21.9 37.01L20.99 36.1L23.3 33.79C23.37 33.72 23.42 33.65 23.45 33.56C23.49 33.48 23.51 33.38 23.51 33.29C23.51 33.2 23.49 33.11 23.45 33.02C23.42 32.94 23.37 32.86 23.3 32.79L21.69 31.18L23.1 29.78L28.43 29.78C28.52 29.78 28.61 29.76 28.7 29.72C28.78 29.69 28.86 29.64 28.93 29.57L35.96 22.54L35.93 22.51C36.06 22.41 36.19 22.31 36.31 22.19L40.53 17.97C41 17.5 41.31 16.9 41.42 16.25C41.53 15.6 41.43 14.93 41.15 14.33C40.86 13.74 40.4 13.25 39.82 12.93C39.24 12.61 38.58 12.47 37.93 12.55ZM34.76 10.42C35.11 10.42 35.45 10.52 35.75 10.72C36.04 10.91 36.27 11.19 36.41 11.52C36.54 11.84 36.58 12.2 36.51 12.55C36.44 12.89 36.27 13.21 36.02 13.46L31.8 17.68C31.47 18.01 31.01 18.2 30.54 18.2C30.07 18.2 29.61 18.01 29.28 17.68C28.94 17.34 28.76 16.89 28.76 16.42C28.76 15.94 28.94 15.49 29.28 15.16L33.5 10.94C33.66 10.77 33.86 10.64 34.08 10.55C34.29 10.46 34.52 10.42 34.76 10.42ZM32.5 7.42C32.84 7.76 33.02 8.21 33.02 8.68C33.02 9.16 32.84 9.61 32.5 9.94L28.28 14.16C27.95 14.5 27.5 14.68 27.02 14.68C26.55 14.68 26.1 14.5 25.76 14.16C25.43 13.83 25.24 13.37 25.24 12.9C25.24 12.43 25.43 11.98 25.76 11.64L29.98 7.42C30.32 7.09 30.77 6.9 31.24 6.9C31.71 6.9 32.17 7.09 32.5 7.42ZM26.47 3.91C26.8 3.57 27.25 3.38 27.73 3.38C28.2 3.38 28.65 3.57 28.99 3.91C29.32 4.24 29.51 4.69 29.51 5.17C29.51 5.64 29.32 6.09 28.99 6.43L24.77 10.65C24.6 10.81 24.41 10.94 24.19 11.03C23.97 11.12 23.74 11.17 23.51 11.17C23.27 11.17 23.04 11.12 22.83 11.03C22.61 10.94 22.41 10.81 22.25 10.65C22.08 10.48 21.95 10.28 21.86 10.07C21.77 9.85 21.72 9.62 21.72 9.39C21.72 9.15 21.77 8.92 21.86 8.7C21.95 8.49 22.08 8.29 22.25 8.13L26.47 3.91ZM19.99 35.11L10.44 25.56L12.26 23.74L21.81 33.29L19.99 35.11ZM28.14 28.37L22.8 28.37C22.71 28.37 22.62 28.39 22.54 28.42C22.45 28.46 22.37 28.51 22.31 28.58L20.7 30.19L13.96 23.45L15.57 21.84C15.63 21.77 15.68 21.69 15.72 21.61C15.76 21.52 15.77 21.43 15.77 21.34L15.77 16.51C15.77 15.58 15.9 14.65 16.14 13.75C16.69 11.72 16.7 9.58 16.16 7.55C15.62 5.52 14.56 3.66 13.07 2.17L12.59 1.69C13.41 1.11 14.42 0.83 15.42 0.91C16.43 1 17.37 1.44 18.09 2.15L20.9 4.96C21.32 5.38 21.71 5.84 22.06 6.32L21.25 7.13C20.78 7.6 20.47 8.2 20.36 8.85C20.25 9.5 20.34 10.17 20.63 10.76C20.92 11.36 21.38 11.85 21.96 12.17C22.53 12.49 23.2 12.63 23.85 12.55C23.84 12.67 23.83 12.79 23.83 12.9C23.83 13.43 23.96 13.94 24.21 14.41L24.21 14.96C24.21 16.45 23.92 17.92 23.36 19.29C22.79 20.66 21.95 21.9 20.9 22.95L21.9 23.95C24.09 21.76 25.41 18.84 25.59 15.75C26.04 15.98 26.53 16.09 27.02 16.09C27.14 16.09 27.26 16.08 27.37 16.07C27.32 16.55 27.37 17.03 27.53 17.48C27.69 17.93 27.95 18.34 28.28 18.67C28.62 19.01 29.03 19.27 29.48 19.43C29.93 19.58 30.41 19.64 30.89 19.59C30.8 20.38 31.01 21.18 31.49 21.82C31.96 22.47 32.66 22.91 33.45 23.06L28.14 28.37ZM39.53 16.97L35.32 21.19C34.98 21.53 34.53 21.72 34.05 21.72C33.58 21.72 33.13 21.53 32.79 21.19C32.46 20.86 32.27 20.41 32.27 19.93C32.27 19.46 32.46 19.01 32.79 18.67L37.01 14.45C37.35 14.12 37.8 13.93 38.27 13.93C38.75 13.93 39.2 14.12 39.53 14.45C39.87 14.79 40.06 15.24 40.06 15.71C40.06 16.19 39.87 16.64 39.53 16.97Z" fill="#437FC8" fill-opacity="1.000000" fill-rule="nonzero"/>
	<path id="Vector" d="M39.68 33.29C38.75 33.29 37.85 32.92 37.19 32.26C36.54 31.6 36.16 30.71 36.16 29.78C36.16 29.59 36.09 29.41 35.96 29.28C35.83 29.15 35.65 29.07 35.46 29.07C35.27 29.07 35.1 29.15 34.96 29.28C34.83 29.41 34.76 29.59 34.76 29.78C34.76 30.71 34.39 31.6 33.73 32.26C33.07 32.92 32.17 33.29 31.24 33.29C31.06 33.29 30.88 33.37 30.74 33.5C30.61 33.63 30.54 33.81 30.54 34C30.54 34.18 30.61 34.36 30.74 34.49C30.88 34.62 31.06 34.7 31.24 34.7C32.17 34.7 33.07 35.07 33.73 35.73C34.39 36.39 34.76 37.28 34.76 38.21C34.76 38.4 34.83 38.58 34.96 38.71C35.1 38.84 35.27 38.92 35.46 38.92C35.65 38.92 35.83 38.84 35.96 38.71C36.09 38.58 36.16 38.4 36.16 38.21C36.16 37.28 36.54 36.39 37.19 35.73C37.85 35.07 38.75 34.7 39.68 34.7C39.87 34.7 40.04 34.62 40.18 34.49C40.31 34.36 40.38 34.18 40.38 34C40.38 33.81 40.31 33.63 40.18 33.5C40.04 33.37 39.87 33.29 39.68 33.29ZM35.46 35.68C35.04 34.99 34.47 34.41 33.77 34C34.47 33.58 35.04 33 35.46 32.31C35.88 33 36.46 33.58 37.15 34C36.46 34.41 35.88 34.99 35.46 35.68Z" fill="#437FC8" fill-opacity="1.000000" fill-rule="nonzero"/>
	<path id="Vector" d="M41.09 3.06C40.34 3.06 39.63 2.76 39.1 2.23C38.57 1.71 38.27 0.99 38.27 0.25C38.27 0.06 38.2 -0.12 38.07 -0.25C37.94 -0.38 37.76 -0.46 37.57 -0.46C37.38 -0.46 37.2 -0.38 37.07 -0.25C36.94 -0.12 36.87 0.06 36.87 0.25C36.87 0.99 36.57 1.71 36.04 2.23C35.51 2.76 34.8 3.06 34.05 3.06C33.87 3.06 33.69 3.13 33.56 3.26C33.43 3.4 33.35 3.57 33.35 3.76C33.35 3.95 33.43 4.13 33.56 4.26C33.69 4.39 33.87 4.46 34.05 4.46C34.8 4.46 35.51 4.76 36.04 5.29C36.57 5.82 36.87 6.53 36.87 7.28C36.87 7.46 36.94 7.64 37.07 7.77C37.2 7.91 37.38 7.98 37.57 7.98C37.76 7.98 37.94 7.91 38.07 7.77C38.2 7.64 38.27 7.46 38.27 7.28C38.27 6.53 38.57 5.82 39.1 5.29C39.63 4.76 40.34 4.46 41.09 4.46C41.27 4.46 41.45 4.39 41.58 4.26C41.71 4.13 41.79 3.95 41.79 3.76C41.79 3.57 41.71 3.4 41.58 3.26C41.45 3.13 41.27 3.06 41.09 3.06ZM37.57 4.95C37.26 4.48 36.85 4.07 36.38 3.76C36.85 3.45 37.26 3.05 37.57 2.58C37.88 3.05 38.29 3.45 38.76 3.76C38.29 4.07 37.88 4.48 37.57 4.95Z" fill="#437FC8" fill-opacity="1.000000" fill-rule="nonzero"/>
	<path id="Vector" d="M3.82 17.12C3.82 17.31 3.89 17.49 4.03 17.62C4.16 17.75 4.34 17.82 4.52 17.82C4.71 17.82 4.89 17.75 5.02 17.62C5.15 17.49 5.23 17.31 5.23 17.12C5.23 16.19 5.6 15.29 6.26 14.64C6.92 13.98 7.81 13.61 8.74 13.6C8.93 13.6 9.11 13.53 9.24 13.4C9.37 13.27 9.44 13.09 9.44 12.9C9.44 12.72 9.37 12.54 9.24 12.4C9.11 12.27 8.93 12.2 8.74 12.2C7.81 12.2 6.92 11.83 6.26 11.17C5.6 10.51 5.23 9.62 5.23 8.68C5.23 8.5 5.15 8.32 5.02 8.19C4.89 8.05 4.71 7.98 4.52 7.98C4.34 7.98 4.16 8.05 4.03 8.19C3.89 8.32 3.82 8.5 3.82 8.68C3.82 9.62 3.45 10.51 2.79 11.17C2.13 11.83 1.24 12.2 0.3 12.2C0.12 12.2 -0.06 12.27 -0.19 12.4C-0.32 12.54 -0.4 12.72 -0.4 12.9C-0.4 13.09 -0.32 13.27 -0.19 13.4C-0.06 13.53 0.12 13.6 0.3 13.6C1.24 13.61 2.13 13.98 2.79 14.64C3.45 15.29 3.82 16.19 3.82 17.12ZM4.52 11.22C4.94 11.91 5.52 12.49 6.21 12.9C5.52 13.32 4.94 13.9 4.52 14.59C4.11 13.9 3.53 13.32 2.84 12.9C3.53 12.49 4.11 11.91 4.52 11.22Z" fill="#437FC8" fill-opacity="1.000000" fill-rule="nonzero"/>
</svg>
