<svg width="46" height="46" viewBox="0 0 46 46" fill="none" xmlns="http://www.w3.org/2000/svg">
<path d="M39.9305 14.5514C39.9832 14.077 39.9286 13.5969 39.7706 13.1465C39.6127 12.6961 39.3556 12.287 39.0182 11.9494C38.6808 11.6119 38.2718 11.3544 37.8215 11.1963C37.3712 11.0381 36.8911 10.9831 36.4168 11.0356C36.4294 10.9202 36.4358 10.8042 36.4359 10.6881C36.4359 9.84235 36.0999 9.03121 35.5019 8.43315C34.9038 7.83509 34.0927 7.4991 33.2469 7.4991C33.1308 7.49927 33.0149 7.50568 32.8995 7.51829C32.9716 6.86196 32.8382 6.19942 32.5175 5.62222C32.1968 5.04502 31.7049 4.58165 31.1095 4.29614C30.5141 4.01063 29.8448 3.91706 29.194 4.02837C28.5431 4.13969 27.9429 4.45038 27.4763 4.91753L25.0713 7.32251C24.7131 6.84552 24.3218 6.39431 23.9003 5.97221L21.0878 3.15971C20.0236 2.09545 18.5801 1.49756 17.075 1.49756C15.5699 1.49756 14.1265 2.09545 13.0622 3.15971C12.9969 3.225 12.9451 3.30251 12.9098 3.38781C12.8745 3.47312 12.8563 3.56455 12.8563 3.65689C12.8563 3.74922 12.8745 3.84065 12.9098 3.92596C12.9451 4.01127 12.9969 4.08878 13.0622 4.15406L14.0813 5.17318C15.3909 6.48605 16.331 8.12105 16.807 9.91326C17.2829 11.7055 17.2778 13.5915 16.7922 15.3811C16.5133 16.4039 16.3719 17.4593 16.3719 18.5194V23.0531L14.9656 24.4594L14.7597 24.2535C14.6278 24.1216 14.449 24.0475 14.2625 24.0475C14.076 24.0475 13.8972 24.1216 13.7653 24.2535L11.45 26.5688L11.2441 26.3628C11.1122 26.231 10.9334 26.1569 10.7469 26.1569C10.5604 26.1569 10.3816 26.231 10.2497 26.3628L1.81223 34.8003L2.80657 35.7947L10.7469 27.8544L22.4088 39.5163L19.3903 42.5347L20.3847 43.5291L23.9003 40.0134C23.9656 39.9482 24.0174 39.8706 24.0528 39.7853C24.0881 39.7 24.1063 39.6086 24.1063 39.5163C24.1063 39.4239 24.0881 39.3325 24.0528 39.2472C24.0174 39.1619 23.9656 39.0844 23.9003 39.0191L22.9912 38.11L25.3066 35.7947C25.3719 35.7294 25.4237 35.6519 25.459 35.5666C25.4943 35.4813 25.5125 35.3898 25.5125 35.2975C25.5125 35.2052 25.4943 35.1137 25.459 35.0284C25.4237 34.9431 25.3719 34.8656 25.3066 34.8003L23.6944 33.1881L25.1007 31.7819H30.4344C30.5267 31.7819 30.6182 31.7637 30.7035 31.7284C30.7888 31.693 30.8663 31.6412 30.9316 31.5759L37.9628 24.5447L37.9352 24.5171C38.0699 24.4192 38.1966 24.3108 38.3144 24.1931L42.5331 19.9744C43.0004 19.5076 43.3111 18.9073 43.4224 18.2562C43.5336 17.6052 43.4399 16.9358 43.1541 16.3403C42.8684 15.7449 42.4047 15.253 41.8272 14.9325C41.2497 14.612 40.587 14.4788 39.9305 14.5514ZM36.7625 12.4218C37.1151 12.4216 37.4599 12.5259 37.7532 12.7217C38.0464 12.9175 38.275 13.1959 38.41 13.5217C38.5449 13.8474 38.5802 14.2059 38.5114 14.5517C38.4425 14.8976 38.2726 15.2152 38.0232 15.4644L33.8044 19.6832C33.4701 20.0175 33.0166 20.2053 32.5438 20.2053C32.0709 20.2053 31.6175 20.0175 31.2831 19.6832C30.9488 19.3488 30.761 18.8953 30.761 18.4225C30.761 17.9497 30.9488 17.4962 31.2831 17.1619L35.5019 12.9431C35.6673 12.7775 35.8639 12.6462 36.0802 12.5567C36.2965 12.4672 36.5284 12.4214 36.7625 12.4218ZM34.5075 9.4275C34.8414 9.76211 35.0289 10.2155 35.0289 10.6881C35.0289 11.1608 34.8414 11.6142 34.5075 11.9488L30.2888 16.1675C29.9544 16.5019 29.501 16.6897 29.0281 16.6897C28.5553 16.6897 28.1019 16.5019 27.7675 16.1675C27.4332 15.8332 27.2453 15.3797 27.2453 14.9069C27.2453 14.4341 27.4332 13.9806 27.7675 13.6462L31.9863 9.4275C32.3209 9.09368 32.7742 8.90621 33.2469 8.90621C33.7196 8.90621 34.1729 9.09368 34.5075 9.4275ZM28.4706 5.91187C28.805 5.57753 29.2584 5.3897 29.7313 5.3897C30.2041 5.3897 30.6576 5.57753 30.9919 5.91187C31.3263 6.24622 31.5141 6.69968 31.5141 7.17251C31.5141 7.64534 31.3263 8.09881 30.9919 8.43315L26.7732 12.6519C26.6076 12.8174 26.4111 12.9488 26.1948 13.0384C25.9785 13.128 25.7466 13.1741 25.5125 13.1741C25.2784 13.1741 25.0466 13.128 24.8303 13.0384C24.614 12.9488 24.4174 12.8174 24.2519 12.6519C24.0863 12.4864 23.955 12.2898 23.8654 12.0735C23.7758 11.8572 23.7297 11.6254 23.7297 11.3913C23.7297 11.1571 23.7758 10.9253 23.8654 10.709C23.955 10.4927 24.0863 10.2962 24.2519 10.1306L28.4706 5.91187ZM21.9969 37.1157L12.4444 27.5631L14.2625 25.745L23.8151 35.2975L21.9969 37.1157ZM30.1431 30.3756H24.8094C24.7171 30.3756 24.6256 30.3938 24.5403 30.4292C24.455 30.4645 24.3775 30.5163 24.3122 30.5816L22.7 32.1938L15.96 25.4538L17.5722 23.8416C17.6375 23.7763 17.6893 23.6988 17.7246 23.6135C17.76 23.5282 17.7782 23.4367 17.7781 23.3444V18.5194C17.7782 17.5843 17.9028 16.6533 18.1489 15.7511C18.6994 13.7223 18.7052 11.5842 18.1657 9.55243C17.6261 7.52068 16.5603 5.66716 15.0757 4.17882L14.5947 3.69783C15.4175 3.11222 16.4211 2.83677 17.4275 2.92028C18.434 3.00379 19.3784 3.44086 20.0935 4.15406L22.906 6.96656C23.328 7.3889 23.716 7.84397 24.0663 8.32749L23.2575 9.13628C22.7899 9.60272 22.4787 10.203 22.3671 10.854C22.2555 11.505 22.349 12.1746 22.6346 12.7702C22.9202 13.3658 23.3839 13.8579 23.9614 14.1784C24.5389 14.499 25.2018 14.6321 25.8583 14.5595C25.8457 14.6748 25.8393 14.7908 25.8391 14.9069C25.8379 15.4324 25.9673 15.95 26.2156 16.4131V16.9663C26.2197 18.4508 25.9293 19.9214 25.3612 21.293C24.7931 22.6645 23.9586 23.9097 22.906 24.9566L23.9003 25.9509C26.097 23.7665 27.4128 20.8499 27.5969 17.7574C28.0409 17.9808 28.5311 18.0967 29.0281 18.0959C29.1442 18.0958 29.2602 18.0893 29.3756 18.0767C29.323 18.5512 29.3778 19.0313 29.5359 19.4817C29.6941 19.9321 29.9515 20.3411 30.2891 20.6785C30.6267 21.0159 31.0359 21.2731 31.4864 21.431C31.9368 21.5888 32.417 21.6433 32.8914 21.5905C32.803 22.3857 33.0174 23.185 33.4917 23.8293C33.9661 24.4737 34.6656 24.9158 35.4512 25.0676L30.1431 30.3756ZM41.5388 18.98L37.32 23.1988C36.9857 23.5331 36.5322 23.7209 36.0594 23.7209C35.5866 23.7209 35.1331 23.5331 34.7988 23.1988C34.4644 22.8644 34.2766 22.411 34.2766 21.9381C34.2766 21.4653 34.4644 21.0118 34.7988 20.6775L39.0175 16.4587C39.3518 16.1244 39.8053 15.9366 40.2781 15.9366C40.751 15.9366 41.2044 16.1244 41.5388 16.4587C41.8731 16.7931 42.061 17.2466 42.061 17.7194C42.061 18.1922 41.8731 18.6457 41.5388 18.98Z" fill="#404040"/>
<path d="M41.6844 35.2974C40.7523 35.2963 39.8587 34.9256 39.1996 34.2665C38.5405 33.6074 38.1698 32.7138 38.1688 31.7817C38.1688 31.5953 38.0947 31.4164 37.9628 31.2846C37.831 31.1527 37.6521 31.0786 37.4656 31.0786C37.2792 31.0786 37.1003 31.1527 36.9685 31.2846C36.8366 31.4164 36.7625 31.5953 36.7625 31.7817C36.7615 32.7138 36.3907 33.6074 35.7316 34.2665C35.0726 34.9256 34.179 35.2963 33.2469 35.2974C33.0604 35.2974 32.8816 35.3714 32.7497 35.5033C32.6178 35.6352 32.5438 35.814 32.5438 36.0005C32.5438 36.187 32.6178 36.3658 32.7497 36.4977C32.8816 36.6295 33.0604 36.7036 33.2469 36.7036C34.179 36.7047 35.0726 37.0754 35.7316 37.7345C36.3907 38.3936 36.7615 39.2872 36.7625 40.2192C36.7625 40.4057 36.8366 40.5846 36.9685 40.7164C37.1003 40.8483 37.2792 40.9224 37.4656 40.9224C37.6521 40.9224 37.831 40.8483 37.9628 40.7164C38.0947 40.5846 38.1688 40.4057 38.1688 40.2192C38.1698 39.2872 38.5405 38.3936 39.1996 37.7345C39.8587 37.0754 40.7523 36.7047 41.6844 36.7036C41.8709 36.7036 42.0497 36.6295 42.1816 36.4977C42.3134 36.3658 42.3875 36.187 42.3875 36.0005C42.3875 35.814 42.3134 35.6352 42.1816 35.5033C42.0497 35.3714 41.8709 35.2974 41.6844 35.2974ZM37.4656 37.6862C37.0491 36.9957 36.4705 36.417 35.7799 36.0005C36.4705 35.5839 37.0491 35.0053 37.4656 34.3147C37.8822 35.0053 38.4608 35.5839 39.1514 36.0005C38.4608 36.417 37.8822 36.9957 37.4656 37.6862Z" fill="#404040"/>
<path d="M43.0906 5.06299C42.345 5.06215 41.6301 4.76557 41.1028 4.2383C40.5756 3.71104 40.279 2.99615 40.2781 2.25049C40.2781 2.06401 40.2041 1.88517 40.0722 1.7533C39.9403 1.62144 39.7615 1.54736 39.575 1.54736C39.3885 1.54736 39.2097 1.62144 39.0778 1.7533C38.946 1.88517 38.8719 2.06401 38.8719 2.25049C38.871 2.99615 38.5745 3.71104 38.0472 4.2383C37.5199 4.76557 36.8051 5.06215 36.0594 5.06299C35.8729 5.06299 35.6941 5.13707 35.5622 5.26893C35.4303 5.40079 35.3563 5.57963 35.3563 5.76611C35.3563 5.95259 35.4303 6.13144 35.5622 6.2633C35.6941 6.39516 35.8729 6.46924 36.0594 6.46924C36.8051 6.47008 37.5199 6.76666 38.0472 7.29393C38.5745 7.82119 38.871 8.53607 38.8719 9.28174C38.8719 9.46822 38.946 9.64706 39.0778 9.77892C39.2097 9.91078 39.3885 9.98486 39.575 9.98486C39.7615 9.98486 39.9403 9.91078 40.0722 9.77892C40.2041 9.64706 40.2781 9.46822 40.2781 9.28174C40.279 8.53607 40.5756 7.82119 41.1028 7.29393C41.6301 6.76666 42.345 6.47008 43.0906 6.46924C43.2771 6.46924 43.456 6.39516 43.5878 6.2633C43.7197 6.13144 43.7938 5.95259 43.7938 5.76611C43.7938 5.57963 43.7197 5.40079 43.5878 5.26893C43.456 5.13707 43.2771 5.06299 43.0906 5.06299ZM39.575 6.95199C39.2623 6.48191 38.8592 6.07878 38.3891 5.76611C38.8592 5.45344 39.2623 5.05032 39.575 4.58023C39.8877 5.05032 40.2908 5.45344 40.7609 5.76611C40.2908 6.07878 39.8877 6.48191 39.575 6.95199Z" fill="#404040"/>
<path d="M5.82501 19.1255C5.82501 19.312 5.89909 19.4908 6.03095 19.6227C6.16281 19.7545 6.34166 19.8286 6.52814 19.8286C6.71462 19.8286 6.89346 19.7545 7.02532 19.6227C7.15718 19.4908 7.23126 19.312 7.23126 19.1255C7.23231 18.1934 7.60305 17.2998 8.26213 16.6407C8.92121 15.9816 9.81481 15.6109 10.7469 15.6099C10.9334 15.6099 11.1122 15.5358 11.2441 15.4039C11.3759 15.2721 11.45 15.0932 11.45 14.9067C11.45 14.7203 11.3759 14.5414 11.2441 14.4096C11.1122 14.2777 10.9334 14.2036 10.7469 14.2036C9.81481 14.2026 8.92121 13.8318 8.26213 13.1727C7.60305 12.5137 7.23231 11.6201 7.23126 10.688C7.23126 10.5015 7.15718 10.3227 7.02532 10.1908C6.89346 10.0589 6.71462 9.98486 6.52814 9.98486C6.34166 9.98486 6.16281 10.0589 6.03095 10.1908C5.89909 10.3227 5.82501 10.5015 5.82501 10.688C5.82396 11.6201 5.45323 12.5137 4.79415 13.1727C4.13507 13.8318 3.24147 14.2026 2.30939 14.2036C2.12291 14.2036 1.94406 14.2777 1.8122 14.4096C1.68034 14.5414 1.60626 14.7203 1.60626 14.9067C1.60626 15.0932 1.68034 15.2721 1.8122 15.4039C1.94406 15.5358 2.12291 15.6099 2.30939 15.6099C3.24147 15.6109 4.13507 15.9816 4.79415 16.6407C5.45323 17.2998 5.82396 18.1934 5.82501 19.1255ZM6.52814 13.221C6.9447 13.9116 7.52332 14.4902 8.2139 14.9067C7.52332 15.3233 6.9447 15.9019 6.52814 16.5925C6.11158 15.9019 5.53295 15.3233 4.84238 14.9067C5.53295 14.4902 6.11158 13.9116 6.52814 13.221Z" fill="#404040"/>
</svg>
