<svg width="49.000000" height="49.000000" viewBox="0 0 49 49" fill="none" xmlns="http://www.w3.org/2000/svg" xmlns:xlink="http://www.w3.org/1999/xlink">
	<desc>
			Created with Pixso.
	</desc>
	<defs>
		<clipPath id="clip1_561">
			<rect id="history (1) 1" width="49.000000" height="49.000000" transform="translate(-0.500000 -0.859375)" fill="white" fill-opacity="0"/>
		</clipPath>
	</defs>
	<rect id="history (1) 1" width="49.000000" height="49.000000" transform="translate(-0.500000 -0.859375)" fill="#FFFFFF" fill-opacity="0"/>
	<g clip-path="url(#clip1_561)">
		<path id="Vector" d="M24 -0.86C10.46 -0.86 -0.5 10.1 -0.5 23.64C-0.5 37.17 10.46 48.14 24 48.14C37.53 48.14 48.5 37.17 48.5 23.64C48.48 10.11 37.52 -0.85 24 -0.86ZM24 46.5C11.37 46.5 1.13 36.26 1.13 23.64C1.13 11.01 11.37 0.77 24 0.77C36.62 0.77 46.86 11.01 46.86 23.64C46.85 36.26 36.62 46.49 24 46.5Z" fill="#437FC8" fill-opacity="1.000000" fill-rule="nonzero"/>
		<path id="Vector" d="M12.64 22.08C12.69 22.09 12.75 22.1 12.8 22.1C13.19 22.1 13.52 21.83 13.6 21.45C13.71 20.97 13.84 20.49 14.01 20.03C14.11 19.75 14.06 19.44 13.87 19.22C13.69 18.99 13.39 18.88 13.1 18.94C12.81 18.99 12.57 19.19 12.48 19.47C12.28 20.01 12.13 20.56 12.01 21.12C11.92 21.56 12.2 21.99 12.64 22.08Z" fill="#437FC8" fill-opacity="1.000000" fill-rule="nonzero"/>
		<path id="Vector" d="M14.73 17.76C14.99 17.76 15.24 17.63 15.39 17.42C15.68 17.02 16 16.64 16.34 16.28C16.65 15.96 16.64 15.44 16.32 15.13C15.99 14.81 15.47 14.82 15.16 15.15C14.77 15.56 14.4 16 14.07 16.46C13.89 16.7 13.86 17.03 14 17.31C14.14 17.58 14.42 17.75 14.73 17.75L14.73 17.76Z" fill="#437FC8" fill-opacity="1.000000" fill-rule="nonzero"/>
		<path id="Vector" d="M18.25 14.56C18.4 14.56 18.54 14.53 18.66 14.45C19.09 14.2 19.53 13.99 19.99 13.8C20.4 13.63 20.61 13.15 20.44 12.74C20.26 12.32 19.79 12.12 19.37 12.29C18.84 12.5 18.33 12.75 17.84 13.04C17.52 13.23 17.36 13.6 17.46 13.96C17.55 14.31 17.88 14.56 18.25 14.56L18.25 14.56Z" fill="#437FC8" fill-opacity="1.000000" fill-rule="nonzero"/>
		<path id="Vector" d="M35.77 20.28C35.76 20.25 35.77 20.23 35.76 20.21C35.75 20.16 35.72 20.11 35.71 20.06C35.69 20.01 35.67 19.94 35.65 19.88C35.55 19.58 35.44 19.27 35.32 18.98C35.3 18.92 35.28 18.87 35.25 18.81C35.22 18.74 35.2 18.67 35.17 18.61C35.16 18.58 35.14 18.56 35.12 18.54C34.67 17.54 34.08 16.61 33.37 15.77C33.36 15.75 33.36 15.74 33.35 15.72C32.98 15.29 32.59 14.88 32.16 14.5C32.14 14.49 32.11 14.47 32.08 14.46C31.27 13.74 30.37 13.14 29.4 12.66C29.38 12.64 29.35 12.62 29.33 12.61C29.17 12.53 29.01 12.46 28.85 12.39C28.8 12.37 28.76 12.35 28.71 12.33C28.39 12.2 28.07 12.08 27.74 11.97C27.73 11.97 27.73 11.97 27.72 11.97C26.66 11.64 25.56 11.45 24.46 11.41C24.43 11.41 24.41 11.4 24.39 11.4C24.3 11.4 24.22 11.4 24.13 11.4C24.09 11.4 24.04 11.39 24 11.39C23.98 11.39 23.97 11.39 23.96 11.4C23.53 11.39 23.11 11.42 22.68 11.46C22.25 11.51 21.93 11.88 21.95 12.31C21.98 12.74 22.33 13.08 22.76 13.09C22.79 13.09 22.82 13.09 22.85 13.08C23.27 13.04 23.69 13.02 24.11 13.03C25.47 13.04 26.83 13.32 28.09 13.84L28.18 13.88C29.32 14.38 30.36 15.06 31.26 15.92C31.48 16.12 31.69 16.34 31.89 16.57C32.67 17.43 33.3 18.4 33.75 19.46C33.77 19.5 33.79 19.54 33.81 19.59C33.91 19.85 34.01 20.11 34.1 20.38C34.11 20.43 34.13 20.49 34.15 20.54C34.45 21.54 34.61 22.58 34.61 23.64C34.61 23.96 34.59 24.28 34.56 24.6C34.56 24.68 34.55 24.77 34.54 24.85C34.23 27.57 32.87 30.06 30.77 31.8L30.73 31.84C29.68 32.7 28.47 33.35 27.18 33.76C27.14 33.77 27.1 33.78 27.07 33.79C26.8 33.88 26.53 33.95 26.25 34.01L26.05 34.05C20.38 35.17 14.86 31.55 13.64 25.9L15.46 26.82C15.87 27.02 16.36 26.86 16.56 26.46C16.76 26.05 16.6 25.56 16.19 25.36L12.93 23.73C12.82 23.67 12.69 23.64 12.57 23.64C12.56 23.64 12.55 23.64 12.53 23.64C12.51 23.64 12.49 23.65 12.46 23.66C12.38 23.66 12.3 23.69 12.22 23.72C12.05 23.79 11.91 23.92 11.83 24.08L10.2 27.35C9.99 27.75 10.16 28.25 10.56 28.45C10.97 28.65 11.46 28.48 11.66 28.08L12.22 26.97C12.45 27.79 12.77 28.58 13.17 29.33C13.17 29.36 13.18 29.38 13.19 29.4C13.46 29.9 13.76 30.39 14.1 30.85C14.12 30.88 14.15 30.89 14.17 30.91C14.81 31.76 15.55 32.52 16.38 33.18C16.4 33.22 16.43 33.26 16.47 33.29C16.92 33.65 17.39 33.97 17.88 34.25C17.94 34.29 18.01 34.32 18.08 34.33C18.99 34.84 19.96 35.23 20.97 35.49C21 35.51 21.02 35.52 21.05 35.53C21.6 35.66 22.16 35.76 22.73 35.82L22.81 35.82C23.2 35.86 23.6 35.88 24 35.88C24.66 35.88 25.33 35.82 25.98 35.71L25.99 35.71C26.04 35.71 26.09 35.7 26.14 35.69C26.21 35.68 26.28 35.66 26.35 35.65C26.44 35.63 26.53 35.61 26.62 35.59C26.93 35.52 27.23 35.45 27.53 35.36C27.58 35.34 27.63 35.33 27.68 35.32C27.72 35.3 27.76 35.29 27.79 35.28C27.81 35.27 27.83 35.26 27.84 35.25C28.9 34.91 29.9 34.42 30.82 33.8C30.83 33.79 30.84 33.79 30.86 33.78C31.17 33.57 31.47 33.34 31.76 33.1C31.78 33.08 31.8 33.07 31.82 33.05C31.95 32.94 32.08 32.84 32.2 32.73C32.22 32.71 32.24 32.68 32.26 32.65C33.04 31.93 33.73 31.11 34.31 30.22C34.34 30.19 34.37 30.15 34.39 30.12C34.69 29.64 34.96 29.13 35.19 28.61C35.2 28.59 35.2 28.57 35.21 28.56C35.65 27.56 35.95 26.5 36.1 25.42C36.11 25.39 36.12 25.36 36.13 25.33C36.14 25.23 36.15 25.13 36.16 25.03C36.17 24.93 36.18 24.84 36.19 24.74C36.23 24.37 36.25 24 36.25 23.63L36.25 23.58C36.25 23.58 36.25 23.57 36.25 23.57C36.24 22.45 36.08 21.35 35.77 20.28Z" fill="#437FC8" fill-opacity="1.000000" fill-rule="nonzero"/>
		<path id="Vector" d="M24 16.29C23.54 16.29 23.18 16.65 23.18 17.1L23.18 23.64C23.18 23.85 23.26 24.06 23.42 24.21L26.68 27.48C27 27.79 27.51 27.78 27.83 27.47C28.14 27.15 28.15 26.65 27.84 26.32L24.81 23.3L24.81 17.1C24.81 16.65 24.45 16.29 24 16.29Z" fill="#437FC8" fill-opacity="1.000000" fill-rule="nonzero"/>
	</g>
</svg>
