<?xml version="1.0" encoding="utf-8"?><svg viewBox="0 0 32 32" xmlns="http://www.w3.org/2000/svg" xmlns:xlink="http://www.w3.org/1999/xlink"><style>:root>svg{display:none}:root>svg:target{display:block}</style><svg viewBox="0 0 25 26" id="chat" xmlns="http://www.w3.org/2000/svg"><g clip-path="url(#aa)"><path d="M14.845 5.05H5.47a.782.782 0 0 0 0 1.562h9.375a.782.782 0 0 0 0-1.563ZM11.72 8.174H5.47a.782.782 0 0 0 0 1.563h6.25a.782.782 0 0 0 0-1.563Z"/><path d="M17.189.362H3.126A3.128 3.128 0 0 0 .001 3.487v15.625a.78.78 0 0 0 1.281.6l4.47-3.725H17.19a3.128 3.128 0 0 0 3.125-3.125V3.487A3.128 3.128 0 0 0 17.189.362Zm1.562 12.5c0 .86-.7 1.562-1.563 1.562H5.47a.78.78 0 0 0-.5.182l-3.407 2.839V3.487c0-.861.7-1.563 1.563-1.563h14.063c.862 0 1.562.702 1.562 1.563v9.375Z"/><path d="M21.876 6.612a.782.782 0 0 0 0 1.562c.862 0 1.563.702 1.563 1.563v13.217l-2.638-2.11a.788.788 0 0 0-.487-.17H9.376a1.564 1.564 0 0 1-1.563-1.562v-.781a.782.782 0 0 0-1.562 0v.78a3.128 3.128 0 0 0 3.125 3.126h10.662l3.693 2.955a.789.789 0 0 0 .828.093.784.784 0 0 0 .442-.704V9.737a3.128 3.128 0 0 0-3.125-3.125Z"/></g><defs><clipPath id="aa"><path transform="translate(.001 .362)" d="M0 0h25v25H0z"/></clipPath></defs></svg><svg viewBox="0 0 21 21" id="comments" xmlns="http://www.w3.org/2000/svg"><g clip-path="url(#ba)"><path d="M20.835 12.744c0-1.788-1.252-3.349-3.116-4.194.11.39.174.793.185 1.206.186.111.366.23.534.36.94.726 1.459 1.658 1.459 2.628 0 .97-.517 1.903-1.459 2.627-1.031.795-2.418 1.234-3.904 1.234-1.002 0-1.959-.2-2.792-.573a10.54 10.54 0 0 1-1.61.19c1.137.854 2.69 1.381 4.402 1.381a7.77 7.77 0 0 0 3.032-.598l2.294 1.17-.463-2.34c.898-.84 1.438-1.917 1.438-3.09Z"/><path d="M17.251 9.104a5.013 5.013 0 0 0-.184-1.206c-.8-2.85-4.088-4.984-8.022-4.984-4.534 0-8.21 2.836-8.21 6.332 0 1.53.704 2.932 1.875 4.027l-.604 3.049 2.989-1.525a10.13 10.13 0 0 0 4.385.772 10.428 10.428 0 0 0 1.61-.19c3.544-.7 6.164-3.18 6.164-6.133l-.003-.142Zm-3.119 3.566c-1.245.959-2.887 1.52-4.662 1.598a9.38 9.38 0 0 1-1.24-.025c-1.626-.136-3.12-.682-4.273-1.572-1.224-.944-1.899-2.16-1.899-3.423 0-1.264.675-2.48 1.9-3.424C5.3 4.788 7.107 4.217 9.043 4.217c1.937 0 3.745.57 5.087 1.607.608.468 1.08 1.004 1.402 1.578.204.365.347.746.426 1.135.048.234.072.471.072.71 0 1.262-.674 2.479-1.899 3.423Z"/><path d="M11.957 10.163a.898.898 0 1 0 0-1.796.898.898 0 0 0 0 1.796Zm-2.912 0a.898.898 0 1 0 0-1.796.898.898 0 0 0 0 1.796Zm-2.912.001a.899.899 0 1 0 0-1.798.899.899 0 0 0 0 1.798Z"/></g><defs><clipPath id="ba"><path transform="translate(.835 .544)" d="M0 0h20v20H0z"/></clipPath></defs></svg><svg viewBox="0 0 14 18" id="compare" xmlns="http://www.w3.org/2000/svg"><path d="M1.375.437v17m6-8.5v8.5M12.99 4.634v12.803"/></svg><svg viewBox="0 0 16 23" id="compare-mob" xmlns="http://www.w3.org/2000/svg"><path d="M.135-.864v23.798m7.608-11.899v11.899m7.12-17.923v17.924"/></svg><svg viewBox="0 0 20 20" id="compare_icon" xmlns="http://www.w3.org/2000/svg"><path d="M11.146 6.854a.5.5 0 0 0 .708-.708L10.707 5H12.5A2.5 2.5 0 0 1 15 7.5V12a3 3 0 1 0 1 .17V7.5A3.5 3.5 0 0 0 12.5 4h-1.793l1.147-1.146a.5.5 0 0 0-.708-.708l-2 2a.5.5 0 0 0 0 .708l2 2ZM17 15a2 2 0 1 1-4 0 2 2 0 0 1 4 0ZM8 5a3 3 0 0 1-3 3v4.5A2.5 2.5 0 0 0 7.5 15h1.793l-1.147-1.146a.5.5 0 0 1 .708-.708l2 2a.5.5 0 0 1 0 .708l-2 2a.5.5 0 0 1-.708-.708L9.293 16H7.5A3.5 3.5 0 0 1 4 12.5V7.83A3.001 3.001 0 1 1 8 5ZM7 5a2 2 0 1 0-4 0 2 2 0 0 0 4 0Z"/></svg><svg viewBox="0 0 19 18" id="heart" xmlns="http://www.w3.org/2000/svg"><g clip-path="url(#ga)"><path d="M13.844 1.543a5.058 5.058 0 0 0-3.896 1.8 4.99 4.99 0 0 0-3.896-1.8A5.104 5.104 0 0 0 .948 6.646c0 4.83 8.43 9.547 8.772 9.73a.41.41 0 0 0 .456 0c.342-.183 8.772-4.83 8.772-9.73a5.104 5.104 0 0 0-5.104-5.103ZM9.948 15.464C8.627 14.69 1.86 10.565 1.86 6.646a4.192 4.192 0 0 1 4.192-4.192 4.101 4.101 0 0 1 3.509 1.891.479.479 0 0 0 .775 0 4.192 4.192 0 0 1 7.7 2.301c0 3.965-6.766 8.066-8.088 8.818Z"/></g><defs><clipPath id="ga"><path transform="translate(.948 -.007)" d="M0 0h18v18H0z"/></clipPath></defs></svg><svg viewBox="0 0 21 26" id="heart-mob" xmlns="http://www.w3.org/2000/svg"><g clip-path="url(#fa)"><path d="M14.907 2.839c-1.669-.011-3.255.893-4.33 2.467C9.51 3.721 7.92 2.814 6.249 2.84c-3.131 0-5.67 3.132-5.67 6.997 0 6.623 9.367 13.089 9.747 13.339a.386.386 0 0 0 .506 0c.38-.25 9.747-6.623 9.747-13.339 0-3.865-2.54-6.997-5.671-6.997Zm-4.33 19.086C9.11 20.863 1.59 15.21 1.59 9.836c0-3.174 2.086-5.748 4.659-5.748 1.575-.025 3.05.955 3.898 2.593.173.293.505.359.743.146a.61.61 0 0 0 .118-.146c1.408-2.657 4.295-3.402 6.448-1.665 1.318 1.063 2.111 2.877 2.109 4.82 0 5.436-7.519 11.059-8.987 12.09Z"/></g><defs><clipPath id="fa"><path transform="translate(.578 .715)" d="M0 0h20v24.678H0z"/></clipPath></defs></svg><svg viewBox="0 0 25 24" id="ok" xmlns="http://www.w3.org/2000/svg"><path d="M12.5 0C9.055 0 6.25 2.691 6.25 6s2.804 6 6.25 6c3.448 0 6.25-2.691 6.25-6s-2.802-6-6.25-6Zm0 10.5c-2.584 0-4.687-2.019-4.687-4.5s2.103-4.5 4.688-4.5c2.584 0 4.687 2.019 4.687 4.5s-2.103 4.5-4.687 4.5Zm6.11 12.32-5.469-7.5c-.29-.4-.986-.4-1.28 0l-5.468 7.5a.73.73 0 0 0 .192 1.043.8.8 0 0 0 1.088-.183l4.828-6.622 4.83 6.622a.805.805 0 0 0 1.089.183.73.73 0 0 0 .19-1.044Z"/><path d="M20.233 12.363a.805.805 0 0 0-1.104 0c-3.658 3.51-9.603 3.51-13.258 0a.805.805 0 0 0-1.105 0 .73.73 0 0 0 0 1.06c2.133 2.046 4.935 3.07 7.735 3.07 2.8 0 5.601-1.024 7.732-3.07a.73.73 0 0 0 0-1.06Z"/></svg><svg viewBox="0 0 19 20" id="search2" xmlns="http://www.w3.org/2000/svg"><g clip-path="url(#ia)"><path d="M8.367.453C3.754.453 0 4.206 0 8.82c0 4.614 3.754 8.367 8.367 8.367 4.614 0 8.367-3.753 8.367-8.367 0-4.614-3.753-8.367-8.367-8.367Zm0 15.19A6.83 6.83 0 0 1 1.545 8.82a6.83 6.83 0 0 1 6.822-6.823A6.83 6.83 0 0 1 15.19 8.82a6.83 6.83 0 0 1-6.823 6.822Z"/><path d="m18.774 18.134-4.429-4.428a.772.772 0 1 0-1.092 1.092l4.429 4.429a.77.77 0 0 0 1.092 0 .772.772 0 0 0 0-1.093Z"/></g><defs><clipPath id="ia"><path transform="translate(0 .453)" d="M0 0h19v19H0z"/></clipPath></defs></svg><svg viewBox="0 0 25 26" id="shop-cart" xmlns="http://www.w3.org/2000/svg"><g clip-path="url(#ja)"><path d="m23.288 6.941-.018-.032a1.178 1.178 0 0 0-.089-.152L19.703.744a1.41 1.41 0 0 0-1.217-.702H6.516c-.5 0-.968.27-1.218.703L1.763 6.878a.734.734 0 0 0-.07.171c-.05.135-.078.28-.078.431v15.84c0 .95.773 1.723 1.723 1.723h18.326c.95 0 1.723-.773 1.723-1.723V7.422l-.002-.063a.729.729 0 0 0-.097-.418Zm-10.03-5.434h5.194l2.736 4.73h-7.93v-4.73Zm-6.707 0h5.242v4.73h-7.97l2.728-4.73Zm15.37 21.812a.258.258 0 0 1-.257.257H3.338a.258.258 0 0 1-.257-.257V7.702h18.84V23.32Z"/><path d="M15.826 13.226a.733.733 0 0 0-1.036 0l-3.271 3.272-1.258-1.258a.733.733 0 0 0-1.037 1.036l1.777 1.776a.73.73 0 0 0 1.036 0l3.79-3.79a.733.733 0 0 0 0-1.036Z"/></g><defs><clipPath id="ja"><path transform="translate(0 .042)" d="M0 0h25v25H0z"/></clipPath></defs></svg><svg viewBox="0 0 28 28" id="shopping-cart" xmlns="http://www.w3.org/2000/svg"><g clip-path="url(#ka)"><path d="M8.406 18.436h15.428a3.183 3.183 0 0 0 3.176-3.177V8.7c0-.011 0-.023-.006-.034 0-.012-.005-.03-.005-.04 0-.012-.006-.024-.006-.035-.006-.012-.006-.023-.012-.04-.005-.012-.005-.024-.011-.035-.006-.012-.006-.023-.012-.035-.005-.011-.011-.023-.017-.04-.006-.011-.011-.023-.017-.029l-.017-.034c-.006-.012-.012-.017-.018-.029-.005-.011-.017-.023-.023-.034-.005-.012-.011-.018-.023-.03-.005-.01-.017-.016-.023-.028-.005-.011-.017-.017-.023-.029-.006-.011-.017-.017-.023-.023l-.029-.029c-.011-.005-.017-.017-.028-.023-.012-.005-.023-.017-.035-.023-.011-.005-.017-.011-.029-.017-.011-.006-.023-.011-.034-.023a55.467 55.467 0 0 0-.035-.017l-.034-.017-.035-.018c-.011-.005-.023-.005-.034-.011a.107.107 0 0 0-.04-.012c-.012 0-.023-.005-.03-.005-.017-.006-.028-.006-.045-.006-.006 0-.012-.006-.023-.006l-19.554-2.7V2.57c0-.028 0-.057-.006-.08 0-.006 0-.012-.006-.023 0-.017-.006-.035-.006-.052-.005-.017-.005-.029-.011-.046 0-.011-.006-.017-.006-.029l-.017-.051c0-.006-.006-.018-.006-.023a.172.172 0 0 0-.023-.047c-.006-.005-.006-.017-.011-.023a.12.12 0 0 0-.023-.034c-.006-.012-.012-.017-.018-.029-.005-.011-.011-.017-.017-.029-.006-.011-.017-.023-.023-.034l-.017-.017-.035-.035-.017-.017c-.012-.012-.023-.023-.04-.035-.006-.005-.018-.011-.023-.017-.012-.012-.023-.017-.035-.029-.017-.011-.034-.023-.046-.029-.006-.005-.011-.005-.017-.011-.023-.012-.052-.023-.075-.035L2.07.062a.776.776 0 0 0-1.02.414.776.776 0 0 0 .415 1.018l3.763 1.589v17.022a3.18 3.18 0 0 0 2.768 3.148 3.138 3.138 0 0 0-.449 1.61A3.14 3.14 0 0 0 10.684 28a3.144 3.144 0 0 0 3.137-3.136c0-.576-.156-1.122-.432-1.583h6.986a3.093 3.093 0 0 0-.431 1.583A3.14 3.14 0 0 0 23.08 28a3.144 3.144 0 0 0 3.136-3.136 3.144 3.144 0 0 0-3.136-3.137H8.406c-.898 0-1.623-.73-1.623-1.622v-2.107c.472.277 1.03.438 1.623.438Zm3.867 6.422c0 .875-.714 1.582-1.583 1.582a1.589 1.589 0 0 1-1.582-1.582c0-.869.713-1.582 1.582-1.582.87 0 1.583.707 1.583 1.582Zm12.395 0c0 .875-.713 1.582-1.582 1.582a1.59 1.59 0 0 1-1.583-1.582c0-.869.714-1.582 1.583-1.582s1.582.707 1.582 1.582Zm-.834-7.976H8.406c-.898 0-1.623-.73-1.623-1.623V6.863l18.673 2.573v5.818c0 .903-.73 1.628-1.622 1.628Z"/></g><defs><clipPath id="ka"><path d="M0 0h28v28H0z"/></clipPath></defs></svg><svg viewBox="0 0 32 32" id="star-rate" xmlns="http://www.w3.org/2000/svg"><g clip-path="url(#la)"><path d="M31.917 12.275a1.697 1.697 0 0 0-1.465-1.17l-9.236-.838-3.652-8.548a1.701 1.701 0 0 0-3.128.001l-3.652 8.547-9.238.838a1.7 1.7 0 0 0-1.462 1.17 1.699 1.699 0 0 0 .497 1.807l6.981 6.122-2.058 9.069a1.7 1.7 0 0 0 2.53 1.837L16 26.35l7.964 4.761a1.702 1.702 0 0 0 2.53-1.837l-2.058-9.069 6.982-6.121c.513-.45.71-1.159.499-1.808Z"/></g><defs><clipPath id="la"><path d="M0 0h32v32H0z"/></clipPath></defs></svg><svg viewBox="0 0 26 26" id="telegram" xmlns="http://www.w3.org/2000/svg"><g clip-path="url(#ma)"><path d="M25.487 3.263c-.305-.374-.763-.58-1.288-.58-.286 0-.588.06-.9.18L2.139 10.94c-1.123.428-1.274 1.071-1.265 1.417.01.345.198.978 1.343 1.343a.79.79 0 0 0 .02.006l4.39 1.256L9 21.752c.324.925 1.05 1.5 1.896 1.5.534 0 1.059-.224 1.518-.646l2.715-2.5 3.938 3.17.002.002.037.03.01.008c.438.34.916.519 1.383.519.912 0 1.638-.675 1.85-1.72l3.467-17.12c.139-.688.022-1.303-.33-1.732ZM8.095 14.725l8.469-4.327-5.274 5.604a.732.732 0 0 0-.177.326l-1.017 4.119-2.001-5.722Zm3.326 6.803c-.035.032-.07.061-.105.088l.943-3.821 1.716 1.382-2.553 2.351ZM24.38 4.703l-3.467 17.122c-.034.164-.14.545-.414.545-.136 0-.306-.074-.48-.208l-4.462-3.593-.003-.002L12.9 16.43l7.626-8.103a.732.732 0 0 0-.867-1.154L7.116 13.58l-4.45-1.273L23.823 4.23c.18-.068.304-.083.377-.083.045 0 .124.006.154.042.039.048.088.21.027.513Z"/></g><defs><clipPath id="ma"><path transform="translate(.873 .78)" d="M0 0h25v25H0z"/></clipPath></defs></svg><svg viewBox="0 0 26 26" id="user" xmlns="http://www.w3.org/2000/svg"><g clip-path="url(#na)"><path d="M13.156 25.127a12.504 12.504 0 0 1-9.558-4.443 12.51 12.51 0 0 1-2.942-8.057c0-3.339 1.3-6.478 3.661-8.839a12.423 12.423 0 0 1 8.84-3.661c3.338 0 6.477 1.3 8.838 3.661a12.418 12.418 0 0 1 3.661 8.839 12.509 12.509 0 0 1-4.417 9.535 12.504 12.504 0 0 1-8.083 2.965Zm0-23.438C7.126 1.69 2.22 6.596 2.22 12.627a10.945 10.945 0 0 0 3.865 8.344 10.94 10.94 0 0 0 15.436-1.295 10.944 10.944 0 0 0 2.574-7.049c0-6.031-4.907-10.938-10.938-10.938Z"/><path d="M13.156 12.627A4.693 4.693 0 0 1 8.47 7.939a4.693 4.693 0 0 1 4.687-4.687 4.693 4.693 0 0 1 4.688 4.687 4.693 4.693 0 0 1-4.688 4.688Zm0-7.813a3.129 3.129 0 0 0-3.125 3.125 3.129 3.129 0 0 0 3.125 3.126 3.129 3.129 0 0 0 3.125-3.126 3.128 3.128 0 0 0-3.125-3.125Z"/><path d="M20.735 22.348a.784.784 0 0 1-.759-.972 7.06 7.06 0 0 0 .212-1.718c0-3.822-3.108-6.976-6.929-7.03l-.103-.001h-.103c-3.82.055-6.928 3.209-6.928 7.031 0 .581.071 1.16.211 1.718a.781.781 0 0 1-1.515.38 8.624 8.624 0 0 1-.258-2.098c0-2.274.88-4.418 2.477-6.036a8.542 8.542 0 0 1 5.994-2.557h.244c2.27.032 4.399.94 5.995 2.556a8.543 8.543 0 0 1 2.477 6.037c0 .71-.087 1.416-.258 2.099a.782.782 0 0 1-.758.59Z"/></g><defs><clipPath id="na"><path transform="translate(.656 .127)" d="M0 0h25v25H0z"/></clipPath></defs></svg><svg viewBox="0 0 26 25" id="viber" xmlns="http://www.w3.org/2000/svg"><path d="M24.291 8.824A8.76 8.76 0 0 0 21.7 2.59 8.761 8.761 0 0 0 15.468 0h-5.229C7.892 0 5.678.92 4.007 2.591a8.762 8.762 0 0 0-2.591 6.233v4.11c0 1.818.555 3.567 1.604 5.058a8.854 8.854 0 0 0 3.623 2.994v2.36c0 1.22.683 1.654 1.268 1.654.418 0 .836-.206 1.243-.613l2.63-2.63h3.684c2.348 0 4.56-.92 6.232-2.591a8.761 8.761 0 0 0 2.591-6.233v-4.11Zm-8.823 11.468H11.48a.732.732 0 0 0-.518.214L8.12 23.351l-.012.011v-2.866a.732.732 0 0 0-.47-.683c-2.845-1.086-4.756-3.85-4.756-6.88v-4.11c0-1.956.768-3.802 2.162-5.196a7.306 7.306 0 0 1 5.196-2.162h5.228c1.957 0 3.803.768 5.197 2.162a7.305 7.305 0 0 1 2.162 5.197v4.11c0 4.057-3.3 7.358-7.358 7.358Z"/><path d="M14.801 11.98a.732.732 0 0 0-1.035 0l-.592.591-2.293-2.292.592-.592a.733.733 0 0 0 0-1.036L8.699 5.878a.732.732 0 0 0-1.035 0L5.722 7.819a2.697 2.697 0 0 0 0 3.81l6.102 6.102a2.676 2.676 0 0 0 1.905.786 2.68 2.68 0 0 0 1.905-.786l1.941-1.942a.733.733 0 0 0 0-1.035l-2.774-2.774Zm-.203 4.715c-.231.23-.54.357-.87.357a1.22 1.22 0 0 1-.868-.357l-6.102-6.102a1.23 1.23 0 0 1 0-1.738L8.18 7.431 9.92 9.17l-.591.592a.733.733 0 0 0 0 1.036l3.328 3.328a.733.733 0 0 0 1.036 0l.591-.592 1.738 1.738-1.423 1.424ZM13.031 3.24a.732.732 0 1 0 0 1.465c1.676 0 3.252.653 4.438 1.838a6.234 6.234 0 0 1 1.838 4.438.733.733 0 0 0 1.465 0 7.69 7.69 0 0 0-2.267-5.474A7.69 7.69 0 0 0 13.03 3.24Z"/><path d="M16.169 10.98a.733.733 0 0 0 1.465 0 4.608 4.608 0 0 0-4.603-4.602.732.732 0 1 0 0 1.465 3.141 3.141 0 0 1 3.138 3.137Z"/></svg><svg viewBox="0 0 27 27" id="vk" xmlns="http://www.w3.org/2000/svg"><g clip-path="url(#pa)"><path d="M13.663 21.938c3.906 0 2.513-2.473 2.815-3.184-.005-.531-.01-1.042.009-1.353.247.07.831.366 2.037 1.538 1.862 1.88 2.338 2.998 3.842 2.998h2.769c.877 0 1.334-.363 1.562-.668.22-.294.437-.812.2-1.617-.617-1.94-4.22-5.29-4.443-5.642a3.2 3.2 0 0 1 .116-.197h-.003c.712-.94 3.425-5.005 3.824-6.632a.022.022 0 0 0 .003-.01c.216-.742.018-1.223-.187-1.495-.308-.408-.799-.614-1.462-.614h-2.768c-.927 0-1.63.467-1.986 1.319-.595 1.513-2.267 4.625-3.52 5.726a72.124 72.124 0 0 1 .008-3.637c.04-1.727.171-3.408-1.621-3.408h-4.352c-1.122 0-2.197 1.227-1.034 2.683 1.018 1.275.366 1.986.585 5.526-.854-.917-2.376-3.394-3.451-6.558-.301-.856-.758-1.65-2.044-1.65H1.793C.671 5.064 0 5.677 0 6.702c0 2.301 5.095 15.236 13.663 15.236ZM4.562 6.75c.244 0 .269 0 .45.514 1.101 3.244 3.572 8.043 5.376 8.043 1.356 0 1.356-1.39 1.356-1.913l-.001-4.164c-.075-1.378-.576-2.065-.906-2.481l3.947.005c.002.019-.023 4.606.01 5.718 0 1.578 1.254 2.483 3.21.503 2.065-2.33 3.492-5.813 3.55-5.955.084-.202.157-.271.423-.271h2.78c-.001.003-.001.007-.003.01-.253 1.181-2.751 4.946-3.587 6.114a.976.976 0 0 0-.038.057c-.368.6-.668 1.264.05 2.198h.001c.066.079.236.263.483.52.77.794 3.409 3.51 3.643 4.59-.155.024-.324.006-2.94.012-.557 0-.992-.832-2.654-2.509-1.494-1.453-2.463-2.047-3.347-2.047-1.714 0-1.59 1.392-1.573 3.075.005 1.824-.006 1.247.006 1.362-.1.04-.387.118-1.135.118-7.138 0-11.787-11.33-11.965-13.495.062-.006.913-.003 2.864-.004Z"/></g><defs><clipPath id="pa"><path d="M0 0h27v27H0z"/></clipPath></defs></svg></svg>